<?xml version="1.0" standalone="no"?>
<!DOCTYPE svg PUBLIC "-//W3C//DTD SVG 1.1//EN" "http://www.w3.org/Graphics/SVG/1.1/DTD/svg11.dtd" >
<svg>
<metadata>
Created by FontForge 20090914 at Fri Apr  9 09:06:54 2021
 By www-data
Copyright 2015 The Arima Project Authors (info@ndiscovered.com)
</metadata>
<defs>
<font id="ArimaMadurai-Bold" horiz-adv-x="0" >
  <font-face 
    font-family="Arima Madurai"
    font-weight="700"
    font-stretch="normal"
    units-per-em="1000"
    panose-1="0 0 8 0 0 0 0 0 0 0"
    ascent="800"
    descent="-200"
    x-height="521.999"
    cap-height="707"
    bbox="-474 -412.001 2600 1050"
    underline-thickness="50"
    underline-position="-50"
    unicode-range="U+0020-U+FB02"
  />
<missing-glyph horiz-adv-x="600" 
d="M492 -400h-380v1200h380v-1200zM202 720v-40h78v-44h-80v-40h200v40h-80v44h80v40h-198zM200 565v-125h200v41h-80v84h-120zM280 481h-40v43h40v-43zM200 408v-40h80v-44h-80v-40h120v84h80v40h-200zM360 336v-80h-160v-40h200v120h-40zM280 189v-67h40v28h40v-57h-120
v96h-40v-135h200v135h-120zM200 -18v-136h200v136h-200zM360 -114h-120v56h120v-56zM200 -182v-39h84l-84 -57v-39h200v39h-123l84 57h39v39h-200z" />
    <glyph glyph-name="fi" unicode="fi" horiz-adv-x="584" 
d="M235 512c9.33301 0 22.334 0.333008 39.001 1s30.334 1.33398 41.001 2.00098l-1 -27c-0.666992 -8.66699 -3.66699 -15.5 -9 -20.5s-12 -7.5 -20 -7.5h-87v-329c0 -50 5.33301 -89.667 16 -119c-18 -16.667 -38.667 -25 -62 -25c-18.667 0 -33.834 5.33301 -45.501 16
s-17.5 24.667 -17.5 42v415h-11c-8.66699 0 -18.667 -0.333008 -30 -1s-21.333 -1.66699 -30 -3l1 29c0.666992 8.66699 3.66699 15.334 9 20.001s12 7 20 7h41v16c0 142.667 74.667 214 224 214c60.667 0 108.5 -8 143.5 -24s52.5 -38.667 52.5 -68
c0 -18.667 -7.33301 -34 -22 -46s-31.667 -18 -51 -18c-22 0 -38 5.33301 -48 16c12 13.333 18 30.333 18 51c0 17.333 -9 30.166 -27 38.499s-40 12.5 -66 12.5c-34.667 0 -60.334 -8 -77.001 -24s-27.167 -36.833 -31.5 -62.5s-6.5 -60.834 -6.5 -105.501h37zM528.001 12
c-18.667 -16.667 -39.667 -25 -63 -25c-18 0 -32.667 5.16699 -44 15.5s-17 24.5 -17 42.5l-1 338c0 48.667 -5.33301 88.667 -16 120c20 16 40.333 24 61 24c18 0 32.833 -5.16699 44.5 -15.5s17.5 -24.5 17.5 -42.5l2 -338c0 -52 5.33301 -91.667 16 -119z" />
    <glyph glyph-name="fl" unicode="fl" horiz-adv-x="624" 
d="M605 52c0 -18 -7.99805 -32.834 -23.998 -44.501s-35.333 -17.5 -58 -17.5c-34.667 0 -61.5 11.167 -80.5 33.5s-28.5 53.5 -28.5 93.5v470c0 41.333 -9.33301 71.166 -28 89.499s-45.667 27.5 -81 27.5c-32.667 0 -56.834 -7.66699 -72.501 -23
s-25.334 -34.833 -29.001 -58.5s-5.5 -56.167 -5.5 -97.5v-13h37c9.33301 0 21.5 0.333008 36.5 1s27.5 1.33398 37.5 2.00098l-1 -27c-0.666992 -8.66699 -3.66699 -15.5 -9 -20.5s-12 -7.5 -20 -7.5h-81v-329c0 -50 5.33301 -89.667 16 -119
c-18 -16.667 -38.667 -25 -62 -25c-18.667 0 -33.834 5.33301 -45.501 16s-17.5 24.667 -17.5 42v415h-11c-8.66699 0 -18.667 -0.333008 -30 -1s-21.333 -1.66699 -30 -3l1 29c0.666992 8.66699 3.66699 15.334 9 20.001s12 7 20 7h41v32c0 132 71.667 198 215 198
c70.667 0 124.834 -13.167 162.501 -39.5s56.5 -62.833 56.5 -109.5v-467c0 -35.333 12.333 -53 37 -53c6.66699 0 13 1.33301 19 4s10.333 6.66699 13 12c8.66699 -10.667 13 -23 13 -37z" />
    <glyph glyph-name=".notdef" horiz-adv-x="600" 
d="M492 -400h-380v1200h380v-1200zM202 720v-40h78v-44h-80v-40h200v40h-80v44h80v40h-198zM200 565v-125h200v41h-80v84h-120zM280 481h-40v43h40v-43zM200 408v-40h80v-44h-80v-40h120v84h80v40h-200zM360 336v-80h-160v-40h200v120h-40zM280 189v-67h40v28h40v-57h-120
v96h-40v-135h200v135h-120zM200 -18v-136h200v136h-200zM360 -114h-120v56h120v-56zM200 -182v-39h84l-84 -57v-39h200v39h-123l84 57h39v39h-200z" />
    <glyph glyph-name="space" unicode=" " horiz-adv-x="216" 
 />
    <glyph glyph-name="exclam" unicode="!" horiz-adv-x="315" 
d="M122 192h76l24 526c-20.667 6.66699 -42.667 10 -66 10c-21.333 0 -42 -3.33301 -62 -10zM109.5 6c-13 12.667 -19.5 28 -19.5 46c0 18.667 6.5 34.5 19.5 47.5s28.833 19.5 47.5 19.5c18 0 33.5 -6.5 46.5 -19.5s19.5 -28.833 19.5 -47.5c0 -18 -6.5 -33.333 -19.5 -46
s-28.5 -19 -46.5 -19c-18.667 0 -34.5 6.33301 -47.5 19z" />
    <glyph glyph-name="quotedbl" unicode="&#x22;" horiz-adv-x="323" 
d="M208 552h47.999l28 174c-13.333 4.66699 -29.666 7 -48.999 7s-36.333 -2.33301 -51 -7zM63.999 552h47.999l28 174c-13.333 4.66699 -29.666 7 -48.999 7s-36.333 -2.33301 -51 -7z" />
    <glyph glyph-name="numbersign" unicode="#" horiz-adv-x="631" 
d="M464 411l-25 -135h159l-10 -65h-161l-38 -211h-74l38 211h-126l-38 -211h-74l38 211h-148l10 65h150l25 135h-153l10 65h154l40 219h74l-40 -219h126l40 219h74l-40 -219h155l-10 -65h-156zM390 411h-126l-25 -135h126z" />
    <glyph glyph-name="dollar" unicode="$" horiz-adv-x="561" 
d="M468 48c-36 -35.333 -89.3369 -55.665 -160.004 -60.998c1.33301 -38.667 3.33301 -63 6 -73c-5.33301 -5.33301 -12.666 -8 -21.999 -8c-14 0 -21 7.33301 -21 22v58c-75.333 0.666992 -132.333 14.334 -171 41.001s-58 61 -58 103c0 20.667 5.66699 37.167 17 49.5
s29.333 18.5 54 18.5c4 0 12 -0.666992 24 -2c-2 -6.66699 -3 -14.334 -3 -23.001c0 -4.66699 0.666992 -13 2 -25c4 -32 17.5 -59 40.5 -81s54.5 -34.333 94.5 -37l-1 272l-3 2c-48 26.667 -85.5 50.167 -112.5 70.5s-48.333 43.5 -64 69.5s-23.5 57 -23.5 93
c0 54.667 18.667 96 56 124s86 43.667 146 47c-1.33301 30.667 -3.33301 52.334 -6 65.001c2.66699 2 5.83398 3.83301 9.50098 5.5s7.83398 2.5 12.501 2.5c14 0 21 -7.33301 21 -22v-50c58.667 -1.33301 105.667 -12.5 141 -33.5s53 -49.833 53 -86.5
c0 -34.667 -18.667 -53 -56 -55c-2.66699 -0.666992 -6.66699 -1 -12 -1s-12.666 0.666992 -21.999 2c0.666992 3.33301 1 7.66602 1 12.999c0 15.333 -2.33301 28 -7 38c-3.33301 21.333 -13.5 39.166 -30.5 53.499s-39.5 23.166 -67.5 26.499l1 -247l21 -12
c40.667 -22.667 74.5 -44 101.5 -64s49.167 -43.833 66.5 -71.5s26 -59.5 26 -95.5c0 -50 -18 -92.667 -54 -128zM193.996 503.501c15.333 -20.333 40.667 -41.168 76 -62.501l-1 226c-28 -2.66699 -51.333 -11.167 -70 -25.5s-28 -36.5 -28 -66.5
c0 -27.333 7.66699 -51.166 23 -71.499zM384.997 62.999c19.333 18.667 29 44.334 29 77.001c0 30 -8.33301 55.167 -25 75.5s-44 42.166 -82 65.499l1 -251c32 3.33301 57.667 14.333 77 33z" />
    <glyph glyph-name="percent" unicode="%" horiz-adv-x="1068" 
d="M690 710c10.667 0 20.668 -2 30.001 -6s16.666 -10.333 21.999 -19l-354 -698c-3.33301 -0.666992 -8 -1 -14 -1c-18.667 0 -35 7 -49 21l352 702c2.66699 0.666992 7 1 13 1zM91.501 364c-31.667 33.333 -47.5 82.666 -47.5 147.999s15.833 114.5 47.5 147.5
s78.5 49.5 140.5 49.5s108.833 -16.5 140.5 -49.5s47.5 -82.167 47.5 -147.5s-15.833 -114.666 -47.5 -147.999s-78.5 -50 -140.5 -50s-108.833 16.667 -140.5 50zM299.001 387c14 26 21 67.667 21 125c0 56.667 -7 98 -21 124s-36 39 -66 39
c-30.667 0 -53 -12.833 -67 -38.5s-21 -67.167 -21 -124.5s7 -99 21 -125s36.333 -39 67 -39c30 0 52 13 66 39zM695.501 40.5c-31.667 33 -47.5 82.167 -47.5 147.5c0 64.667 16 113.667 48 147s78.667 50 140 50c62.667 0 109.667 -16.5 141 -49.5s47 -82.167 47 -147.5
c0 -131.333 -62.667 -197 -188 -197c-62 0 -108.833 16.5 -140.5 49.5zM903.501 63.5c14.333 26.333 21.5 67.833 21.5 124.5s-7.16699 98 -21.5 124s-36.5 39 -66.5 39s-52.167 -13 -66.5 -39s-21.5 -67.333 -21.5 -124c0 -57.333 7.16699 -99 21.5 -125s36.5 -39 66.5 -39
s52.167 13.167 66.5 39.5z" />
    <glyph glyph-name="ampersand" unicode="&#x26;" horiz-adv-x="881" 
d="M839.5 644.5c12.333 -9.66699 18.499 -22.832 18.499 -39.499c0 -18.667 -8.33301 -39.667 -25 -63c-27.333 -38.667 -60 -75.667 -98 -111c9.33301 -36 14 -71.667 14 -107c0 -66 -15.167 -124.667 -45.5 -176s-72.166 -91.333 -125.499 -120s-113.333 -43 -180 -43
c-68 0 -127.833 13.167 -179.5 39.5s-91.5 62.666 -119.5 108.999s-42 98.833 -42 157.5c0 44.667 9.83301 85.167 29.5 121.5s48 65 85 86s80.167 31.5 129.5 31.5c55.333 0 97.833 -13.333 127.5 -40s44.5 -60.667 44.5 -102c0 -53.333 -27.333 -103 -82 -149
c33.333 22.667 72.333 53.667 117 93s88.667 81.333 132 126c-25.333 54 -62.5 97.333 -111.5 130s-104.167 48 -165.5 46c0 24 6.33301 42.5 19 55.5s34.667 19.5 66 19.5c53.333 0 102 -17 146 -51s79.667 -78.667 107 -134c44.667 50.667 78.667 95.667 102 135
c12 0 24.167 -4.83301 36.5 -14.5zM665.999 373.002c-59.333 -47.333 -123.998 -89.668 -193.998 -127.001s-135.667 -65 -197 -83l-8 35c37.333 30 65.666 58.833 84.999 86.5s29 58.834 29 93.501c0 30 -6.83301 54.333 -20.5 73s-33.834 28 -60.501 28
c-22 0 -42.167 -7 -60.5 -21s-33 -34.5 -44 -61.5s-16.5 -59.167 -16.5 -96.5c0 -48 9 -92 27 -132s44.333 -72 79 -96s75.667 -36 123 -36c46.667 0 90 11.5 130 34.5s72.167 55.667 96.5 98s36.5 91.5 36.5 147.5c0 16.667 -1.66699 35.667 -5 57z" />
    <glyph glyph-name="quotesingle" unicode="'" horiz-adv-x="180" 
d="M64 552h47.999l28 174c-13.333 4.66699 -29.666 7 -48.999 7s-36.333 -2.33301 -51 -7z" />
    <glyph glyph-name="parenleft" unicode="(" horiz-adv-x="440" 
d="M256.5 -122.5c-40.333 33.667 -75.168 85.166 -104.501 154.499s-44 154 -44 254c0 100.667 14.833 185.667 44.5 255s64.667 121 105 155s75.833 51 106.5 51c13.333 0 22.833 -2.83301 28.5 -8.5s8.5 -11.167 8.5 -16.5c-60.667 -44.667 -105.5 -103.167 -134.5 -175.5
s-43.5 -158.833 -43.5 -259.5c1.33301 -100 16.833 -187.167 46.5 -261.5s73.5 -132.5 131.5 -174.5c0 -5.33301 -2.83301 -10.666 -8.5 -15.999s-15.167 -8 -28.5 -8c-31.333 0 -67.166 16.833 -107.499 50.5z" />
    <glyph glyph-name="parenright" unicode=")" horiz-adv-x="440" 
d="M47.5 -165c-5.66699 5.33301 -8.50195 10.668 -8.50195 16.001c58.667 42.667 103 101.667 133 177s45 163.333 45 264c0 199.333 -59.333 342.666 -178 429.999c0 5.33301 2.83301 10.833 8.5 16.5s15.167 8.5 28.5 8.5c30.667 0 66.167 -17 106.5 -51
s75.333 -85.667 105 -155s44.5 -154.333 44.5 -255c0 -100 -14.667 -184.667 -44 -254s-64.166 -120.833 -104.499 -154.5s-76.166 -50.5 -107.499 -50.5c-13.333 0 -22.833 2.66699 -28.5 8z" />
    <glyph glyph-name="asterisk" unicode="*" horiz-adv-x="503" 
d="M331 480c-7.33301 -14 -13.002 -29.0029 -17.002 -45.0029c28 -9.33301 50.833 -23.5 68.5 -42.5s26.5 -38.5 26.5 -58.5c0 -16 -5.5 -29 -16.5 -39s-24.5 -15 -40.5 -15c-24.667 0 -44.667 12 -60 36s-23 51 -23 81v11c-4 0.666992 -10.333 1 -19 1
c-7.33301 0 -12.666 -0.333008 -15.999 -1c0 -34 -9 -64.333 -27 -91s-41.667 -40 -71 -40c-15.333 0 -28.5 4.33301 -39.5 13s-16.5 21.334 -16.5 38.001c0 24 10.5 46.333 31.5 67s47.833 35.334 80.5 44.001c-2.66699 14 -7.33398 28.667 -14.001 44
c-20.667 -7.33301 -41 -11 -61 -11c-26 0 -47.667 5.66699 -65 17s-26 27.333 -26 48c0 16 5.16699 29.5 15.5 40.5s25.5 16.5 45.5 16.5c20.667 0 40.5 -6 59.5 -18s35.5 -28.333 49.5 -49c12.667 7.33301 23.667 15.666 33 24.999c-27.333 32.667 -41 65.334 -41 98.001
c0 20 5.33301 35.333 16 46s26.334 16 47.001 16c22 0 38.167 -5.66699 48.5 -17s15.5 -26.666 15.5 -45.999c0 -32 -12 -63.333 -36 -94c12 -12 24 -21.667 36 -29c14.667 20 31 36.167 49 48.5s36.333 18.5 55 18.5c16.667 0 29.834 -5 39.501 -15s14.5 -23.667 14.5 -41
c0 -22 -7.66699 -38.667 -23 -50s-35.333 -17 -60 -17c-17.333 0 -37 3.33301 -59 10zM232.998 650.997c0 -22 7.66602 -45 22.999 -69c16 22.667 24 44.334 24 65.001c0 9.33301 -2.16699 16.666 -6.5 21.999s-10.166 8 -17.499 8c-15.333 0 -23 -8.66699 -23 -26z
M160.997 511.997c-10 14 -20.834 25 -32.501 33s-23.167 12 -34.5 12c-6.66699 0 -12 -2 -16 -6s-6 -9 -6 -15c0 -10 4.33301 -17.667 13 -23s20.334 -8 35.001 -8c15.333 0 29 2.33301 41 7zM381.996 542.497c-11.333 -8.33301 -22 -19.167 -32 -32.5
c12 -4.66699 25.333 -7 40 -7c14 0 25.5 2.5 34.5 7.5s13.5 12.833 13.5 23.5c0 6 -2.16699 11 -6.5 15s-9.83301 6 -16.5 6c-10.667 0 -21.667 -4.16699 -33 -12.5zM295.996 495.996c-18 10.667 -32.332 21.001 -42.999 31.001c-12.667 -11.333 -26.334 -21 -41.001 -29
c8.66699 -16.667 14.667 -34.334 18 -53.001c4 0.666992 10 1 18 1c6.66699 0 16 -0.666992 28 -2c4 18 10.667 35.333 20 52zM178.497 337.997c9.66699 18 15.166 38.667 16.499 62c-20.667 -7.33301 -37.5 -17.5 -50.5 -30.5s-19.5 -25.833 -19.5 -38.5
c0 -5.33301 1.83301 -10 5.5 -14s8.5 -6 14.5 -6c12.667 0 23.834 9 33.501 27zM355.996 369.997c-12.667 12 -28.667 21.333 -48 28v-1c0 -18.667 3.66699 -37 11 -55s18.333 -27 33 -27c6 0 11.333 1.83301 16 5.5s7 8.5 7 14.5c0 11.333 -6.33301 23 -19 35z" />
    <glyph glyph-name="plus" unicode="+" horiz-adv-x="551" 
d="M480 348c0 -9.33301 -2.00098 -19.666 -6.00098 -30.999h-168v-168c-11.333 -3.33301 -21.666 -5 -30.999 -5c-8.66699 0 -18.667 1.66699 -30 5v168h-168c-4 11.333 -6 21.666 -6 30.999c0 10 2 20 6 30h168v169c8.66699 3.33301 18.667 5 30 5
c12 0 22.333 -1.66699 31 -5v-169h168c4 -10 6 -20 6 -30z" />
    <glyph glyph-name="comma" unicode="," horiz-adv-x="296" 
d="M103 -83c22.667 26 34.001 50.333 34.001 73c0 20 -5.33301 34.167 -16 42.5s-24.334 14.833 -41.001 19.5c0 18 6.33301 33.667 19 47s29 20 49 20c18.667 0 34.667 -6.66699 48 -20s20 -34.333 20 -63c0 -48.667 -25.333 -95.667 -76 -141
c-12.667 2 -25 9.33301 -37 22z" />
    <glyph glyph-name="hyphen" unicode="-" horiz-adv-x="399" 
d="M357 291v-66h-315v66h315z" />
    <glyph glyph-name="period" unicode="." horiz-adv-x="292" 
d="M99 6c-12.667 12.667 -19 28 -19 46c0 18.667 6.33301 34.5 19 47.5s28.334 19.5 47.001 19.5s34.334 -6.5 47.001 -19.5s19 -28.833 19 -47.5c0 -18 -6.33301 -33.333 -19 -46s-28.334 -19 -47.001 -19s-34.334 6.33301 -47.001 19z" />
    <glyph glyph-name="slash" unicode="/" horiz-adv-x="475" 
d="M3 -142l325 874h110l-325 -874h-110z" />
    <glyph glyph-name="zero" unicode="0" horiz-adv-x="632" 
d="M124.5 77.5c-43.667 60.333 -65.5 150.5 -65.5 270.5s21.833 210.167 65.5 270.5s107.5 90.5 191.5 90.5s147.667 -30.167 191 -90.5s65 -150.5 65 -270.5s-21.667 -210.167 -65 -270.5s-107 -90.5 -191 -90.5s-147.833 30.167 -191.5 90.5zM417 105.5
c22 51 33 131.833 33 242.5c0 110 -11 190.667 -33 242s-55.667 77 -101 77s-79 -25.667 -101 -77s-33 -132 -33 -242c0 -110.667 11 -191.5 33 -242.5s55.667 -76.5 101 -76.5s79 25.5 101 76.5z" />
    <glyph glyph-name="one" unicode="1" horiz-adv-x="444" 
d="M345 12c-6 -6 -14.335 -11.665 -25.002 -16.998s-23 -8 -37 -8c-18 0 -32.667 5.16699 -44 15.5s-17 24.5 -17 42.5l-1 514c0 13.333 -0.666992 29.333 -2 48c-24 -27.333 -50.167 -53.333 -78.5 -78s-49.166 -37 -62.499 -37c-16 0 -27.5 4.66699 -34.5 14
s-10.833 17.666 -11.5 24.999s-1 17.666 -1 30.999c4.66699 1.33301 68.667 44.333 192 129c12.667 8 27 12 43 12c18.667 0 33.834 -5.16699 45.501 -15.5s17.5 -24.5 17.5 -42.5v-514c0 -50 5.33301 -89.667 16 -119z" />
    <glyph glyph-name="two" unicode="2" horiz-adv-x="555" 
d="M45 17.5c-3.33301 7.66699 -5 15.834 -5 24.501c0 6.66699 1 13 3 19c7.33301 7.33301 28 25.666 62 54.999c53.333 46 98.5 87.333 135.5 124s69.5 79.334 97.5 128.001s42 99 42 151c0 42 -9.83301 77.5 -29.5 106.5s-48.834 43.5 -87.501 43.5
c-43.333 0 -74 -17.167 -92 -51.5s-27.333 -73.166 -28 -116.499c-33.333 0 -56.666 7 -69.999 21s-20 31 -20 51c0 22.667 9 44.5 27 65.5s43.5 38 76.5 51s71.167 19.5 114.5 19.5c66 0 120.167 -16.5 162.5 -49.5s63.5 -81.833 63.5 -146.5c0 -70 -22 -135 -66 -195
s-91.333 -109 -142 -147s-107 -76 -169 -114c54 1.33301 122.167 8 204.5 20s143.166 24.667 182.499 38c6.66699 -4.66699 11.834 -12.834 15.501 -24.501s5.5 -23.834 5.5 -36.501c0 -14.667 -2.33301 -27.167 -7 -37.5s-11.334 -15.833 -20.001 -16.5h-443
c-5.33301 4 -9.66602 9.83301 -12.999 17.5z" />
    <glyph glyph-name="three" unicode="3" horiz-adv-x="559" 
d="M118.5 9c-34.333 14 -57.8379 30.335 -70.5049 49.002s-19 35.667 -19 51c0 16 6 30.167 18 42.5s32.333 18.5 61 18.5c4 -38.667 15.333 -72.167 34 -100.5s55.334 -42.5 110.001 -42.5c44.667 0 80 13.667 106 41s39 64 39 110c0 58.667 -22.167 101.167 -66.5 127.5
s-100.833 40.166 -169.5 41.499l1 42c69.333 2.66699 121.5 19.5 156.5 50.5s52.5 68.167 52.5 111.5c0 36.667 -9 65.5 -27 86.5s-45.333 31.5 -82 31.5c-43.333 0 -74.166 -14 -92.499 -42s-28.166 -60.667 -29.499 -98c-31.333 -0.666992 -52.666 4.5 -63.999 15.5
s-17 23.167 -17 36.5c0 21.333 8 41.833 24 61.5s40 35.667 72 48s70.667 18.5 116 18.5c58.667 0 110.167 -12.5 154.5 -37.5s66.5 -67.167 66.5 -126.5c0 -42.667 -15.5 -79.5 -46.5 -110.5s-72.167 -53.167 -123.5 -66.5c61.333 -10.667 109.5 -30.167 144.5 -58.5
s52.5 -68.5 52.5 -120.5c0 -62.667 -23.667 -111.834 -71 -147.501s-110.333 -53.5 -189 -53.5c-59.333 0 -106.166 7 -140.499 21z" />
    <glyph glyph-name="four" unicode="4" horiz-adv-x="611" 
d="M582 219c0 -16 -4.66504 -30.6689 -13.998 -44.002h-88v-44c0 -52 5.33301 -91.667 16 -119c-18.667 -16.667 -39.334 -25 -62.001 -25c-18 0 -32.833 5.16699 -44.5 15.5s-17.5 24.5 -17.5 42.5v130h-308c-10 2 -18 7 -24 15s-9 16.667 -9 26
c0 8.66699 2.33301 16.334 7 23.001l317 438c4.66699 6.66699 13 12.834 25 18.501s24 8.5 36 8.5c18 0 32.833 -5.16699 44.5 -15.5s17.5 -24.5 17.5 -42.5l2 -407c35.333 2 66.666 6.66699 93.999 14c5.33301 -12 8 -23.333 8 -34zM372.002 236.998l-1 366l-263 -366h264z
" />
    <glyph glyph-name="five" unicode="5" horiz-adv-x="567" 
d="M156.5 10.5c-32.333 15 -56.833 34.0039 -73.5 57.0039s-25 45.833 -25 68.5c0 19.333 5.83301 34.666 17.5 45.999s27.834 17 48.501 17l12 -1c0.666992 -40 11 -77 31 -111s52.667 -51 98 -51c46 0 80 15.667 102 47s33 74 33 128c0 48 -12.833 87.167 -38.5 117.5
s-62.167 45.5 -109.5 45.5c-34.667 0 -65.5 -3.5 -92.5 -10.5s-42.167 -10.833 -45.5 -11.5c-16.667 0 -25 8.33301 -25 25l12 273c0.666992 13.333 5.5 24.166 14.5 32.499s20.167 12.5 33.5 12.5c90 0 157 0.5 201 1.5s86 3.83301 126 8.5c4 -6.66699 6 -15.667 6 -27
c0 -14.667 -3.5 -29.334 -10.5 -44.001s-15.5 -24.334 -25.5 -29.001c-118.667 0 -206.667 2.33301 -264 7l-10 -203c48.667 10.667 89 16 121 16c71.333 0 127.333 -18.333 168 -55s61 -87 61 -151c0 -54 -11.833 -98.333 -35.5 -133s-54.334 -59.667 -92.001 -75
s-78.5 -23 -122.5 -23c-44.667 0 -83.167 7.5 -115.5 22.5z" />
    <glyph glyph-name="six" unicode="6" horiz-adv-x="587" 
d="M441 406c30.667 -16 55.1641 -40.002 73.4971 -72.002s27.5 -70.667 27.5 -116c0 -69.333 -20.667 -125 -62 -167s-100.666 -63 -177.999 -63c-73.333 0 -132.166 23.833 -176.499 71.5s-66.5 132.5 -66.5 254.5c0 132.667 22.667 231.5 68 296.5s116.333 97.5 213 97.5
c40.667 0 77.334 -7 110.001 -21s49 -33.333 49 -58c0 -12.667 -4.83301 -25.167 -14.5 -37.5s-18.167 -19.5 -25.5 -21.5c-20.667 32.667 -41.167 55.834 -61.5 69.501s-41.166 20.5 -62.499 20.5c-57.333 0 -96.833 -27.167 -118.5 -81.5
s-33.834 -129.166 -36.501 -224.499c40 50.667 92.667 76 158 76c38 0 72.333 -8 103 -24zM395.997 84.498c18 36.333 27 82.168 27 137.501c0 104 -36 156 -108 156c-29.333 0 -56 -8.83301 -80 -26.5s-42.333 -42.834 -55 -75.501c2 -76 12.833 -136 32.5 -180
s51.5 -66 95.5 -66c40.667 0 70 18.167 88 54.5z" />
    <glyph glyph-name="seven" unicode="7" horiz-adv-x="509" 
d="M212 -6c-19.333 0 -37.998 2.33105 -55.998 6.99805c4 56 16.167 125 36.5 207s46.333 160.667 78 236s65.5 132 101.5 170c-59.333 -7.33301 -141 -11 -245 -11h-77c-5.33301 4.66699 -9.5 12.834 -12.5 24.501s-4.5 23.834 -4.5 36.501
c0 17.333 2.33301 29.666 7 36.999c67.333 -4 132.333 -6 195 -6h230c5.33301 -7.33301 8 -18.666 8 -33.999c0 -18.667 -5 -34 -15 -46c-36 -48.667 -68.833 -111.5 -98.5 -188.5s-52.834 -154.5 -69.501 -232.5s-25 -142.667 -25 -194c-16.667 -4 -34.334 -6 -53.001 -6z
" />
    <glyph glyph-name="eight" unicode="8" horiz-adv-x="613" 
d="M506.5 283c37 -34 55.501 -74 55.501 -120c0 -29.333 -8.33301 -57.333 -25 -84s-44.167 -48.667 -82.5 -66s-87.5 -26 -147.5 -26c-60.667 0 -109.667 8.66699 -147 26s-64 39 -80 65s-24 53.667 -24 83s7.5 57.5 22.5 84.5s36 50 63 69s57.833 31.833 92.5 38.5
c-44.667 25.333 -80.5 53 -107.5 83s-40.5 66.333 -40.5 109c0 27.333 7.33301 53.333 22 78s38.167 45.167 70.5 61.5s74.166 24.5 125.499 24.5c49.333 0 91 -7.5 125 -22.5s59.167 -34.667 75.5 -59s24.5 -50.5 24.5 -78.5c0 -26 -6.5 -51 -19.5 -75s-32 -44.667 -57 -62
s-54.167 -29 -87.5 -35c57.333 -28.667 104.5 -60 141.5 -94zM230.501 637c-20.333 -20.667 -30.5 -48.666 -30.5 -83.999c0 -40.667 10.833 -72.334 32.5 -95.001s53.5 -43.667 95.5 -63l2 -1c57.333 34 86 85.667 86 155c-0.666992 36 -11 64.833 -31 86.5
s-46 32.5 -78 32.5c-30.667 0 -56.167 -10.333 -76.5 -31zM405.001 61.501c24.667 23.667 37 53.501 37 89.501c0 40 -14.333 73.333 -43 100s-71.334 54 -128.001 82c-26 -16.667 -48.333 -38.334 -67 -65.001s-28 -59.667 -28 -99c0 -48 12.833 -83.833 38.5 -107.5
s57.5 -35.5 95.5 -35.5c38.667 0 70.334 11.833 95.001 35.5z" />
    <glyph glyph-name="nine" unicode="9" horiz-adv-x="597" 
d="M473 634.5c42.667 -49.667 63.998 -133.5 63.998 -251.5c0 -135.333 -22.167 -235.166 -66.5 -299.499s-114.833 -96.5 -211.5 -96.5c-49.333 0 -91.666 7.66699 -126.999 23s-53 37 -53 65c0 13.333 4.66699 26 14 38s18 19 26 21
c24.667 -36.667 48.834 -62.5 72.501 -77.5s48.167 -22.5 73.5 -22.5c56.667 0 95.5 27 116.5 81s32.5 129.333 34.5 226c-40 -49.333 -91.333 -74 -154 -74c-37.333 0 -71.166 8.16699 -101.499 24.5s-54.333 40.666 -72 72.999s-26.5 71.833 -26.5 118.5
c0 68 20.167 122.667 60.5 164s98.166 62 173.499 62s134.333 -24.833 177 -74.5zM361.498 346c23.667 17.333 41.832 42.335 54.499 75.002c-2 77.333 -12.167 137.666 -30.5 180.999s-49.5 65 -93.5 65c-40.667 0 -70 -17.833 -88 -53.5s-27 -80.834 -27 -135.501
c0 -105.333 35.333 -158 106 -158c28.667 0 54.834 8.66699 78.501 26z" />
    <glyph glyph-name="colon" unicode=":" horiz-adv-x="268" 
d="M87 367c-12.667 12.667 -19 28 -19 46c0 18.667 6.33301 34.5 19 47.5s28.334 19.5 47.001 19.5s34.334 -6.5 47.001 -19.5s19 -28.833 19 -47.5c0 -18 -6.33301 -33.333 -19 -46s-28.334 -19 -47.001 -19s-34.334 6.33301 -47.001 19zM87 6
c-12.667 12.667 -19 28 -19 46c0 18.667 6.33301 34.5 19 47.5s28.334 19.5 47.001 19.5s34.334 -6.5 47.001 -19.5s19 -28.833 19 -47.5c0 -18 -6.33301 -33.333 -19 -46s-28.334 -19 -47.001 -19s-34.334 6.33301 -47.001 19z" />
    <glyph glyph-name="semicolon" unicode=";" horiz-adv-x="272" 
d="M90 367c-12.667 12.667 -19 28 -19 46c0 18.667 6.33301 34.5 19 47.5s28.334 19.5 47.001 19.5s34.334 -6.5 47.001 -19.5s19 -28.833 19 -47.5c0 -18 -6.33301 -33.333 -19 -46s-28.334 -19 -47.001 -19s-34.334 6.33301 -47.001 19zM91 -83
c22.667 26 34.001 50.333 34.001 73c0 20 -5.33301 34.167 -16 42.5s-24.334 14.833 -41.001 19.5c0 18 6.33301 33.667 19 47s29 20 49 20c18.667 0 34.667 -6.66699 48 -20s20 -34.333 20 -63c0 -48.667 -25.333 -95.667 -76 -141c-12.667 2 -25 9.33301 -37 22z" />
    <glyph glyph-name="less" unicode="&#x3c;" horiz-adv-x="493" 
d="M40 351c0 3.33301 1.33203 7 3.99902 11l360 176c2 1.33301 5.33301 2 10 2c6.66699 0 12.334 -3 17.001 -9s7 -14.667 7 -26c0 -6.66699 -1 -14.667 -3 -24l-299 -130l299 -130c2.66699 -8 4 -16.333 4 -25c0 -10.667 -2.16699 -19.167 -6.5 -25.5
s-9.83301 -9.5 -16.5 -9.5c-4 0 -8 1 -12 3l-360 176c-2.66699 5.33301 -4 9 -4 11z" />
    <glyph glyph-name="equal" unicode="=" horiz-adv-x="545" 
d="M471 474c4 -10 6 -20 6 -30c0 -9.33301 -2 -19.666 -6 -30.999h-397c-4 11.333 -6 21.666 -6 30.999c0 10 2 20 6 30h397zM471 275c4 -10 6 -20.333 6 -31c0 -10 -2 -20 -6 -30h-397c-4 10 -6 20 -6 30c0 10.667 2 21 6 31h397z" />
    <glyph glyph-name="greater" unicode="&#x3e;" horiz-adv-x="494" 
d="M89 164c-4 -2 -8.00098 -2.99902 -12.001 -2.99902c-7.33301 0 -13 3 -17 9s-6 14.333 -6 25c0 9.33301 1.33301 18 4 26l299 130l-299 130c-2 9.33301 -3 17.333 -3 24c0 11.333 2.33301 20 7 26s10.334 9 17.001 9c4.66699 0 8 -0.666992 10 -2l360 -176
c2.66699 -2.66699 4 -6.33398 4 -11.001c0 -4 -1.33301 -7.66699 -4 -11z" />
    <glyph glyph-name="question" unicode="?" horiz-adv-x="515" 
d="M171 347c32.667 1.33301 63.668 9.00195 93.001 23.002s53 34.667 71 62s27 60.666 27 99.999c0 45.333 -11.5 82.833 -34.5 112.5s-57.167 44.5 -102.5 44.5c-42.667 0 -72.834 -14.667 -90.501 -44s-27.167 -64 -28.5 -104c-33.333 0 -56.5 5.33301 -69.5 16
s-19.5 25 -19.5 43c0 23.333 8.66699 45 26 65s42.5 36.167 75.5 48.5s71.5 18.5 115.5 18.5c72 0 130.833 -16.5 176.5 -49.5s68.5 -84.167 68.5 -153.5c0 -47.333 -11.167 -87.5 -33.5 -120.5s-50.833 -58.333 -85.5 -76s-70.667 -27.834 -108 -30.501v-111h-81v156z
M154.001 6.00195c-12.667 12.667 -19 28 -19 46c0 18.667 6.33301 34.5 19 47.5s28.334 19.5 47.001 19.5s34.334 -6.5 47.001 -19.5s19 -28.833 19 -47.5c0 -18 -6.33301 -33.333 -19 -46s-28.334 -19 -47.001 -19s-34.334 6.33301 -47.001 19z" />
    <glyph glyph-name="at" unicode="@" horiz-adv-x="875" 
d="M669 598.5c53.333 -38.333 91.6631 -85.8301 114.996 -142.497s35 -114.334 35 -173.001c0 -54.667 -7.5 -100.5 -22.5 -137.5s-35 -64.333 -60 -82s-52.833 -26.5 -83.5 -26.5c-26.667 0 -51 9 -73 27s-34.667 40 -38 66c-13.333 -24.667 -30.166 -44 -50.499 -58
s-43.833 -21 -70.5 -21c-60.667 0 -101 19 -121 57s-30 82.667 -30 134c0 75.333 16 134.333 48 177s78.333 64 139 64c64 0 109 -17.5 135 -52.5s38.667 -77.5 38 -127.5l-1 -122c-0.666992 -26.667 2.83301 -48.667 10.5 -66s20.167 -26 37.5 -26
c24 0 43.667 16.667 59 50s23 82.666 23 147.999c0 50.667 -9.5 100 -28.5 148s-50.5 88.167 -94.5 120.5s-101.333 48.5 -172 48.5c-70 0 -128.667 -15.833 -176 -47.5s-82.166 -73.334 -104.499 -125.001s-33.5 -107.834 -33.5 -168.501c0 -64 11.667 -119.833 35 -167.5
s53.833 -84.167 91.5 -109.5s77.834 -38 120.501 -38c10.667 0 18.667 0.333008 24 1c5.33301 -7.33301 8 -14.666 8 -21.999c0 -10 -5.66699 -18 -17 -24s-27 -9 -47 -9c-42.667 0 -88.667 13.167 -138 39.5s-91.166 67 -125.499 122s-51.5 122.833 -51.5 203.5
c0 68.667 14.667 133.167 44 193.5s75 109.333 137 147s139 56.5 231 56.5c84.667 0 153.667 -19.167 207 -57.5zM477.997 117.503c18 18.333 32.001 43.501 42.001 75.501s15 68.333 15 109c0 44 -6.66699 78.333 -20 103s-37.333 37 -72 37
c-40.667 0 -71.834 -16.667 -93.501 -50s-32.5 -83 -32.5 -149c0 -42.667 6.5 -78.834 19.5 -108.501s39.5 -44.5 79.5 -44.5c23.333 0 44 9.16699 62 27.5z" />
    <glyph glyph-name="A" unicode="A" horiz-adv-x="611" 
d="M605 13c-15.333 -16.667 -37.001 -25 -65.001 -25c-18 0 -33 3.66699 -45 11s-19.667 18 -23 32l-51 180h-241l-40 -144c-4 -17.333 -6 -30.666 -6 -39.999c0 -12 2.66699 -21.333 8 -28c-19.333 -7.33301 -39.333 -11 -60 -11c-21.333 0 -37 3.5 -47 10.5
s-15 18.5 -15 34.5c0 16.667 4 37 12 61l202 599c30 11.333 61 17 93 17c34.667 0 55.334 -12.667 62.001 -38l187 -603c8 -24.667 17.667 -43.334 29 -56.001zM402.999 273l-105 368l-101 -368h206z" />
    <glyph glyph-name="B" unicode="B" horiz-adv-x="591" 
d="M499 315.5c28.667 -30.333 43 -70.834 43 -121.501c0 -66.667 -24.167 -115.667 -72.5 -147s-118.833 -47 -211.5 -47h-104c-19.333 0 -34.833 5.16699 -46.5 15.5s-17.5 24.5 -17.5 42.5v506c0 18 -1.33301 38.167 -4 60.5s-7 41.833 -13 58.5
c36.667 17.333 92 26 166 26c88 0 154.667 -13.5 200 -40.5s68 -69.833 68 -128.5c0 -41.333 -11 -76.833 -33 -106.5s-53 -50.167 -93 -61.5c50 -7.33301 89.333 -26.166 118 -56.499zM201 665.999v-278.001h64c40 -0.666992 70.833 11.833 92.5 37.5
s32.5 61.167 32.5 106.5c0 44.667 -11.833 78.334 -35.5 101.001s-62.5 34 -116.5 34c-18.667 0 -31 -0.333008 -37 -1zM421 191.998c0 58 -14 98.167 -42 120.5s-68.333 33.5 -121 33.5h-57v-303h56c109.333 0 164 49.667 164 149z" />
    <glyph glyph-name="C" unicode="C" horiz-adv-x="608" 
d="M125 81c-48 62.667 -72.001 151.667 -72.001 267c0 114.667 24.833 203.5 74.5 266.5s118.834 94.5 207.501 94.5c36 0 70.333 -4.66699 103 -14s59.167 -22.333 79.5 -39s30.5 -36 30.5 -58c0 -18 -8 -33.167 -24 -45.5s-37.667 -18.166 -65 -17.499
c-10.667 88 -51.667 132 -123 132c-107.333 0 -161 -106.333 -161 -319s52.667 -319 158 -319c36.667 0 67.334 12.5 92.001 37.5s41 61.833 49 110.5c3.33301 0.666992 9 1 17 1c20.667 0 38.334 -4.83301 53.001 -14.5s22 -23.834 22 -42.501
c0 -26 -11.333 -49.333 -34 -70s-52.334 -36.5 -89.001 -47.5s-75.334 -16.5 -116.001 -16.5c-86.667 0 -154 31.333 -202 94z" />
    <glyph glyph-name="D" unicode="D" horiz-adv-x="647" 
d="M103.5 15.5c-11.667 10.333 -17.5 24.168 -17.5 41.501l-1 507v35.5c0 19.667 -1 38.167 -3 55.5s-5 31.666 -9 42.999c41.333 5.33301 113.333 8 216 8c98.667 0 174.167 -29.5 226.5 -88.5s78.5 -146.5 78.5 -262.5c0 -236.667 -99.667 -355 -299 -355h-145
c-19.333 0 -34.833 5.16699 -46.5 15.5zM289 43.002c62.667 0 108.833 23.499 138.5 70.499s44.5 125.167 44.5 234.5c0 108.667 -15 188.334 -45 239.001s-76 76 -138 76h-93v-620h93z" />
    <glyph glyph-name="E" unicode="E" horiz-adv-x="546" 
d="M492.5 78c3.66699 -10 5.50098 -20.999 5.50098 -32.999c0 -12.667 -2.33301 -23.334 -7 -32.001s-11.334 -13 -20.001 -13h-318c-18.667 0 -33.834 5.16699 -45.501 15.5s-17.5 24.5 -17.5 42.5l-1 493c0 49.333 -5.33301 88 -16 116
c12.667 11.333 25.834 18.833 39.501 22.5s33.167 5.5 58.5 5.5h296c12 0 18 -10 18 -30c0 -13.333 -2.83301 -26.833 -8.5 -40.5s-12.834 -22.5 -21.501 -26.5c-84.667 26 -169.667 40 -255 42v-247h228c2.66699 -8 4 -17.667 4 -29c0 -8 -1.33301 -18.667 -4 -32h-227
v-277c43.333 0.666992 91.333 5.5 144 14.5s96.667 18.833 132 29.5c6.66699 -4 11.834 -11 15.501 -21z" />
    <glyph glyph-name="F" unicode="F" horiz-adv-x="526" 
d="M485 665c0 -13.333 -2.83203 -26.833 -8.49902 -40.5s-12.834 -22.5 -21.501 -26.5c-84.667 26 -169.667 40 -255 42v-250h227c2.66699 -8 4 -17.667 4 -29c0 -8.66699 -1.33301 -19.667 -4 -33h-226v-197c0 -52 5.33301 -91.667 16 -119
c-18.667 -16.667 -40 -25 -64 -25c-18.667 0 -33.834 5.16699 -45.501 15.5s-17.5 24.5 -17.5 42.5l-1 506c0 49.333 -5.33301 88 -16 116c12.667 11.333 25.834 18.833 39.501 22.5s33.167 5.5 58.5 5.5h296c12 0 18 -10 18 -30z" />
    <glyph glyph-name="G" unicode="G" horiz-adv-x="641" 
d="M128 80.5c-50 62.333 -74.999 151.164 -74.999 266.497s25.667 204.5 77 267.5s123.666 94.5 216.999 94.5c34.667 0 68.167 -4.66699 100.5 -14s58.5 -22.333 78.5 -39s30 -35.667 30 -57c0 -18 -8 -33.333 -24 -46s-38 -18.667 -66 -18
c-4.66699 44 -17.167 77 -37.5 99s-46.833 33 -79.5 33c-59.333 0 -103.166 -26.5 -131.499 -79.5s-42.5 -132.833 -42.5 -239.5c0 -107.333 14 -187.333 42 -240s71.333 -79 130 -79c49.333 0 83.333 19.333 102 58s28 83.334 28 134.001c0 35.333 -5 64.833 -15 88.5
s-27 39.834 -51 48.501c4 11.333 12.333 20 25 26s27 9 43 9c33.333 0 60.166 -12 80.499 -36s30.5 -60.667 30.5 -110c0 -52 -10.167 -97.667 -30.5 -137s-49.333 -69.666 -87 -90.999s-81.5 -32 -131.5 -32c-92 0 -163 31.167 -213 93.5z" />
    <glyph glyph-name="H" unicode="H" horiz-adv-x="691" 
d="M618 12c-18.667 -16.667 -39.998 -25.001 -63.998 -25.001c-18.667 0 -33.834 5.16699 -45.501 15.5s-17.5 24.5 -17.5 42.5l-1 289h-289v-203c0 -52 5.33301 -91.667 16 -119c-18.667 -16.667 -40 -25 -64 -25c-18.667 0 -33.834 5.16699 -45.501 15.5
s-17.5 24.5 -17.5 42.5l-1 519c0 50.667 -5.33301 90.334 -16 119.001c6.66699 6 15.5 11.5 26.5 16.5s23.5 7.5 37.5 7.5c18.667 0 34 -5.16699 46 -15.5s18 -24.5 18 -42.5v-253h289v168c0 48 -5.33301 87.667 -16 119c18 16 39 24 63 24c19.333 0 35 -5.16699 47 -15.5
s18 -24.5 18 -42.5v-518c0 -52 5.33301 -91.667 16 -119z" />
    <glyph glyph-name="I" unicode="I" horiz-adv-x="290" 
d="M107.5 2.5c-11.667 10.333 -17.499 24.499 -17.499 42.499l-1 519c0 50.667 -5.33301 90.334 -16 119.001c6.66699 6 15.5 11.5 26.5 16.5s23.5 7.5 37.5 7.5c18.667 0 34 -5.16699 46 -15.5s18 -24.5 18 -42.5v-518c0 -52 5.33301 -91.667 16 -119
c-18.667 -16.667 -40 -25 -64 -25c-18.667 0 -33.834 5.16699 -45.501 15.5z" />
    <glyph glyph-name="J" unicode="J" horiz-adv-x="478" 
d="M81 19.5c-26.667 21.667 -40.002 48.498 -40.002 80.498c0 20 5.5 37.333 16.5 52s27.167 22 48.5 22s36.333 -7.33301 45 -22c-8.66699 -17.333 -13 -35 -13 -53c0 -20.667 6.5 -37.5 19.5 -50.5s28.167 -19.5 45.5 -19.5c30.667 0 51.5 12.833 62.5 38.5
s16.5 62.167 16.5 109.5v425c0 11.333 0.333008 22.333 1 33s2.33398 19 5.00098 25c-51.333 2 -81.333 3.33301 -90 4c-34 0 -51 -13.333 -51 -40c0 -25.333 10.333 -43.666 31 -54.999c-10.667 -8.66699 -26 -13 -46 -13c-18.667 0 -35 6.66699 -49 20s-21 31.333 -21 54
c0 24 8.83301 43.167 26.5 57.5s43.167 21.5 76.5 21.5c8.66699 0 28.334 -0.666992 59.001 -2c16.667 -1.33301 43.667 -2.66602 81 -3.99902c22 0 53 1.66699 93 5c-3.33301 -18 -5 -43.333 -5 -76v-443c0 -134.667 -63 -202 -189 -202
c-55.333 0 -96.333 10.833 -123 32.5z" />
    <glyph glyph-name="K" unicode="K" horiz-adv-x="603" 
d="M587 47c0 -18 -7.33203 -33.168 -21.999 -45.501s-33 -18.5 -55 -18.5c-30.667 0 -55 11.5 -73 34.5s-33.667 53.5 -47 91.5l-34 107c-11.333 32 -26.333 57.167 -45 75.5s-49 27.5 -91 27.5h-19v-188c0 -52 5.33301 -91.667 16 -119c-18.667 -16.667 -40 -25 -64 -25
c-18.667 0 -33.834 5.16699 -45.501 15.5s-17.5 24.5 -17.5 42.5l-1 519c0 50.667 -5.33301 90.334 -16 119.001c6.66699 6 15.5 11.5 26.5 16.5s23.5 7.5 37.5 7.5c18.667 0 33.834 -5.16699 45.501 -15.5s17.5 -24.5 17.5 -42.5l1 -286
c6.66699 0.666992 15 2.33398 25 5.00098c38.667 8 72.167 25.5 100.5 52.5s49.666 58 63.999 93s21.5 68.5 21.5 100.5c0 33.333 -6 59.333 -18 78c16 8 31.667 12 47 12c22 0 40.667 -7 56 -21s23 -38.667 23 -74c0 -50.667 -17 -99.667 -51 -147s-85 -84 -153 -110
c38 -4.66699 67.5 -15.5 88.5 -32.5s37.833 -40.5 50.5 -70.5l46 -118c10 -23.333 18.5 -39.333 25.5 -48s15.833 -13.334 26.5 -14.001c10.667 0 19.667 3.33301 27 10c4.66699 -14 7 -24.667 7 -32z" />
    <glyph glyph-name="L" unicode="L" horiz-adv-x="494" 
d="M201 61c42.667 0.666992 87.167 5.33105 133.5 13.998s85.833 18.667 118.5 30c6.66699 -4 11.834 -11.5 15.501 -22.5s5.5 -22.5 5.5 -34.5c0 -13.333 -2.33301 -24.666 -7 -33.999s-11.334 -14 -20.001 -14h-294c-18.667 0 -33.834 5.16699 -45.501 15.5
s-17.5 24.5 -17.5 42.5l-1 506c0 50.667 -5.33301 90.334 -16 119.001c6.66699 6 15.5 11.5 26.5 16.5s23.5 7.5 37.5 7.5c18.667 0 33.834 -5.16699 45.501 -15.5s17.5 -24.5 17.5 -42.5z" />
    <glyph glyph-name="M" unicode="M" horiz-adv-x="851" 
d="M778 12c-18.667 -16.667 -39.999 -25.0029 -63.999 -25.0029c-18 0 -32.5 5.16699 -43.5 15.5s-16.5 24.5 -16.5 42.5l-1 526l-191 -478c-22.667 -8 -43 -12 -61 -12c-13.333 0 -27.333 2.66699 -42 8c-70 138.667 -139.667 299.334 -209 482.001l1 -441
c0 -54.667 5.33301 -97.667 16 -129c-10.667 -9.33301 -24.334 -14 -41.001 -14c-25.333 0 -38 15.333 -38 46v533c0 57.333 -2.33301 99.333 -7 126c11.333 10 36.666 15 75.999 15c13.333 0 24.5 -1.66699 33.5 -5s17.167 -8.66602 24.5 -15.999l211 -501l197 511
c19.333 7.33301 42.333 11 69 11c16.667 0 31.834 -2.66699 45.501 -8s21.5 -11.666 23.5 -18.999v-549c0 -50 5.66699 -89.667 17 -119z" />
    <glyph glyph-name="N" unicode="N" horiz-adv-x="694" 
d="M73 2c11.333 30.667 17.0029 73.668 17.0029 129.001l-1 431c0 52.667 -2 96 -6 130c4 4 10.833 7.33301 20.5 10s19.5 4 29.5 4c15.333 0 25 -2 29 -6l119 -165l174.5 -245c40.333 -58 70.166 -106 89.499 -144l-27 468c-1.33301 24.667 2 45.167 10 61.5
s20.333 25.833 37 28.5c16.667 2 32.334 -1 47.001 -9c-3.33301 -13.333 -5.33301 -29.833 -6 -49.5s-1 -37.167 -1 -52.5v-465c0 -25.333 0.333008 -48.666 1 -69.999s2 -40 4 -56c-3.33301 -4 -9.83301 -7.33301 -19.5 -10s-19.5 -4 -29.5 -4
c-10.667 0 -19.334 1.66699 -26.001 5c-88 103.333 -164 201.666 -228 294.999s-115.333 174.666 -154 243.999l23 -480c1.33301 -18.667 -3.83398 -34.167 -15.501 -46.5s-25.167 -18.5 -40.5 -18.5c-16.667 0 -32.334 5 -47.001 15z" />
    <glyph glyph-name="O" unicode="O" horiz-adv-x="659" 
d="M123 77.5c-46.667 60.333 -70 150.5 -70 270.5s23.333 210.167 70 270.5s115.334 90.5 206.001 90.5s159.5 -30.167 206.5 -90.5s70.5 -150.5 70.5 -270.5s-23.5 -210.167 -70.5 -270.5s-115.833 -90.5 -206.5 -90.5s-159.334 30.167 -206.001 90.5zM446 105.5
c25.333 51 38 131.833 38 242.5c0 110 -12.667 190.667 -38 242s-64.333 77 -117 77c-52 0 -90.667 -25.667 -116 -77s-38 -132 -38 -242s12.667 -190.667 38 -242s64 -77 116 -77c52.667 0 91.667 25.5 117 76.5z" />
    <glyph glyph-name="P" unicode="P" horiz-adv-x="573" 
d="M459.5 659.5c49 -33 73.499 -85.166 73.499 -156.499c0 -74.667 -26.333 -131.667 -79 -171s-128.667 -59 -228 -59h-25v-148c0 -48.667 5.33301 -86.334 16 -113.001c-18.667 -16.667 -39.667 -25 -63 -25c-19.333 0 -34.833 5.16699 -46.5 15.5s-17.5 24.5 -17.5 42.5
v519c0 18 -1.33301 38.167 -4 60.5s-7 41.833 -13 58.5c36.667 17.333 91.334 26 164.001 26c99.333 0 173.5 -16.5 222.5 -49.5zM411.999 496.001c0 55.333 -13.833 97.667 -41.5 127s-72.167 44 -133.5 44c-13.333 0 -25.333 -0.666992 -36 -2v-351h23
c125.333 0 188 60.667 188 182z" />
    <glyph glyph-name="Q" unicode="Q" horiz-adv-x="666" 
d="M387 -120.5c-52.667 25 -103.669 55.8311 -153.002 92.498c-58 42 -102.667 92.333 -134 151s-47 133.334 -47 224.001c0 119.333 24.333 209.5 73 270.5s117.334 91.5 206.001 91.5c89.333 0 158.333 -30.5 207 -91.5s73 -150.833 73 -269.5
c0 -76.667 -11.5 -142 -34.5 -196s-55.5 -95 -97.5 -123s-91.333 -42 -148 -42c-22 0 -40.333 2 -55 6c25.333 -20 54 -36 86 -48s63.333 -18 94 -18c33.333 0 61.833 5.83301 85.5 17.5s37.834 27.834 42.501 48.501c18.667 -2 33.5 -8.5 44.5 -19.5s16.5 -25.5 16.5 -43.5
c0 -25.333 -10.333 -46.333 -31 -63s-48.667 -25 -84 -25c-43.333 0 -91.333 12.5 -144 37.5zM445.998 105.498c25.333 51 38.001 131.833 38.001 242.5c0 110 -12.5 190.667 -37.5 242s-63.167 77 -114.5 77c-53.333 0 -92 -27.5 -116 -82.5s-36 -139.833 -36 -254.5
c0 -96.667 11.667 -171 35 -223s61.666 -78 114.999 -78c52 0 90.667 25.5 116 76.5z" />
    <glyph glyph-name="R" unicode="R" horiz-adv-x="615" 
d="M602 52c0 -20.667 -7.83301 -36.499 -23.5 -47.499s-31.834 -16.5 -48.501 -16.5c-22.667 0 -41.167 4.83301 -55.5 14.5s-26.5 23 -36.5 40s-21 40.833 -33 71.5l-37 96c-8.66699 22 -16.834 39.333 -24.501 52s-18.667 23.334 -33 32.001s-33.5 13 -57.5 13l-52 1v-183
c0 -48.667 5.33301 -86.334 16 -113.001c-18.667 -16.667 -39.667 -25 -63 -25c-19.333 0 -34.833 5.16699 -46.5 15.5s-17.5 24.5 -17.5 42.5v519c0 18 -1.33301 38.167 -4 60.5s-7 41.833 -13 58.5c36.667 17.333 93 26 169 26c96.667 0 168.834 -14.5 216.501 -43.5
s71.5 -76.167 71.5 -141.5c0 -48.667 -14 -89.667 -42 -123s-66.333 -56.333 -115 -69c23.333 -6 42.333 -16.5 57 -31.5s28.334 -34.833 41.001 -59.5l45 -105c8.66699 -22 17.167 -37.833 25.5 -47.5s17.166 -14.834 26.499 -15.501c10.667 0 19.334 3.66699 26.001 11
c5.33301 -11.333 8 -22 8 -32zM258 349.001c46.667 1.33301 83.5 17.332 110.5 47.999s40.5 70.334 40.5 119.001c0 100.667 -53 151 -159 151c-24.667 0 -41 -0.333008 -49 -1v-316c11.333 -0.666992 30.333 -1 57 -1z" />
    <glyph glyph-name="S" unicode="S" horiz-adv-x="561" 
d="M100.5 26c-39 26.667 -58.5029 61.332 -58.5029 103.999c0 20.667 5.66699 37.167 17 49.5s29.333 18.5 54 18.5c4 0 12 -0.666992 24 -2c-2 -6.66699 -3 -14.334 -3 -23.001c0 -4.66699 0.666992 -13 2 -25c4 -34 19 -62.333 45 -85s61.667 -34 107 -34
c37.333 0 67.666 9.5 90.999 28.5s35 46.5 35 82.5c0 24 -5.33301 44.833 -16 62.5s-26.167 33.834 -46.5 48.501s-48.5 32.334 -84.5 53.001c-48 26.667 -85.5 50.167 -112.5 70.5s-48.333 43.5 -64 69.5s-23.5 57 -23.5 93c0 58 21.167 101.167 63.5 129.5
s96.5 42.5 162.5 42.5c62.667 0 112.834 -10.5 150.501 -31.5s56.5 -50.5 56.5 -88.5c0 -34.667 -18.667 -53 -56 -55c-2.66699 -0.666992 -6.66699 -1 -12 -1s-12.666 0.666992 -21.999 2c0.666992 3.33301 1 7.66602 1 12.999c0 15.333 -2.33301 28 -7 38
c-4 24.667 -16.667 44.334 -38 59.001s-49.666 22 -84.999 22c-30 0 -55.833 -7.16699 -77.5 -21.5s-32.5 -37.833 -32.5 -70.5c0 -33.333 11.5 -61.666 34.5 -84.999s63.833 -51 122.5 -83c40.667 -22.667 74.5 -44 101.5 -64s49.167 -43.833 66.5 -71.5s26 -59.5 26 -95.5
c0 -34.667 -8.83301 -66.334 -26.5 -95.001s-45.167 -51.667 -82.5 -69s-83.666 -26 -138.999 -26c-76.667 0 -134.5 13.333 -173.5 40z" />
    <glyph glyph-name="T" unicode="T" horiz-adv-x="543" 
d="M525 686.5c3.33301 -5.66699 5.00293 -13.167 5.00293 -22.5c0 -13.333 -3 -26.666 -9 -39.999s-13.333 -22 -22 -26c-34.667 12.667 -65.334 23.167 -92.001 31.5s-53.334 14.833 -80.001 19.5l1 -518c0 -52 5.33301 -91.667 16 -119c-18.667 -16.667 -40 -25 -64 -25
c-18.667 0 -33.834 5.33301 -45.501 16s-17.5 24.667 -17.5 42l-1 604c-26.667 -4.66699 -53.5 -11.167 -80.5 -19.5s-57.167 -18.833 -90.5 -31.5c-8.66699 4 -16 12.667 -22 26s-9 26.666 -9 39.999c0 9.33301 1.66699 16.833 5 22.5s8 8.5 14 8.5h478
c6 0 10.667 -2.83301 14 -8.5z" />
    <glyph glyph-name="U" unicode="U" horiz-adv-x="667" 
d="M588 306c0 -106 -21.332 -185.668 -63.999 -239.001s-106.334 -80 -191.001 -80c-82.667 0 -144.667 25.833 -186 77.5s-62 132.167 -62 241.5v258c0 50.667 -5.33301 90.334 -16 119.001c6.66699 6 15.5 11.5 26.5 16.5s23.5 7.5 37.5 7.5c18 0 33 -5.16699 45 -15.5
s18 -24.5 18 -42.5v-348c0 -95.333 11 -164.5 33 -207.5s56.667 -64.5 104 -64.5c97.333 0 146 90.667 146 272v263c0 48 -5.33301 87.667 -16 119c6 6 14.5 11.5 25.5 16.5s23.5 7.5 37.5 7.5c18 0 32.833 -5.16699 44.5 -15.5s17.5 -24.5 17.5 -42.5v-343z" />
    <glyph glyph-name="V" unicode="V" horiz-adv-x="597" 
d="M562 697.5c10 -7.66699 15.001 -19.5 15.001 -35.5c0 -13.333 -4 -33 -12 -59l-199 -600c-26 -10.667 -50.667 -16 -74 -16c-40 0 -63.333 10.667 -70 32l-187 610c-8 24.667 -17.667 43 -29 55c15.333 16.667 37.666 25 66.999 25c39.333 0 63 -14.333 71 -43l162 -598
l150 563c4 16 6 28.667 6 38c0 14 -2.33301 23.667 -7 29c10 4 19.167 6.83301 27.5 8.5s18.833 2.5 31.5 2.5c22 0 38 -3.83301 48 -11.5z" />
    <glyph glyph-name="W" unicode="W" horiz-adv-x="942" 
d="M902.5 696c10.333 -7.33301 15.5039 -18.666 15.5039 -33.999c0 -10 -4 -30.333 -12 -61l-167 -598c-24.667 -10.667 -49.334 -16 -74.001 -16c-17.333 0 -31.833 2.66699 -43.5 8s-18.834 13.333 -21.501 24l-125 475l-132 -491c-26.667 -10.667 -50.667 -16 -72 -16
c-42 0 -65.333 10.667 -70 32l-156 610c-2.66699 9.33301 -6.33398 19.166 -11.001 29.499s-10.334 18.833 -17.001 25.5c14 16.667 36 25 66 25c41.333 0 65 -14.333 71 -43l132 -587l125 476c2 11.333 3 20.666 3 27.999c0 14 -2.33301 26.333 -7 37
c10.667 5.33301 23.334 9.5 38.001 12.5s28 4.5 40 4.5c32 0 50.667 -9.33301 56 -28l140 -530l117 549c0.666992 3.33301 1.66699 9 3 17s2 15.333 2 22c0 12.667 -2.33301 22.334 -7 29.001l18.5 6c10.333 3.33301 23.833 5 40.5 5c21.333 0 37.166 -3.66699 47.499 -11z
" />
    <glyph glyph-name="X" unicode="X" horiz-adv-x="623" 
d="M596.5 94c7 -9.33301 10.502 -20.002 10.502 -32.002c0 -19.333 -8.66699 -36.5 -26 -51.5s-40 -22.5 -68 -22.5c-28.667 0 -52 8.33301 -70 25s-36.333 43 -55 79l-93 177l-156 -247c-6.66699 -11.333 -14.334 -19.833 -23.001 -25.5s-19.667 -8.5 -33 -8.5
c-18 0 -31.667 5.5 -41 16.5s-15 28.167 -17 51.5c17.333 5.33301 32.666 14 45.999 26s28 29.333 44 52l143 205l-124 231c-6.66699 12.667 -13.167 21.834 -19.5 27.501s-13.5 8.5 -21.5 8.5s-14.833 -2.83301 -20.5 -8.5s-8.83398 -12.167 -9.50098 -19.5
c-10.667 4 -19.167 10.667 -25.5 20s-9.5 20.333 -9.5 33c0 20 7.33301 37.167 22 51.5s37 21.5 67 21.5s54.5 -8.33301 73.5 -25s37.5 -43 55.5 -79l86 -166l140 238c6 10.667 13.333 18.834 22 24.501s19.667 8.5 33 8.5c18 0 31.667 -5.33301 41 -16
s15.333 -27.667 18 -51c-18 -6 -34.167 -15.5 -48.5 -28.5s-28.166 -29.5 -41.499 -49.5l-131 -188l134 -250c13.333 -24 27.666 -36 42.999 -36c7.33301 0 13.833 2.83301 19.5 8.5s8.83398 12.167 9.50098 19.5c10 -4 18.5 -10.667 25.5 -20z" />
    <glyph glyph-name="Y" unicode="Y" horiz-adv-x="577" 
d="M344 257l-0.00292969 -126c0 -50 5.33301 -89.667 16 -119c-6 -6 -14.5 -11.667 -25.5 -17s-23.5 -8 -37.5 -8c-18.667 0 -33.834 5.16699 -45.501 15.5s-17.5 24.5 -17.5 42.5l-1 212c-3.33301 4.66699 -6.66602 10 -9.99902 16s-5.66602 10.333 -6.99902 13l-165 326
c-11.333 23.333 -25.666 43 -42.999 59c7.33301 8 18.166 15.833 32.499 23.5s29.833 11.5 46.5 11.5c20 0 35.5 -5 46.5 -15s21.167 -25.333 30.5 -46l145 -313l135 292c7.33301 14.667 11 28 11 40c0 10.667 -3.66699 21 -11 31c19.333 7.33301 40 11 62 11
c16.667 0 29.334 -4.66699 38.001 -14s13.334 -21 14.001 -35c0 -17.333 -8.66699 -40.333 -26 -69z" />
    <glyph glyph-name="Z" unicode="Z" horiz-adv-x="585" 
d="M542.5 166c11.667 -18 17.4971 -38.002 17.4971 -60.002c0 -33.333 -12.5 -59.666 -37.5 -78.999s-62.167 -28.666 -111.5 -27.999l-249 5c-23.333 0 -41.666 -0.5 -54.999 -1.5s-28.333 -3.83301 -45 -8.5l-16 28c0 19.333 2.16699 35.833 6.5 49.5
s12.166 27.834 23.499 42.501l358 498l-220 -13c-20 -0.666992 -37.167 -4.5 -51.5 -11.5s-23.833 -16.833 -28.5 -29.5c-3.33301 -8 -5 -17 -5 -27c0 -11.333 3.66699 -22.666 11 -33.999c-20 1.33301 -37 6.66602 -51 15.999c-12.667 5.33301 -23.167 15.333 -31.5 30
s-12.5 30.667 -12.5 48c0 32.667 13.5 59 40.5 79s66.833 29.333 119.5 28l195 -5c54.667 -1.33301 94.334 1.66699 119.001 9l17 -33c0 -19.333 -2.16699 -35.833 -6.5 -49.5s-12.166 -27.834 -23.499 -42.501l-361 -492l237 12c24.667 0.666992 44.5 5.5 59.5 14.5
s25.167 19.833 30.5 32.5c3.33301 10 5 18.667 5 26c0 13.333 -3.33301 26 -10 38c10.667 -0.666992 20.334 -2.66699 29.001 -6c19.333 -6 34.833 -18 46.5 -36z" />
    <glyph glyph-name="bracketleft" unicode="[" horiz-adv-x="357" 
d="M270 736v-52h-79v-800h79v-52h-182v904h182z" />
    <glyph glyph-name="backslash" unicode="\" horiz-adv-x="518" 
d="M61 732h111l324 -874h-109z" />
    <glyph glyph-name="bracketright" unicode="]" horiz-adv-x="357" 
d="M258 -168h-182v52h78v800h-78v52h182v-904z" />
    <glyph glyph-name="asciicircum" unicode="^" horiz-adv-x="542" 
d="M82 259.5c-8.66699 3 -13.333 5.83301 -14 8.5l173 164c5.33301 2.66699 15.666 4 30.999 4c14.667 0 24.667 -1.33301 30 -4l173 -164c-0.666992 -2.66699 -5.66699 -5.66699 -15 -9s-16.666 -5 -21.999 -5l-166 107l-168 -107c-6 0.666992 -13.333 2.5 -22 5.5z" />
    <glyph glyph-name="underscore" unicode="_" horiz-adv-x="385" 
d="M415 -69v-57l-445 2v57z" />
    <glyph glyph-name="grave" unicode="`" horiz-adv-x="600" 
d="M216 723.5c23.333 5.66699 41.667 7.83301 55 6.5l91 -155c-4.66699 -3.33301 -18.667 -6 -42 -8l-149 140c6.66699 5.33301 21.667 10.833 45 16.5z" />
    <glyph glyph-name="a" unicode="a" horiz-adv-x="559" 
d="M551 52c0 -17.333 -7.66309 -32.002 -22.9961 -44.002s-35 -18 -59 -18c-32.667 0 -57.334 11.167 -74.001 33.5s-25.334 58.5 -26.001 108.5c-20 -43.333 -47.333 -78 -82 -104s-74.334 -39 -119.001 -39c-38.667 0 -69.834 10.5 -93.501 31.5s-35.5 49.5 -35.5 85.5
c0 42 16 76.667 48 104s73 48 123 62s101 20.333 153 19v25c0 58 -8 100.667 -24 128s-42.667 41 -80 41c-25.333 0 -45.833 -6 -61.5 -18s-23.5 -31.667 -23.5 -59c0 -15.333 3 -29.666 9 -42.999s16 -23.333 30 -30c-6.66699 -7.33301 -15.5 -12.833 -26.5 -16.5
s-22.5 -5.5 -34.5 -5.5c-26.667 0 -48.167 8.83301 -64.5 26.5s-24.5 39.167 -24.5 64.5c0 39.333 18 69.5 54 90.5s85.667 31.5 149 31.5c72 0 124.833 -17.167 158.5 -51.5s50.5 -89.166 50.5 -164.499v-184c0 -35.333 11.333 -53 34 -53c5.33301 0 10.833 1.33301 16.5 4
s10.167 6.66699 13.5 12c8 -10.667 12 -23 12 -37zM285.504 88.498c23 17.667 42.167 41.1689 57.5 70.502s23 60.666 23 93.999c-23.333 1.33301 -47 0.166016 -71 -3.50098s-44.667 -9.5 -62 -17.5c-23.333 -10 -41.5 -23.5 -54.5 -40.5s-19.5 -36.833 -19.5 -59.5
c0 -20 4.83301 -36.667 14.5 -50s24.5 -20 44.5 -20c22 0 44.5 8.83301 67.5 26.5z" />
    <glyph glyph-name="b" unicode="b" horiz-adv-x="549" 
d="M156 4c-37.333 11.333 -67.334 27.667 -90.001 49v621c0 18 5.5 32.167 16.5 42.5s25.167 15.5 42.5 15.5c14 0 27 -2.66699 39 -8s21.333 -11 28 -17c-11.333 -45.333 -17 -106.333 -17 -183l-1 -110c12 34 32 61.167 60 81.5s61.333 30.5 100 30.5
c56 0 99.333 -20.167 130 -60.5s46 -103.5 46 -189.5c0 -90 -19.167 -160.667 -57.5 -212s-97.833 -77 -178.5 -77c-41.333 0 -80.666 5.66699 -117.999 17zM366.499 99.501c17.667 43.667 26.499 102.833 26.499 177.5c0 65.333 -6.83301 113.166 -20.5 143.499
s-34.5 45.5 -62.5 45.5c-44.667 0 -78.334 -22.167 -101.001 -66.5s-34 -97.166 -34 -158.499v-178c8.66699 -8 21.334 -14.833 38.001 -20.5s33.667 -8.5 51 -8.5c50.667 0 84.834 21.833 102.501 65.5z" />
    <glyph glyph-name="c" unicode="c" horiz-adv-x="509" 
d="M102.5 56.5c-42.333 46.333 -63.5 112.833 -63.5 199.5c0 84 21.667 150 65 198s104.333 72 183 72c56.667 0 100.5 -11.833 131.5 -35.5s46.5 -54.167 46.5 -91.5c0 -25.333 -7.5 -45.666 -22.5 -60.999s-34.5 -23 -58.5 -23c-11.333 0 -22.5 1.83301 -33.5 5.5
s-19.5 9.16699 -25.5 16.5c20 13.333 30 37 30 71c0 26.667 -7 46.167 -21 58.5s-32.667 18.5 -56 18.5c-37.333 0 -67 -18.5 -89 -55.5s-33 -89.167 -33 -156.5c0 -74.667 14 -129.334 42 -164.001s66.667 -52 116 -52c35.333 0 65.666 8.66699 90.999 26
s41.666 41 48.999 71c10.667 -4 16 -13.667 16 -29c0 -8.66699 -1.33301 -18 -4 -28c-10.667 -35.333 -32.167 -62.5 -64.5 -81.5s-72.166 -28.5 -119.499 -28.5c-77.333 0 -137.166 23.167 -179.499 69.5z" />
    <glyph glyph-name="d" unicode="d" horiz-adv-x="579" 
d="M558 49c0 -16.667 -7.16797 -30.334 -21.501 -41.001s-32.5 -16 -54.5 -16c-58.667 0 -90.667 43 -96 129c-32 -89.333 -89.333 -134 -172 -134c-62 0 -106.667 23.167 -134 69.5s-41 105.833 -41 178.5c0 92.667 18.333 164.334 55 215.001s89 76 157 76
c32 0 59 -6 81 -18s38 -29 48 -51v86c0 67.333 -6.33301 122 -19 164c18.667 16.667 39.667 25 63 25c18.667 0 34 -5.33301 46 -16s18 -24.667 18 -42l-1 -548c0 -34.667 11 -52 33 -52c12.667 0 21.334 4.33301 26.001 13c8 -12 12 -24.667 12 -38zM342.999 126
c23.333 52 35 114.667 35 188c0 46 -7.33301 83.167 -22 111.5s-41.667 42.5 -81 42.5c-79.333 0 -119 -76.667 -119 -230c0 -61.333 6.33301 -108.333 19 -141s36 -49 70 -49c42 0 74.667 26 98 78z" />
    <glyph glyph-name="e" unicode="e" horiz-adv-x="519" 
d="M475 113c0 -8 -2.33496 -17.6699 -7.00195 -29.0029c-12.667 -31.333 -35.167 -55.333 -67.5 -72s-71.166 -25 -116.499 -25c-76 0 -135.833 23.333 -179.5 70s-65.5 113 -65.5 199c0 84.667 21.333 150.834 64 198.501s103.667 71.5 183 71.5
c58 0 105 -12.833 141 -38.5s54 -62.167 54 -109.5c0 -49.333 -19.833 -87.166 -59.5 -113.499s-93.5 -39.5 -161.5 -39.5c-38.667 0 -73 1.66699 -103 5c4.66699 -62 20.334 -106.333 47.001 -133s63 -40 109 -40c36 0 66.833 7.33301 92.5 22s43.5 34.334 53.5 59.001
c10.667 -4.66699 16 -13 16 -25zM189.498 429.497c-22.333 -37 -33.502 -89.501 -33.502 -157.501c17.333 -2 35 -3 53 -3c45.333 0 82.333 9 111 27s43 51 43 99c0 32.667 -7.66699 55.834 -23 69.501s-34.666 20.5 -57.999 20.5c-39.333 0 -70.166 -18.5 -92.499 -55.5z
" />
    <glyph glyph-name="f" unicode="f" horiz-adv-x="397" 
d="M376.5 719.5c25.667 -15 38.5 -36.501 38.5 -64.501c0 -19.333 -6.66699 -35 -20 -47s-29.333 -18 -48 -18c-22.667 0 -38.334 5.33301 -47.001 16c12.667 17.333 19 34.666 19 51.999c0 30.667 -16.667 46 -50 46c-21.333 0 -37.166 -8 -47.499 -24
s-16.833 -36 -19.5 -60s-4 -55.667 -4 -95v-13h37c12 0 28.333 0.333008 49 1s37 1.33398 49 2.00098l-1 -27c-0.666992 -8.66699 -3.66699 -15.5 -9 -20.5s-12 -7.5 -20 -7.5h-105v-329c0 -50 5.33301 -89.667 16 -119c-18 -16.667 -38.667 -25 -62 -25
c-18.667 0 -33.834 5.33301 -45.501 16s-17.5 24.667 -17.5 42v415h-11c-8.66699 0 -18.667 -0.333008 -30 -1s-21.333 -1.66699 -30 -3l1 29c0.666992 8.66699 3.66699 15.334 9 20.001s12 7 20 7h41v32c0 132 60.667 198 182 198c44.667 0 79.834 -7.5 105.501 -22.5z" />
    <glyph glyph-name="g" unicode="g" horiz-adv-x="542" 
d="M94 -199c-34 19.333 -51 48.666 -51 87.999c0 24 7.33301 43.167 22 57.5s33.667 21.5 57 21.5c24 0 41 -6.33301 51 -19c-19.333 -15.333 -29 -37 -29 -65c0 -23.333 7.33301 -41.666 22 -54.999s35 -20 61 -20c48.667 0 85.167 19.667 109.5 59s36.5 95 36.5 167v72
c-11.333 -34.667 -30.5 -61.334 -57.5 -80.001s-60.167 -28 -99.5 -28c-56 0 -99.5 20 -130.5 60s-46.5 103 -46.5 189c0 82 18.333 148.833 55 200.5s97.334 77.5 182.001 77.5c40.667 0 79.167 -5.66699 115.5 -17s66.166 -27.666 89.499 -48.999v-415
c0 -182 -85.667 -273 -257 -273c-52.667 0 -96 9.66699 -130 29zM340.5 107.5c20.333 36.333 30.8359 83.167 31.5029 140.5l1 208c-10 9.33301 -23.333 16.5 -40 21.5s-34.334 7.5 -53.001 7.5c-48 0 -80.833 -21.5 -98.5 -64.5s-26.5 -103.833 -26.5 -182.5
c0 -67.333 7.16699 -115 21.5 -143s38.166 -42 71.499 -42c41.333 0 72.166 18.167 92.499 54.5z" />
    <glyph glyph-name="h" unicode="h" horiz-adv-x="567" 
d="M515 12c-18 -16.667 -38.667 -25 -62 -25c-18.667 0 -33.834 5.33301 -45.501 16s-17.5 24.667 -17.5 42v261c0 56.667 -6.5 98.5 -19.5 125.5s-35.833 40.5 -68.5 40.5c-21.333 0 -41.166 -8.5 -59.499 -25.5s-33.166 -43 -44.499 -78s-17 -78.5 -17 -130.5
c0 -78.667 0.833008 -130.667 2.5 -156s6.83398 -49 15.501 -71c-6 -6 -14.333 -11.5 -25 -16.5s-23 -7.5 -37 -7.5c-18.667 0 -33.834 5.66699 -45.501 17s-17.5 26.666 -17.5 45.999l-1 624c0 18.667 5.5 32.834 16.5 42.501s25.833 14.5 44.5 14.5
c13.333 0 25.833 -2.5 37.5 -7.5s21.167 -10.5 28.5 -16.5c-7.33301 -24 -12.333 -51.333 -15 -82s-4.33398 -70.334 -5.00098 -119.001v-88c14 34.667 34.5 61.334 61.5 80.001s59.167 28 96.5 28c54.667 0 95 -17 121 -51s39 -85 39 -153l1 -191
c0 -52 5.33301 -91.667 16 -119z" />
    <glyph glyph-name="i" unicode="i" horiz-adv-x="267" 
d="M84.5 607c-13 12.667 -19.5 28 -19.5 46c0 18.667 6.5 34.5 19.5 47.5s28.833 19.5 47.5 19.5c18 0 33.5 -6.5 46.5 -19.5s19.5 -28.833 19.5 -47.5c0 -18 -6.5 -33.333 -19.5 -46s-28.5 -19 -46.5 -19c-18.667 0 -34.5 6.33301 -47.5 19zM207 12
c-18.667 -16.667 -39.667 -25 -63 -25c-18 0 -32.667 5.16699 -44 15.5s-17 24.5 -17 42.5l-1 338c0 48.667 -5.33301 88.667 -16 120c20 16 40.333 24 61 24c18 0 32.833 -5.16699 44.5 -15.5s17.5 -24.5 17.5 -42.5l2 -338c0 -52 5.33301 -91.667 16 -119z" />
    <glyph glyph-name="j" unicode="j" horiz-adv-x="264" 
d="M87.5 618.5c-12.333 12.333 -18.5 27.5 -18.5 45.5s6.16699 33.167 18.5 45.5s27.5 18.5 45.5 18.5s33.167 -6.16699 45.5 -18.5s18.5 -27.5 18.5 -45.5s-6.16699 -33.167 -18.5 -45.5s-27.5 -18.5 -45.5 -18.5s-33.167 6.16699 -45.5 18.5zM-65.5 -206
c-20.333 15.333 -30.5029 35.332 -30.5029 59.999c0 16 5.16699 29.833 15.5 41.5s24.833 17.5 43.5 17.5c9.33301 0 16.833 -1.83301 22.5 -5.5s10.834 -9.5 15.501 -17.5c-8.66699 -14 -13 -27.333 -13 -40c0 -14.667 3.83301 -25.167 11.5 -31.5s17.167 -9.5 28.5 -9.5
c23.333 0 38.5 14.833 45.5 44.5s10.5 73.5 10.5 131.5l1 397c0 49.333 -5.66699 89.333 -17 120c20 16 40.667 24 62 24c18 0 32.833 -5.16699 44.5 -15.5s17.5 -24.5 17.5 -42.5v-502c0 -57.333 -13.167 -104.166 -39.5 -140.499s-69.166 -54.5 -128.499 -54.5
c-39.333 0 -69.166 7.66699 -89.499 23z" />
    <glyph glyph-name="k" unicode="k" horiz-adv-x="549" 
d="M528 53c0 -18.667 -8.16895 -34.335 -24.502 -47.002s-36.166 -19 -59.499 -19c-20 0 -38.167 6 -54.5 18s-29.166 29.333 -38.499 52l-74 160c-36.667 -12.667 -68.334 -21.334 -95.001 -26.001c0 -59.333 1 -99 3 -119s7 -40.333 15 -61
c-8.66699 -7.33301 -18 -13.166 -28 -17.499s-22.667 -6.5 -38 -6.5c-22.667 0 -38.334 5.5 -47.001 16.5s-13 26.5 -13 46.5l-1 624c0 18 5.83301 32.167 17.5 42.5s26.834 15.5 45.501 15.5c24.667 0 45.334 -8.33301 62.001 -25c-6 -31.333 -10 -57.833 -12 -79.5
s-3.33301 -47.5 -4 -77.5c0 -19.333 -0.333008 -34.666 -1 -45.999l-1 -113c15.333 42 39 75 71 99s70.667 36 116 36c42 0 73.5 -10.333 94.5 -31s31.5 -48 31.5 -82c0 -38 -13.333 -71.333 -40 -100s-60.667 -52.667 -102 -72
c16.667 -5.33301 33.334 -21.666 50.001 -48.999l42 -74c9.33301 -16 16.5 -26.5 21.5 -31.5s11.833 -7.5 20.5 -7.5c11.333 0 20.666 3.66699 27.999 11c10 -10 15 -22.333 15 -37zM324.498 300.999c38.333 28.667 57.5 63.999 57.5 105.999c0 40.667 -18.667 61 -56 61
c-27.333 0 -52 -10.333 -74 -31s-39.167 -49 -51.5 -85s-18.5 -75.667 -18.5 -119c56.667 16.667 104.167 39.334 142.5 68.001z" />
    <glyph glyph-name="l" unicode="l" horiz-adv-x="282" 
d="M100.5 23.5c-19 22.333 -28.502 53.501 -28.502 93.501v557c0 18 5.83301 32.167 17.5 42.5s26.834 15.5 45.501 15.5c24.667 0 45.334 -8.33301 62.001 -25c-6.66699 -24 -11 -49.833 -13 -77.5s-3 -66.834 -3 -117.501v-386c0 -35.333 12 -53 36 -53
c6.66699 0 13.167 1.33301 19.5 4s10.833 6.66699 13.5 12c8.66699 -10.667 13 -23 13 -37c0 -18 -8 -32.833 -24 -44.5s-35 -17.5 -57 -17.5c-35.333 0 -62.5 11.167 -81.5 33.5z" />
    <glyph glyph-name="m" unicode="m" horiz-adv-x="872" 
d="M819 12c-18 -16.667 -39 -25 -63 -25c-18.667 0 -33.834 5.33301 -45.501 16s-17.5 24.667 -17.5 42v261c0 54.667 -5.16699 96 -15.5 124s-30.5 42 -60.5 42c-19.333 0 -37.833 -8.16699 -55.5 -24.5s-32.167 -41.5 -43.5 -75.5s-17.333 -76 -18 -126v-115
c0 -50 5.66699 -89.667 17 -119c-9.33301 -8 -18.666 -14.167 -27.999 -18.5s-20.666 -6.5 -33.999 -6.5c-18 0 -32.667 5.16699 -44 15.5s-17 24.5 -17 42.5v261c0 56.667 -5.83301 98.5 -17.5 125.5s-33.167 40.5 -64.5 40.5c-20 0 -38.333 -8.5 -55 -25.5
s-30.167 -43.333 -40.5 -79s-15.5 -80.167 -15.5 -133.5c0 -76.667 1 -127.5 3 -152.5s7.33301 -48.5 16 -70.5c-18 -16 -39.333 -24 -64 -24c-18 0 -32.833 5.66699 -44.5 17s-17.5 26.666 -17.5 45.999l-1 340c0 35.333 -10.667 53 -32 53
c-5.33301 0 -10.833 -1.66699 -16.5 -5s-9.83398 -7.66602 -12.501 -12.999c-8 13.333 -12 26 -12 38c0 18 6.83301 33 20.5 45s31.167 18 52.5 18c29.333 0 52.333 -10.5 69 -31.5s25.334 -51.833 26.001 -92.5c12.667 39.333 32.5 69.833 59.5 91.5s60.5 32.5 100.5 32.5
c40.667 0 72.667 -10.167 96 -30.5s39.333 -50.833 48 -91.5c12 38 31.667 67.833 59 89.5s60.666 32.5 99.999 32.5c101.333 0 152 -68 152 -204v-191c0 -50 5.33301 -89.667 16 -119z" />
    <glyph glyph-name="n" unicode="n" horiz-adv-x="581" 
d="M530 12c-18 -16.667 -39.002 -24.998 -63.002 -24.998c-18.667 0 -34 5.16699 -46 15.5s-18 24.5 -18 42.5v261c-0.666992 55.333 -7.16699 96.166 -19.5 122.499s-34.833 39.5 -67.5 39.5c-22 0 -42.167 -8.33301 -60.5 -25s-33.166 -42.167 -44.499 -76.5
s-17 -77.166 -17 -128.499c0 -78.667 1 -130.667 3 -156s7.33301 -49 16 -71c-6.66699 -6 -15.5 -11.5 -26.5 -16.5s-22.833 -7.5 -35.5 -7.5c-19.333 0 -35 5.66699 -47 17s-18 26.666 -18 45.999v341c-0.666992 18.667 -3 32 -7 40s-10.667 12 -20 12
c-12.667 0 -21.334 -4.66699 -26.001 -14c-8.66699 12.667 -13 25.334 -13 38.001c0 17.333 6.33301 31.5 19 42.5s30.334 16.5 53.001 16.5c28.667 0 50.834 -9.83301 66.501 -29.5s23.5 -48.834 23.5 -87.501v-5c13.333 39.333 34.5 69.5 63.5 90.5
s64.167 31.5 105.5 31.5c54.667 0 95.167 -17 121.5 -51s39.5 -85 39.5 -153v-191c1.33301 -54.667 7.33301 -94.334 18 -119.001z" />
    <glyph glyph-name="o" unicode="o" horiz-adv-x="555" 
d="M101.5 58c-41.667 47.333 -62.5 113.333 -62.5 198c0 85.333 21 151.666 63 198.999s100.333 71 175 71c75.333 0 134 -23.667 176 -71s63 -113.666 63 -198.999c0 -84.667 -21 -150.667 -63 -198s-100.667 -71 -176 -71s-133.833 23.667 -175.5 71zM367.5 86
c20.333 38.667 30.5 95.334 30.5 170.001c0 75.333 -10.167 132.333 -30.5 171s-50.5 58 -90.5 58s-70.167 -19.333 -90.5 -58s-30.5 -95.667 -30.5 -171c0 -74.667 10.167 -131.334 30.5 -170.001s50.5 -58 90.5 -58s70.167 19.333 90.5 58z" />
    <glyph glyph-name="p" unicode="p" horiz-adv-x="574" 
d="M494.5 455c27 -47.333 40.501 -106.666 40.501 -177.999c0 -92.667 -18.833 -164.167 -56.5 -214.5s-90.167 -75.5 -157.5 -75.5c-31.333 0 -58 5.83301 -80 17.5s-37.667 28.5 -47 50.5v-80c0 -70.667 5.66699 -127.334 17 -170.001c-18 -16 -39 -24 -63 -24
c-18 0 -33 5.16699 -45 15.5s-18 24.166 -18 41.499l1 550c0 18 -2.16699 31 -6.5 39s-11.166 12 -20.499 12c-12.667 0 -21.334 -4.33301 -26.001 -13c-8.66699 12.667 -13 25.334 -13 38.001c0 16.667 6.66699 30.5 20 41.5s30.666 16.5 51.999 16.5
c58 0 89.667 -43.333 95 -130c32.667 89.333 90 134 172 134c63.333 0 108.5 -23.667 135.5 -71zM418.001 277c0 59.333 -6.33301 105.5 -19 138.5s-36.667 49.5 -72 49.5c-28 0 -52 -12 -72 -36s-35 -55.667 -45 -95s-15 -81 -15 -125c0 -53.333 7.5 -93.833 22.5 -121.5
s40.833 -41.5 77.5 -41.5c82 0 123 77 123 231z" />
    <glyph glyph-name="q" unicode="q" horiz-adv-x="545" 
d="M355 -201c7.33301 22.667 12.167 48.335 14.5 77.002s3.5 62 3.5 100v34v90c-11.333 -34.667 -31.166 -62.334 -59.499 -83.001s-61.833 -31 -100.5 -31c-54.667 0 -97.334 20.667 -128.001 62s-46 105.666 -46 192.999c0 83.333 18.5 151.666 55.5 204.999
s95.833 80 176.5 80c43.333 0 84 -6.16699 122 -18.5s68 -28.166 90 -47.499v-628c0 -18 -6 -32.167 -18 -42.5s-28.667 -15.5 -50 -15.5c-22 0 -42 8.33301 -60 25zM314.501 80.501c19.667 23 34.499 51.666 44.499 85.999s15 68.5 15 102.5v180
c-10 8 -23.833 14.833 -41.5 20.5s-36.167 8.5 -55.5 8.5c-46 0 -77.667 -20.667 -95 -62s-26 -97.666 -26 -168.999c0 -68 6.66699 -118.5 20 -151.5s35.333 -49.5 66 -49.5c28.667 0 52.834 11.5 72.501 34.5z" />
    <glyph glyph-name="r" unicode="r" horiz-adv-x="457" 
d="M403 497c22.667 -19.333 33.999 -46.001 33.999 -80.001c0 -25.333 -7.33301 -45.666 -22 -60.999s-33 -23 -55 -23c-20.667 0 -35.667 5.33301 -45 16c7.33301 12 12.333 22.833 15 32.5s4 20.834 4 33.501c0 38 -16.667 57 -50 57c-26.667 0 -48.167 -19.5 -64.5 -58.5
s-24.5 -97.5 -24.5 -175.5v-38c0 -59.333 1 -100.166 3 -122.499s7 -43.5 15 -63.5c-6.66699 -6 -15.334 -11.333 -26.001 -16s-23 -7.33398 -37 -8.00098c-18 0 -33.167 5.66699 -45.5 17s-18.5 26.666 -18.5 45.999v338c0 18 -2.16699 31.167 -6.5 39.5
s-11.166 12.5 -20.499 12.5c-12.667 0 -21.334 -4.66699 -26.001 -14c-8.66699 12.667 -13 25.334 -13 38.001c0 17.333 6.33301 31.5 19 42.5s30.334 16.5 53.001 16.5c27.333 0 49 -9.33301 65 -28s24.333 -46.334 25 -83.001c23.333 74 67.333 111 132 111
c36.667 0 66.334 -9.66699 89.001 -29z" />
    <glyph glyph-name="s" unicode="s" horiz-adv-x="473" 
d="M81 19c-32 21.333 -47.999 50 -47.999 86c0 18 5.16699 33.333 15.5 46s26.5 19 48.5 19c4 0 10.667 -0.666992 20 -2c-2 -8 -3 -15.333 -3 -22c0 -8 1 -16.667 3 -26c3.33301 -26.667 15.166 -48.334 35.499 -65.001s48.166 -25 83.499 -25
c31.333 0 56.666 5.83301 75.999 17.5s29 28.834 29 51.501c0 15.333 -4.5 28.833 -13.5 40.5s-20.167 21.5 -33.5 29.5s-32.333 18 -57 30c-5.33301 2 -13.333 5.66699 -24 11c-36 16.667 -64.5 31.5 -85.5 44.5s-39 30.5 -54 52.5s-22.5 49 -22.5 81
c0 46.667 18 81.5 54 104.5s81.667 34.5 137 34.5s99 -8.5 131 -25.5s48 -41.5 48 -73.5c0 -14.667 -4.16699 -27.167 -12.5 -37.5s-21.5 -15.833 -39.5 -16.5c-3.33301 -0.666992 -7.66602 -1 -12.999 -1c-3.33301 0 -9.66602 0.666992 -18.999 2c0.666992 4 1 10 1 18
c0 14.667 -2 25.667 -6 33c-4 18.667 -14.167 33.167 -30.5 43.5s-37.5 15.5 -63.5 15.5c-24.667 0 -45.5 -5 -62.5 -15s-25.5 -25.333 -25.5 -46c0 -18.667 5.5 -34.667 16.5 -48s24.5 -24.666 40.5 -33.999s38.667 -21 68 -35c40.667 -19.333 71 -34.833 91 -46.5
s38 -27.5 54 -47.5s24 -44.333 24 -73c0 -42.667 -17.833 -78.834 -53.5 -108.501s-91.5 -44.5 -167.5 -44.5c-62.667 0 -110 10.667 -142 32z" />
    <glyph glyph-name="t" unicode="t" horiz-adv-x="347" 
d="M267 513c22 0.666992 39.334 1.33301 52.001 2l-1 -27c-0.666992 -8.66699 -3.5 -15.5 -8.5 -20.5s-11.5 -7.5 -19.5 -7.5h-94v-33l-1 -301c0 -36 15.667 -54 47 -54c9.33301 0 18.166 1.5 26.499 4.5s13.833 7.16699 16.5 12.5c8.66699 -12.667 13 -25 13 -37
c0 -18.667 -9.16699 -33.834 -27.5 -45.501s-41.833 -17.5 -70.5 -17.5c-36 0 -64 11.333 -84 34s-30 54 -30 94v343h-14c-8.66699 0 -18.667 -0.333008 -30 -1s-21.333 -1.66699 -30 -3l1 29c0.666992 8.66699 3.66699 15.334 9 20.001s12 7 20 7h44v76
c0 17.333 6 31.166 18 41.499s27.333 15.5 46 15.5c23.333 0 44 -8 62 -24c-8 -29.333 -13 -65.666 -15 -108.999h18c12.667 0 30 0.333008 52 1z" />
    <glyph glyph-name="u" unicode="u" horiz-adv-x="575" 
d="M556 47c0 -18 -6.16602 -32.334 -18.499 -43.001s-29.833 -16 -52.5 -16c-29.333 0 -51.833 9.66699 -67.5 29s-23.5 48.333 -23.5 87v2c-14 -38.667 -34.833 -68.334 -62.5 -89.001s-61.834 -31 -102.501 -31c-54.667 0 -94.5 15.667 -119.5 47s-37.5 84 -37.5 158
l-1 191c0 51.333 -5.33301 91.333 -16 120c18.667 16 39.667 24 63 24c18.667 0 33.834 -5.16699 45.501 -15.5s17.5 -24.5 17.5 -42.5v-261c0 -60 6 -102.833 18 -128.5s33.667 -38.5 65 -38.5c21.333 0 41 8.5 59 25.5s32.5 43.167 43.5 78.5s16.5 79 16.5 131
c0 78.667 -1 130.834 -3 156.501s-7.33301 49.5 -16 71.5c19.333 15.333 40.333 23 63 23c18 0 33 -5.66699 45 -17s18 -26.666 18 -45.999l1 -341c0 -18.667 2.16699 -31.834 6.5 -39.501s11.166 -11.5 20.499 -11.5c12 0 20.667 4.33301 26 13
c8 -11.333 12 -23.666 12 -36.999z" />
    <glyph glyph-name="v" unicode="v" horiz-adv-x="501" 
d="M471.5 511c9.66699 -7.33301 14.498 -19.3311 14.498 -35.998c0 -20.667 -4 -40.334 -12 -59.001l-158 -412c-26 -11.333 -50.667 -17 -74 -17c-31.333 0 -51 12.667 -59 38l-145 416l-9.5 24.5c-5 13 -11.167 23.5 -18.5 31.5c15.333 16.667 36.333 25 63 25
c16.667 0 30.834 -3.66699 42.501 -11s19.167 -18 22.5 -32l123 -424l109 388c4 17.333 6 30.666 6 39.999c0 12 -2.33301 21.333 -7 28c18.667 7.33301 37.334 11 56.001 11c21.333 0 36.833 -3.66699 46.5 -11z" />
    <glyph glyph-name="w" unicode="w" horiz-adv-x="809" 
d="M169 25l-127 416.001c-10 28 -19.333 46.667 -28 56c15.333 16.667 36.333 25 63 25c16.667 0 30.834 -3.66699 42.501 -11s19.167 -18 22.5 -32l105 -416l90 380c2.66699 16 4 29.333 4 40c0 12 -2.33301 21.333 -7 28c16.667 6.66699 40.667 10.667 72 12
c41.333 0 65.666 -13 72.999 -39l102 -421l93 380c4 17.333 6 30.666 6 39.999c0 10.667 -2.33301 20 -7 28c18 7.33301 36.667 11 56 11c20.667 0 35.834 -3.5 45.501 -10.5s14.5 -18.5 14.5 -34.5c0 -20.667 -3.66699 -41 -11 -61l-140 -412
c-26.667 -11.333 -51.334 -17 -74.001 -17c-14.667 0 -27.667 3 -39 9s-18.333 15.667 -21 29l-98 387l-98 -408c-26.667 -11.333 -53 -17 -79 -17c-30.667 0 -50.667 12.667 -60 38z" />
    <glyph glyph-name="x" unicode="x" horiz-adv-x="512" 
d="M493 91.5c7.33301 -9.66699 11 -20.835 11 -33.502c0 -19.333 -8 -36.166 -24 -50.499s-37.333 -21.5 -64 -21.5s-48 8 -64 24s-34 43 -54 81l-54 97l-103 -169c-13.333 -21.333 -31.666 -32 -54.999 -32c-16.667 0 -30.667 5.16699 -42 15.5s-18 27.166 -20 50.499
c20 5.33301 37.333 14.333 52 27s29 29.667 43 51l87 125l-79 136c-7.33301 12.667 -14.333 21.834 -21 27.501s-13.334 8.5 -20.001 8.5c-8 0 -14.667 -2.66699 -20 -8s-8.66602 -12 -9.99902 -20c-11.333 4 -20.5 10.667 -27.5 20s-10.5 20.333 -10.5 33
c0 20 7.83301 37.167 23.5 51.5s38.167 21.5 67.5 21.5c18 0 33.167 -3.5 45.5 -10.5s23.333 -17.5 33 -31.5s21.834 -35 36.501 -63l47 -87l97 158c12 22.667 31 34 57 34c18.667 0 33.167 -5.33301 43.5 -16s16.833 -27.667 19.5 -51c-20 -6 -37.167 -15.5 -51.5 -28.5
s-28.833 -30.167 -43.5 -51.5l-83 -114l85 -146c6.66699 -11.333 13.667 -20.166 21 -26.499s14.666 -9.5 21.999 -9.5c6.66699 0 12.667 3 18 9s8.66602 12.667 9.99902 20c10.667 -4 19.667 -10.833 27 -20.5z" />
    <glyph glyph-name="y" unicode="y" horiz-adv-x="553" 
d="M491 51c0 -186 -83.002 -279.002 -249.002 -279.002c-52.667 0 -96 8.16699 -130 24.5s-51 43.5 -51 81.5c0 20.667 7.16699 37.5 21.5 50.5s32.833 19.5 55.5 19.5c24 0 41 -6.33301 51 -19c-9.33301 -6 -16.166 -13.5 -20.499 -22.5s-6.5 -17.833 -6.5 -26.5
c0 -22 7.66699 -39.333 23 -52s35 -19 59 -19c48 0 84 20 108 60s36 97 36 171c0 12.667 2 38.334 6 77.001c-13.333 -40.667 -34 -71.667 -62 -93s-63.333 -32 -106 -32c-52.667 0 -91.5 15.833 -116.5 47.5s-37.5 84.167 -37.5 157.5l-1 185
c0 51.333 -5.33301 91.333 -16 120c18.667 16 39.667 24 63 24c18.667 0 33.834 -5.16699 45.501 -15.5s17.5 -24.5 17.5 -42.5v-255c0 -58 5.83301 -100.167 17.5 -126.5s32.167 -39.5 61.5 -39.5c36 0 65.5 19.5 88.5 58.5s34.5 96.833 34.5 173.5s-1 127.667 -3 153
s-7.33301 49 -16 71c19.333 15.333 40.333 23 63 23c18 0 33 -5.66699 45 -17s18 -26.666 18 -45.999z" />
    <glyph glyph-name="z" unicode="z" horiz-adv-x="498" 
d="M467 137c9.33301 -16.667 14.001 -32.6709 14.001 -48.0039c0 -28 -11.833 -50.667 -35.5 -68s-56.167 -25.666 -97.5 -24.999l-208 4c-38.667 1.33301 -69.667 -1.66699 -93 -9l-14 24c0 16.667 1.66699 30.5 5 41.5s10.333 21.833 21 32.5l298 349l-176 -13
c-28.667 -2 -49.334 -13 -62.001 -33c-6 -10 -9 -20 -9 -30c0 -5.33301 1 -10.666 3 -15.999c-10.667 0 -20.334 2 -29.001 6c-17.333 6.66699 -31 17.667 -41 33s-15 30 -15 44c0 27.333 11.667 49.333 35 66s58.333 24.334 105 23.001l180 -5
c23.333 0 41.833 0.5 55.5 1.5s25.834 3.5 36.501 7.5l12 -28c0 -17.333 -1.66699 -31.666 -5 -42.999s-10 -23 -20 -35l-276 -330l172 7c36 0.666992 60 14 72 40c4 8 6 16 6 24s-1.66699 15.333 -5 22c11.333 -0.666992 21 -2.66699 29 -6
c18.667 -7.33301 32.667 -19.333 42 -36z" />
    <glyph glyph-name="braceleft" unicode="{" horiz-adv-x="406" 
d="M156 -140c-28.667 24 -42.998 60.6689 -42.998 110.002c0 20 2.33301 49.333 7 88c6 54 9 92 9 114c0 28 -5.16699 48.833 -15.5 62.5s-27.5 25.5 -51.5 35.5v36c24.667 9.33301 42 21.666 52 36.999s15 37 15 65c0 24 -3 62.333 -9 115c-4.66699 32.667 -7 58 -7 76
c0 50 14.333 87 43 111s69.667 36 123 36c20.667 0 39.334 -1.83301 56.001 -5.5s28.667 -7.5 36 -11.5c3.33301 -2 5 -6.66699 5 -14c0 -12.667 -3.33301 -20 -10 -22c-20.667 6 -38.334 9 -53.001 9c-30 0 -52.5 -7.33301 -67.5 -22s-22.5 -38.667 -22.5 -72
c0 -16.667 2.33301 -42.667 7 -78c6.66699 -46.667 10 -84.667 10 -114c0 -72 -17 -113.667 -51 -125v-6c15.333 -4.66699 27.666 -17.334 36.999 -38.001s14 -49 14 -85c0 -20 -1.33301 -42.167 -4 -66.5s-4.33398 -39.166 -5.00098 -44.499
c-5.33301 -42.667 -8 -71.334 -8 -86.001c0 -32 7.66699 -56.167 23 -72.5s37.666 -24.5 66.999 -24.5c14.667 0 32.334 3 53.001 9c6.66699 -2 10 -9.33301 10 -22c0 -8 -1.66699 -13 -5 -15c-8 -4 -20.167 -7.66699 -36.5 -11s-34.833 -5 -55.5 -5
c-53.333 0 -94.333 12 -123 36z" />
    <glyph glyph-name="bar" unicode="|" horiz-adv-x="327" 
d="M112 730h102v-867h-102v867z" />
    <glyph glyph-name="braceright" unicode="}" horiz-adv-x="406" 
d="M70.5 -171c-16.333 3.33301 -28.501 6.99609 -36.501 10.9961c-2.66699 2 -4 6.66699 -4 14c0 5.33301 0.833008 10.333 2.5 15s4.16699 7.33398 7.5 8.00098c20.667 -6 38.334 -9 53.001 -9c28.667 0 50.834 8.16699 66.501 24.5s23.5 40.5 23.5 72.5
c0 14.667 -2.66699 43.334 -8 86.001c-0.666992 5.33301 -2.33398 20.166 -5.00098 44.499s-4 46.5 -4 66.5c0 36 4.66699 64.333 14 85s21.666 33.334 36.999 38.001v6c-34 11.333 -51 53 -51 125c0 29.333 3.33301 67.333 10 114c4.66699 35.333 7 61.333 7 78
c0 32.667 -7.66699 56.5 -23 71.5s-37.666 22.5 -66.999 22.5c-14.667 0 -32.334 -3 -53.001 -9c-3.33301 0.666992 -5.83301 3.33398 -7.5 8.00098s-2.5 9.66699 -2.5 15c0 6.66699 1.33301 11 4 13c7.33301 4 19.333 7.83301 36 11.5s35.334 5.5 56.001 5.5
c53.333 0 94.5 -12 123.5 -36s43.5 -61 43.5 -111c0 -18 -2.33301 -43.333 -7 -76c-6 -52.667 -9 -91 -9 -115c0 -28 5 -49.667 15 -65s27.333 -27.666 52 -36.999v-36c-24.667 -10 -42 -21.833 -52 -35.5s-15 -34.5 -15 -62.5c0 -22 3 -60 9 -114
c4.66699 -38.667 7 -68 7 -88c0 -49.333 -14.5 -86 -43.5 -110s-70.167 -36 -123.5 -36c-20.667 0 -39.167 1.66699 -55.5 5z" />
    <glyph glyph-name="asciitilde" unicode="~" horiz-adv-x="507" 
d="M408 312.5c-17.333 -19 -39.334 -28.5 -66.001 -28.5c-16 0 -30.667 2.5 -44 7.5s-29.333 12.5 -48 22.5c-17.333 9.33301 -32.166 16.5 -44.499 21.5s-25.5 7.5 -39.5 7.5c-17.333 0 -31.666 -4.5 -42.999 -13.5s-20 -20.167 -26 -33.5
c-4 -0.666992 -9.33301 -0.166992 -16 1.5s-12.334 4.16699 -17.001 7.5c4 35.333 16.167 61 36.5 77s44.166 24 71.499 24c16.667 0 31.667 -2.5 45 -7.5s29.333 -12.5 48 -22.5c18.667 -9.33301 34 -16.333 46 -21s25.667 -7 41 -7c16 0 28 4 36 12s15.333 20 22 36
c12 0 22.667 -3 32 -9c-5.33301 -30.667 -16.666 -55.5 -33.999 -74.5z" />
    <glyph glyph-name="uni00A0" unicode="&#xa0;" horiz-adv-x="288" 
 />
    <glyph glyph-name="exclamdown" unicode="&#xa1;" horiz-adv-x="303" 
d="M197.5 507c13 -12.667 19.5 -28 19.5 -46c0 -18.667 -6.5 -34.5 -19.5 -47.5s-28.5 -19.5 -46.5 -19.5c-18.667 0 -34.5 6.5 -47.5 19.5s-19.5 28.833 -19.5 47.5c0 18 6.5 33.333 19.5 46s28.833 19 47.5 19c18 0 33.5 -6.33301 46.5 -19zM151 -216
c20 0 41.667 3.66699 65 11l-23 526h-77l-28 -526c22 -7.33301 43 -11 63 -11z" />
    <glyph glyph-name="cent" unicode="&#xa2;" horiz-adv-x="513" 
d="M472 220c0 -8 -1.33398 -16.998 -4.00098 -26.998c-12.667 -44 -43.667 -75.667 -93 -95l18 -61c10.667 -36.667 20.334 -64 29.001 -82c-2 -3.33301 -4.33301 -6.16602 -7 -8.49902s-6.33398 -4.16602 -11.001 -5.49902c-2 -0.666992 -4.66699 -1 -8 -1
c-8.66699 0 -14.667 5.33301 -18 16l-39 132c-18.667 -3.33301 -37 -5 -55 -5c-78 0 -138.167 23.167 -180.5 69.5s-63.5 112.833 -63.5 199.5c0 63.333 12.5 116.666 37.5 159.999s61.167 74 108.5 92l-14 46c-12 38 -22 65.333 -30 82
c2 3.33301 4.33301 6.16602 7 8.49902s6.33398 4.16602 11.001 5.49902c2 0.666992 4.66699 1 8 1c8.66699 0 15 -5.33301 19 -16l34 -116c19.333 4.66699 42 7 68 7c56.667 0 100.5 -11.833 131.5 -35.5s46.5 -54.167 46.5 -91.5c0 -25.333 -7.5 -45.5 -22.5 -60.5
s-34.5 -22.5 -58.5 -22.5c-27.333 0 -47 7.33301 -59 22c20 13.333 30 36.666 30 69.999c0 26.667 -7.16699 46.334 -21.5 59.001s-33.166 19 -56.499 19c-15.333 0 -30.333 -3.66699 -45 -11l123 -413c25.333 5.33301 46.666 16.166 63.999 32.499s29 36.5 35 60.5
c10.667 -4.66699 16 -15 16 -31zM319.999 153.002l-117 392.001c-30.667 -37.333 -46 -96 -46 -176c0 -74.667 14 -129.334 42 -164.001s66.667 -52 116 -52h5z" />
    <glyph glyph-name="sterling" unicode="&#xa3;" horiz-adv-x="510" 
d="M481 61c0 -16.667 -3.50391 -31 -10.5039 -43s-16.833 -18 -29.5 -18h-406v34c32.667 46 54.834 83.167 66.501 111.5s17.5 60.5 17.5 96.5c0 8.66699 -0.666992 22.334 -2 41.001h-31c-14 0 -34 -1 -60 -3l1 27c0.666992 8.66699 3.66699 15.5 9 20.5s12 7.5 20 7.5h56
c-0.666992 6 -3 24.5 -7 55.5s-6 58.167 -6 81.5c0 86 20.667 145.5 62 178.5s92 49.5 152 49.5c45.333 0 81 -9 107 -27s39 -39.667 39 -65c0 -38.667 -18 -58 -54 -58c-9.33301 0 -16.666 1 -21.999 3c0 34 -7.5 60.333 -22.5 79s-34.167 28 -57.5 28
c-29.333 0 -52.666 -10.333 -69.999 -31s-26 -59.334 -26 -116.001c0 -25.333 1.33301 -50 4 -74s4.33398 -38.667 5.00098 -44c2.66699 -15.333 5 -35.333 7 -60h43c13.333 0 31.833 0.333008 55.5 1s42.167 1.33398 55.5 2.00098l-1 -27
c-0.666992 -9.33301 -3.66699 -16.333 -9 -21s-12 -7 -20 -7h-121v-7c0 -57.333 -10.5 -104.5 -31.5 -141.5s-54.5 -67.5 -100.5 -91.5c132.667 0 257.667 25.667 375 77c8 -12.667 12 -32.334 12 -59.001z" />
    <glyph glyph-name="currency" unicode="&#xa4;" horiz-adv-x="597" 
d="M538 155c-2 -9.33301 -6.66602 -17.667 -13.999 -25s-14 -11 -20 -11c-4.66699 0 -9.33398 2.33301 -14.001 7l-57 55c-38.667 -29.333 -83.667 -44 -135 -44c-52.667 0 -99.667 16 -141 48l-3 -3c-31.333 -31.333 -50.333 -53.333 -57 -66c-2 0.666992 -5.5 2 -10.5 4
s-9.83301 5.66699 -14.5 11c-7.33301 6.66699 -11 13 -11 19c0 5.33301 2.33301 10 7 14l55 56c-31.333 38.667 -47 84.334 -47 137.001c0 26.667 4.33301 52.167 13 76.5s21 45.833 37 64.5l-2 2l-22 20c-20.667 19.333 -35.334 31.666 -44.001 36.999
c2.66699 10 7.66699 18.333 15 25c7.33301 7.33301 14 11 20 11c4.66699 0 9.33398 -2.33301 14.001 -7l55 -54c39.333 30 85 45 137 45c54 0 101 -16.333 141 -49l2 2c31.333 34 50.333 56 57 66c8.66699 -2 17 -6.66699 25 -14c6.66699 -6.66699 10 -13.334 10 -20.001
c0 -4.66699 -2 -9.66699 -6 -15l-54 -54c30.667 -38 46 -83.333 46 -136c0 -54 -17 -101.333 -51 -142l3 -2c29.333 -29.333 51.333 -48.666 66 -57.999zM370.001 218.999c22 13.333 39.5 32.166 52.5 56.499s19.5 51.5 19.5 81.5s-6.5 57.167 -19.5 81.5
s-30.5 43.166 -52.5 56.499s-46.333 20 -73 20c-26 0 -50 -6.66699 -72 -20s-39.5 -32.166 -52.5 -56.499s-19.5 -51.5 -19.5 -81.5s6.5 -57.167 19.5 -81.5s30.667 -43.166 53 -56.499s46.5 -20 72.5 -20s50 6.66699 72 20z" />
    <glyph glyph-name="yen" unicode="&#xa5;" horiz-adv-x="575" 
d="M532 588l-165.003 -291c70.667 0 111.334 0.666992 122.001 2l-1 -27v-2h1l-1 -27c-0.666992 -8.66699 -3.66699 -15.5 -9 -20.5s-12 -7.5 -20 -7.5h-115v-84c0 -50 5.33301 -89.667 16 -119c-6 -6 -14.5 -11.667 -25.5 -17s-23.5 -8 -37.5 -8
c-18.667 0 -33.834 5.16699 -45.501 15.5s-17.5 24.5 -17.5 42.5l-1 170h-90c-14 0 -34 -1 -60 -3l1 27v2h-1l1 27c0.666992 9.33301 3.83398 16.5 9.50098 21.5s12.5 7.5 20.5 7.5h96l-159 315c-11.333 23.333 -25.666 43 -42.999 59c7.33301 8 18.166 15.833 32.499 23.5
s29.833 11.5 46.5 11.5c20 0 35.5 -5 46.5 -15s21.167 -25.333 30.5 -46l145 -313l135 292c7.33301 14.667 11 28 11 40c0 10.667 -3.66699 21 -11 31c19.333 7.33301 40 11 62 11c16.667 0 29.334 -4.66699 38.001 -14s13.334 -21 14.001 -35
c0 -17.333 -8.66699 -40.333 -26 -69z" />
    <glyph glyph-name="brokenbar" unicode="&#xa6;" horiz-adv-x="327" 
d="M112 729h102v-363h-102v363zM112 226h102v-363h-102v363z" />
    <glyph glyph-name="section" unicode="&#xa7;" horiz-adv-x="471" 
d="M80.5 -77.5c-31.667 22.333 -47.498 51.501 -47.498 87.501c0 17.333 5 32.166 15 44.499s25.667 18.5 47 18.5c4 0 10.667 -0.666992 20 -2c-2 -8.66699 -3 -17.334 -3 -26.001c0 -5.33301 0.666992 -12.666 2 -21.999c3.33301 -26 15.333 -47.5 36 -64.5
s48.667 -25.5 84 -25.5c32 0 57.833 6 77.5 18s29.5 29.333 29.5 52c0 18 -5.66699 33.333 -17 46s-24 22.667 -38 30s-38.667 19 -74 35c-36 17.333 -64.333 32.5 -85 45.5s-38.5 30.5 -53.5 52.5s-22.5 49 -22.5 81c0 34 9.16699 61.833 27.5 83.5
s43.5 36.834 75.5 45.501c-32.667 18.667 -58 39.5 -76 62.5s-27 51.833 -27 86.5c0 46.667 17.833 81.334 53.5 104.001s81.167 34 136.5 34c54.667 0 98 -8.5 130 -25.5s48 -41.5 48 -73.5c0 -33.333 -16.667 -51.333 -50 -54l-11 -1c-6.66699 0 -13.334 1 -20.001 3
c0.666992 3.33301 1 8.33301 1 15c0 13.333 -2 25 -6 35c-4 19.333 -14.333 34.166 -31 44.499s-38.667 15.5 -66 15.5c-24.667 0 -45.5 -5 -62.5 -15s-25.5 -25.667 -25.5 -47c0 -18.667 5.5 -34.834 16.5 -48.501s24.5 -25.167 40.5 -34.5s38.667 -21 68 -35l60.5 -29
c35 -16.667 61.833 -36.667 80.5 -60s28 -49.333 28 -78c0 -30.667 -9.5 -58.667 -28.5 -84s-48.833 -43 -89.5 -53c37.333 -19.333 66.333 -39.5 87 -60.5s31 -47.833 31 -80.5c0 -42.667 -17.667 -79 -53 -109s-91 -45 -167 -45c-62.667 0 -109.834 11.167 -141.501 33.5z
M319.002 232.501c14.667 11.667 22.002 28.167 22.002 49.5c0 16.667 -5.33301 31.167 -16 43.5s-23.834 23 -39.501 32s-37.834 20.167 -66.501 33.5c-22 -1.33301 -39.333 -7.33301 -52 -18s-19 -26.334 -19 -47.001c0 -25.333 9.66699 -45.833 29 -61.5
s48.333 -32.5 87 -50.5c22 0.666992 40.333 6.83398 55 18.501z" />
    <glyph glyph-name="dieresis" unicode="&#xa8;" horiz-adv-x="600" 
d="M159.5 602c-11 10.667 -16.5 23.334 -16.5 38.001c0 15.333 5.5 28.333 16.5 39s24.167 16 39.5 16c14.667 0 27.334 -5.33301 38.001 -16s16 -23.667 16 -39c0 -14.667 -5.33301 -27.334 -16 -38.001s-23.334 -16 -38.001 -16c-15.333 0 -28.5 5.33301 -39.5 16z
M342 602c-10.667 10.667 -16 23.334 -16 38.001c0 15.333 5.33301 28.333 16 39s23.667 16 39 16s28.333 -5.33301 39 -16s16 -23.667 16 -39c0 -14.667 -5.33301 -27.334 -16 -38.001s-23.667 -16 -39 -16s-28.333 5.33301 -39 16z" />
    <glyph glyph-name="copyright" unicode="&#xa9;" horiz-adv-x="813" 
d="M226.5 36.5c-55 32.333 -98.5 76.166 -130.5 131.499s-48 116 -48 182c0 65.333 16 125.5 48 180.5s75.5 98.5 130.5 130.5s115.167 48 180.5 48c64.667 0 124.5 -16.167 179.5 -48.5s98.5 -76 130.5 -131s48 -114.833 48 -179.5c0 -66 -16 -126.667 -48 -182
s-75.5 -99.166 -130.5 -131.499s-114.833 -48.5 -179.5 -48.5c-65.333 0 -125.5 16.167 -180.5 48.5zM563 74.5c48 28.333 86 66.833 114 115.5s42 102 42 160c0 57.333 -14 110 -42 158s-66 86.167 -114 114.5s-100.333 42.5 -157 42.5s-108.834 -14.167 -156.501 -42.5
s-85.5 -66.5 -113.5 -114.5s-42 -100.667 -42 -158c0 -58 14 -111.333 42 -160s65.833 -87.167 113.5 -115.5s99.834 -42.5 156.501 -42.5s109 14.167 157 42.5zM274 186.5c-32 38.333 -48 92.8311 -48 163.498c0 70 16.5 124 49.5 162s79.167 57 138.5 57
c38 0 71.167 -6.33301 99.5 -19s42.5 -29.667 42.5 -51c0 -10.667 -5.33301 -20.5 -16 -29.5s-25 -13.167 -43 -12.5c-6 56 -33.333 84 -82 84c-72 0 -108 -63.667 -108 -191c0 -128 35 -192 105 -192c24.667 0 45.5 7.83301 62.5 23.5s28.167 38.834 33.5 69.501l11 1
c13.333 0 24.833 -3.5 34.5 -10.5s14.5 -16.5 14.5 -28.5c0 -25.333 -16 -45.666 -48 -60.999s-69.333 -23 -112 -23c-57.333 0 -102 19.167 -134 57.5z" />
    <glyph glyph-name="ordfeminine" unicode="&#xaa;" horiz-adv-x="396" 
d="M390 409c0 -13.333 -5.49902 -24.3281 -16.499 -32.9951s-25.5 -13 -43.5 -13c-18.667 0 -35.834 6.5 -51.501 19.5s-23.5 29.833 -23.5 50.5c0 8 0.666992 14 2 18c-13.333 -27.333 -32 -49 -56 -65s-51.333 -24 -82 -24c-27.333 0 -49.333 6.83301 -66 20.5
s-25 32.5 -25 56.5c0 29.333 11.5 53.166 34.5 71.499s51.833 31.833 86.5 40.5c31.333 7.33301 66.333 11.666 105 12.999v17c0 36 -5.5 62.5 -16.5 79.5s-28.833 25.5 -53.5 25.5c-16 0 -29.167 -3.83301 -39.5 -11.5s-15.5 -19.834 -15.5 -36.501
c0 -23.333 8.33301 -39.333 25 -48c-4.66699 -4.66699 -11 -8.33398 -19 -11.001s-16.333 -4 -25 -4c-20 0 -36 5.66699 -48 17s-18 25.666 -18 42.999c0 26 13 46.167 39 60.5s61.333 21.5 106 21.5c52 0 89.833 -11.167 113.5 -33.5s35.5 -58.5 35.5 -108.5v-113
c0 -22.667 8 -34 24 -34c3.33301 0 7 0.833008 11 2.5s6.66699 3.5 8 5.5c6 -6 9 -15 9 -27zM201.501 435.505c15.667 10.333 28.667 24.3311 39 41.998s15.5 36.834 15.5 57.501c-40 0 -70 -4.33301 -90 -13c-14.667 -6.66699 -26.334 -15.167 -35.001 -25.5
s-13 -22.166 -13 -35.499c0 -12 3 -21.833 9 -29.5s15.667 -11.5 29 -11.5c14.667 0 29.834 5.16699 45.501 15.5z" />
    <glyph glyph-name="guillemotleft" unicode="&#xab;" horiz-adv-x="709" 
d="M394 243v-5l269 -189l-30 -41l-347 198c-2 5.33301 -3 15.333 -3 30c0 19.333 1 31.333 3 36l348 211l29 -43zM133 243v-5l269 -189l-30 -41l-347 198c-2 5.33301 -3 15.333 -3 30c0 19.333 1 31.333 3 36l348 211l29 -43z" />
    <glyph glyph-name="logicalnot" unicode="&#xac;" horiz-adv-x="542" 
d="M462 393v-163.999c-10 -3.33301 -19.333 -5 -28 -5c-8 0 -17.667 1.66699 -29 5v103h-340c-4 11.333 -6 21.666 -6 30.999c0 10 2 20 6 30h397z" />
    <glyph glyph-name="uni00AD" unicode="&#xad;" horiz-adv-x="399" 
d="M357 291v-66h-315v66h315z" />
    <glyph glyph-name="registered" unicode="&#xae;" horiz-adv-x="813" 
d="M586.5 660.5c55 -32.333 98.5 -76 130.5 -131s48 -114.833 48 -179.5c0 -66 -16 -126.667 -48 -182s-75.5 -99.166 -130.5 -131.499s-114.833 -48.5 -179.5 -48.5c-65.333 0 -125.5 16.167 -180.5 48.5s-98.5 76.166 -130.5 131.499s-48 116 -48 182
c0 65.333 16 125.5 48 180.5s75.5 98.5 130.5 130.5s115.167 48 180.5 48c64.667 0 124.5 -16.167 179.5 -48.5zM563 74.5c48 28.333 86 66.833 114 115.5s42 102 42 160c0 57.333 -14 110 -42 158s-66 86.167 -114 114.5s-100.333 42.5 -157 42.5
s-108.834 -14.167 -156.501 -42.5s-85.5 -66.5 -113.5 -114.5s-42 -100.667 -42 -158c0 -58 14 -111.333 42 -160s65.833 -87.167 113.5 -115.5s99.834 -42.5 156.501 -42.5s109 14.167 157 42.5zM603 190c2.66699 -7.33301 4.00098 -14.3311 4.00098 -20.998
c0 -12.667 -5 -23 -15 -31s-22 -12 -36 -12c-19.333 0 -34.833 7 -46.5 21s-23.5 34.667 -35.5 62l-25 56c-9.33301 21.333 -19.333 36.5 -30 45.5s-26.667 13.5 -48 13.5h-37v-109c0 -32 3.66699 -56.333 11 -73c-13.333 -11.333 -28.333 -17 -45 -17
c-12 0 -21.833 3.5 -29.5 10.5s-11.5 16.5 -11.5 28.5v317c0 32.667 -3.66699 58 -11 76c24 11.333 62 17 114 17c66.667 0 116 -9 148 -27s48 -47.333 48 -88c0 -29.333 -9.16699 -54.333 -27.5 -75s-43.5 -35 -75.5 -43c14.667 -4 26.667 -10.5 36 -19.5
s18 -20.833 26 -35.5l31 -62c8 -14.667 14.5 -24.834 19.5 -30.501s10.5 -8.83398 16.5 -9.50098c7.33301 0 13.666 2 18.999 6zM351.001 352.502c8 -0.333008 15.334 -0.166016 22.001 0.500977c31.333 1.33301 56.666 11.166 75.999 29.499s29 41.833 29 70.5
c0 60 -37.333 91 -112 93c-18 0 -28.667 -0.333008 -32 -1v-192c3.33301 0 9 -0.166992 17 -0.5z" />
    <glyph glyph-name="macron" unicode="&#xaf;" horiz-adv-x="600" 
d="M410 653c2.66699 -12 4 -20.667 4 -26c0 -6 -1.33301 -15 -4 -27h-272c-2.66699 8 -4 17 -4 27c0 9.33301 1.33301 18 4 26h272z" />
    <glyph glyph-name="degree" unicode="&#xb0;" horiz-adv-x="374" 
d="M121.5 474c-20.333 11.333 -36.333 26.833 -48 46.5s-17.5 40.834 -17.5 63.501s6 43.5 18 62.5s28 34.167 48 45.5s42 17 66 17c23.333 0 45 -5.66699 65 -17s35.833 -26.5 47.5 -45.5s17.5 -39.833 17.5 -62.5s-5.83301 -43.834 -17.5 -63.501
s-27.5 -35.167 -47.5 -46.5s-41.667 -17 -65 -17c-24 0 -46.167 5.66699 -66.5 17zM236 532c13.333 14 20.0039 31.333 20.0039 52c0 19.333 -6.83301 36 -20.5 50s-29.834 21 -48.501 21s-34.834 -7 -48.501 -21s-20.5 -30.667 -20.5 -50c0 -20.667 6.66699 -38 20 -52
s29.666 -21 48.999 -21s35.666 7 48.999 21z" />
    <glyph glyph-name="plusminus" unicode="&#xb1;" horiz-adv-x="577" 
d="M90 351c-4 10 -5.99902 20.333 -5.99902 31c0 10 2 20 6 30h167v118c9.33301 3.33301 19.666 5 30.999 5c12.667 0 23 -1.66699 31 -5v-118h168c4 -10 6 -20 6 -30c0 -10.667 -2 -21 -6 -31h-168v-119c-11.333 -3.33301 -21.333 -5 -30 -5c-10.667 0 -21 2 -31 6v118
h-168zM487.001 179c4 -10 6 -20 6 -30c0 -9.33301 -2 -19.666 -6 -30.999h-397c-4 11.333 -6 21.666 -6 30.999c0 10 2 20 6 30h397z" />
    <glyph glyph-name="uni00B2" unicode="&#xb2;" horiz-adv-x="408" 
d="M30 267c0 6.66699 0.668945 11.9971 2.00195 15.9971c40.667 28.667 75.667 54.834 105 78.501s58.666 56.334 87.999 98.001s44 86.167 44 133.5c0 23.333 -6.33301 43.333 -19 60s-31.667 25 -57 25c-51.333 0 -78.666 -42.333 -81.999 -127
c-26.667 0 -45.667 6.5 -57 19.5s-17 27.5 -17 43.5c0 26.667 15 49.167 45 67.5s69.333 27.5 118 27.5c49.333 0 89.333 -10.5 120 -31.5s46 -52.167 46 -93.5c0 -48.667 -16.833 -94.834 -50.5 -138.501s-72.334 -80.334 -116.001 -110.001
s-78.834 -48.167 -105.501 -55.5c38 1.33301 87.5 7.83301 148.5 19.5s103.167 23.834 126.5 36.501c5.33301 -4.66699 9.5 -12 12.5 -22s4.5 -21 4.5 -33c0 -13.333 -1.83301 -24.666 -5.5 -33.999s-9.16699 -14.333 -16.5 -15h-321
c-8.66699 8.66699 -13 20.334 -13 35.001z" />
    <glyph glyph-name="uni00B3" unicode="&#xb3;" horiz-adv-x="419" 
d="M94.5 237.5c-25 9 -42.168 19.3291 -51.501 30.9961s-14 22.834 -14 33.501c0 13.333 4.66699 25.5 14 36.5s26.333 16.5 51 16.5c2.66699 -26.667 10.334 -50 23.001 -70s37.667 -30 75 -30c29.333 0 52.833 8.83301 70.5 26.5s26.5 41.167 26.5 70.5
c0 38 -15.833 65.667 -47.5 83s-71.5 26 -119.5 26v33c50 2.66699 87.333 14.834 112 36.501s37 46.167 37 73.5c0 49.333 -23.667 74 -71 74c-30 0 -51 -9.5 -63 -28.5s-18.333 -42.5 -19 -70.5c-26 -0.666992 -43.5 3.83301 -52.5 13.5s-13.5 19.834 -13.5 30.501
c0 25.333 13.333 46 40 62s64.667 24 114 24c44 0 82.333 -8.33301 115 -25s49 -45.667 49 -87c0 -27.333 -11.333 -51.5 -34 -72.5s-52 -36.167 -88 -45.5c94.667 -15.333 142 -54.666 142 -117.999c0 -42 -17.5 -75.333 -52.5 -100s-81.5 -37 -139.5 -37
c-44 0 -78.5 4.5 -103.5 13.5z" />
    <glyph glyph-name="uni00B5" unicode="&#xb5;" horiz-adv-x="582" 
d="M562 47c0 -18 -6.33496 -32.333 -19.002 -43s-30 -16 -52 -16c-29.333 0 -51.833 9.66699 -67.5 29s-23.5 48.333 -23.5 87v3c-13.333 -38.667 -34.166 -68.5 -62.499 -89.5s-62.833 -31.5 -103.5 -31.5c-22 0 -42.667 2.66699 -62 8v-37
c2.66699 -66 13 -116.667 31 -152c-18 -16 -39 -24 -63 -24c-18.667 0 -34 5.16699 -46 15.5s-18 24.166 -18 41.499l1 385l-1 159c0 51.333 -5.33301 91.333 -16 120c18.667 16 39.667 24 63 24c18.667 0 33.834 -5.16699 45.501 -15.5s17.5 -24.5 17.5 -42.5v-261
c0 -60 6 -102.833 18 -128.5s33.667 -38.5 65 -38.5c21.333 0 41 8.5 59 25.5s32.5 43.167 43.5 78.5s16.5 79 16.5 131c0 78.667 -1 130.834 -3 156.501s-7.33301 49.5 -16 71.5c19.333 15.333 40.333 23 63 23c18.667 0 33.834 -5.66699 45.501 -17
s17.5 -26.666 17.5 -45.999l1 -341c0 -18.667 2.16699 -31.834 6.5 -39.501s11.166 -11.5 20.499 -11.5c12 0 20.667 4.33301 26 13c8.66699 -12.667 13 -25 13 -37z" />
    <glyph glyph-name="paragraph" unicode="&#xb6;" horiz-adv-x="759" 
d="M670 -123c7.33301 -26.667 17.002 -41.335 29.002 -44.002c-4 -8.66699 -13.167 -15.5 -27.5 -20.5s-29.833 -7.5 -46.5 -7.5c-18.667 0 -35.834 9 -51.501 27s-23.5 41.333 -23.5 70v514c0 78 -17.333 138.667 -52 182s-84.667 65 -150 65
c-66.667 0 -114.834 -19.167 -144.501 -57.5s-44.5 -83.5 -44.5 -135.5c0 -57.333 14.167 -100.5 42.5 -129.5s64.5 -41.833 108.5 -38.5v107c0 48.667 -5.33301 88.334 -16 119.001c18.667 16.667 39 25 61 25c16.667 0 30.334 -5.33301 41.001 -16s16 -25 16 -43v-363
c0 -50 5.33301 -89.667 16 -119c-5.33301 -6 -12.833 -11.667 -22.5 -17s-20.834 -8 -33.501 -8c-18 0 -32.667 5.16699 -44 15.5s-17 24.5 -17 42.5l-1 210c-13.333 -1.33301 -23.666 -2 -30.999 -2c-40.667 0 -78.334 8.33301 -113.001 25s-62.667 41.334 -84 74.001
s-32 71.667 -32 117c0 62 21 117.5 63 166.5s120.333 73.5 235 73.5c99.333 0 176 -24.5 230 -73.5s81 -120.5 81 -214.5v-450c0 -36 3.66699 -67.333 11 -94z" />
    <glyph glyph-name="periodcentered" unicode="&#xb7;" horiz-adv-x="292" 
d="M99 237.5c-12.667 13 -19 28.833 -19 47.5c0 18 6.33301 33.5 19 46.5s28.334 19.5 47.001 19.5s34.334 -6.5 47.001 -19.5s19 -28.5 19 -46.5c0 -18.667 -6.33301 -34.5 -19 -47.5s-28.334 -19.5 -47.001 -19.5s-34.334 6.5 -47.001 19.5z" />
    <glyph glyph-name="cedilla" unicode="&#xb8;" horiz-adv-x="600" 
d="M295 -53c32 0.666992 57.3311 -5.66699 75.998 -19s28 -31.666 28 -54.999c0 -26.667 -10.333 -48.334 -31 -65.001s-48.667 -25 -84 -25c-43.333 0 -74.666 11 -93.999 33c-1.33301 6 -0.5 13.333 2.5 22s6.16699 14 9.5 16
c8.66699 -7.33301 16.834 -13.166 24.501 -17.499s19.167 -6.5 34.5 -6.5c14 0 25 3.83301 33 11.5s12 18.167 12 31.5s-4.33301 24.166 -13 32.499s-22 12.5 -40 12.5l-13 -1l19 96h48z" />
    <glyph glyph-name="uni00B9" unicode="&#xb9;" horiz-adv-x="340" 
d="M185.5 239c-9 8.66699 -13.501 20.667 -13.501 36v324c0 12.667 -0.666992 22.334 -2 29.001c-18.667 -19.333 -37.667 -36.833 -57 -52.5s-34.333 -23.5 -45 -23.5c-24.667 0 -37 20 -37 60c4 1.33301 32.333 19.333 85 54l55 35c10.667 5.33301 22.334 8 35.001 8
c15.333 0 27.833 -4.5 37.5 -13.5s14.5 -21.167 14.5 -36.5v-323c0 -34.667 4.33301 -64.334 13 -89.001c-14 -14 -31 -21 -51 -21c-14 0 -25.5 4.33301 -34.5 13z" />
    <glyph glyph-name="ordmasculine" unicode="&#xba;" horiz-adv-x="393" 
d="M71.5 406.5c-29.667 31.667 -44.5 75.5 -44.5 131.5s14.833 99.833 44.5 131.5s71.167 47.5 124.5 47.5c52.667 0 94 -15.833 124 -47.5s45 -75.5 45 -131.5s-15 -99.833 -45 -131.5s-71.333 -47.5 -124 -47.5c-53.333 0 -94.833 15.833 -124.5 47.5zM277 538
c0 98.667 -26.667 148 -80 148c-54 0 -81 -49.333 -81 -148s27 -148 81 -148c53.333 0 80 49.333 80 148z" />
    <glyph glyph-name="guillemotright" unicode="&#xbb;" horiz-adv-x="709" 
d="M337 483l347 -211c2 -4.66699 3 -16.334 3 -35.001c0 -15.333 -1 -25.666 -3 -30.999l-346 -198l-30 41l269 189v5l-270 197zM76 483l347 -211c2 -4.66699 3 -16.334 3 -35.001c0 -15.333 -1 -25.666 -3 -30.999l-346 -198l-30 41l269 189v5l-270 197z" />
    <glyph glyph-name="onequarter" unicode="&#xbc;" horiz-adv-x="949" 
d="M185.5 239c-9 8.66699 -13.501 20.667 -13.501 36v324c0 12.667 -0.666992 22.334 -2 29.001c-18.667 -19.333 -37.667 -36.833 -57 -52.5s-34.333 -23.5 -45 -23.5c-24.667 0 -37 20 -37 60c4 1.33301 32.333 19.333 85 54l55 35c10.667 5.33301 22.334 8 35.001 8
c15.333 0 27.833 -4.5 37.5 -13.5s14.5 -21.167 14.5 -36.5v-323c0 -34.667 4.33301 -64.334 13 -89.001c-14 -14 -31 -21 -51 -21c-14 0 -25.5 4.33301 -34.5 13zM596.999 710c24 0 41.666 -8.33301 52.999 -25l-355 -698c-3.33301 -0.666992 -7.66602 -1 -12.999 -1
c-20 0 -36.333 7 -49 21l351 702c2.66699 0.666992 7 1 13 1zM933.998 150c0 -14 -3.99902 -27.667 -11.999 -41h-61v-8c0 -34.667 4 -64.667 12 -90c-5.33301 -5.33301 -12.333 -10.166 -21 -14.499s-18.334 -6.5 -29.001 -6.5c-14 0 -25.5 4.5 -34.5 13.5
s-13.5 21.167 -13.5 36.5v69h-217c-8.66699 1.33301 -15.5 5.16602 -20.5 11.499s-7.5 13.833 -7.5 22.5c0 6.66699 2 13 6 19l223 289c4 6 10.833 11.167 20.5 15.5s19.5 6.5 29.5 6.5c14.667 0 26.834 -4.33301 36.501 -13s14.5 -20.667 14.5 -36l1 -259
c23.333 2 45.666 6 66.999 12c4 -8.66699 6 -17.667 6 -27zM774.999 163l-1 232l-182 -232h183z" />
    <glyph glyph-name="onehalf" unicode="&#xbd;" horiz-adv-x="988" 
d="M185.5 239c-9 8.66699 -13.501 20.667 -13.501 36v324c0 12.667 -0.666992 22.334 -2 29.001c-18.667 -19.333 -37.667 -36.833 -57 -52.5s-34.333 -23.5 -45 -23.5c-24.667 0 -37 20 -37 60c4 1.33301 32.333 19.333 85 54l55 35c10.667 5.33301 22.334 8 35.001 8
c15.333 0 27.833 -4.5 37.5 -13.5s14.5 -21.167 14.5 -36.5v-323c0 -34.667 4.33301 -64.334 13 -89.001c-14 -14 -31 -21 -51 -21c-14 0 -25.5 4.33301 -34.5 13zM607.999 710c24 0 41.666 -8.33301 52.999 -25l-355 -698c-3.33301 -0.666992 -7.66602 -1 -12.999 -1
c-20 0 -36.333 7 -49 21l351 702c2.66699 0.666992 7 1 13 1zM603.998 35c0 7.33301 0.666992 12.998 2 16.998c38.667 26 73.167 51.333 103.5 76s60.166 57.834 89.499 99.501s44 86.167 44 133.5c0 23.333 -6.33301 43.333 -19 60s-31.667 25 -57 25
c-51.333 0 -78.666 -42 -81.999 -126c-26.667 0 -45.5 6.33301 -56.5 19s-16.5 27 -16.5 43c0 26.667 14.833 49.167 44.5 67.5s68.834 27.5 117.501 27.5c49.333 0 89.333 -10.5 120 -31.5s46 -52.167 46 -93.5c0 -48.667 -16.833 -94.834 -50.5 -138.501
s-72.334 -80.334 -116.001 -110.001s-78.834 -48.167 -105.501 -55.5c38.667 1.33301 88.334 7.83301 149.001 19.5s102.667 23.834 126 36.501c5.33301 -4.66699 9.5 -12 12.5 -22s4.5 -21 4.5 -33c0 -13.333 -1.83301 -24.666 -5.5 -33.999s-9.16699 -14.333 -16.5 -15
h-321c-8.66699 8.66699 -13 20.334 -13 35.001z" />
    <glyph glyph-name="threequarters" unicode="&#xbe;" horiz-adv-x="1025" 
d="M94.5 237.5c-25 9 -42.168 19.3291 -51.501 30.9961s-14 22.834 -14 33.501c0 13.333 4.66699 25.5 14 36.5s26.333 16.5 51 16.5c2.66699 -26.667 10.334 -50 23.001 -70s37.667 -30 75 -30c29.333 0 52.833 8.83301 70.5 26.5s26.5 41.167 26.5 70.5
c0 38 -15.833 65.667 -47.5 83s-71.5 26 -119.5 26v33c50 2.66699 87.333 14.834 112 36.501s37 46.167 37 73.5c0 49.333 -23.667 74 -71 74c-30 0 -51 -9.5 -63 -28.5s-18.333 -42.5 -19 -70.5c-26 -0.666992 -43.5 3.83301 -52.5 13.5s-13.5 19.834 -13.5 30.501
c0 25.333 13.333 46 40 62s64.667 24 114 24c44 0 82.333 -8.33301 115 -25s49 -45.667 49 -87c0 -27.333 -11.333 -51.5 -34 -72.5s-52 -36.167 -88 -45.5c94.667 -15.333 142 -54.666 142 -117.999c0 -42 -17.5 -75.333 -52.5 -100s-81.5 -37 -139.5 -37
c-44 0 -78.5 4.5 -103.5 13.5zM675.999 709.996c24 0 41.666 -8.33301 52.999 -25l-355 -698c-3.33301 -0.666992 -7.66602 -1 -12.999 -1c-20 0 -36.333 7 -49 21l351 702c2.66699 0.666992 7 1 13 1zM1013 149.996c0 -14 -3.99902 -27.667 -11.999 -41h-61v-8
c0 -34.667 4 -64.667 12 -90c-5.33301 -5.33301 -12.333 -10.166 -21 -14.499s-18.334 -6.5 -29.001 -6.5c-14 0 -25.5 4.5 -34.5 13.5s-13.5 21.167 -13.5 36.5v69h-217c-8.66699 1.33301 -15.5 5.16602 -20.5 11.499s-7.5 13.833 -7.5 22.5c0 6.66699 2 13 6 19l223 289
c4 6 10.833 11.167 20.5 15.5s19.5 6.5 29.5 6.5c14.667 0 26.834 -4.33301 36.501 -13s14.5 -20.667 14.5 -36l1 -259c23.333 2 45.666 6 66.999 12c4 -8.66699 6 -17.667 6 -27zM853.999 162.996l-1 232l-182 -232h183z" />
    <glyph glyph-name="questiondown" unicode="&#xbf;" horiz-adv-x="497" 
d="M362 513c12.667 -12.667 19 -28 19 -46c0 -18.667 -6.33301 -34.5 -19 -47.5s-28.334 -19.5 -47.001 -19.5s-34.334 6.5 -47.001 19.5s-19 28.833 -19 47.5c0 18 6.33301 33.333 19 46s28.334 19 47.001 19s34.334 -6.33301 47.001 -19zM345 172
c-33.333 -1.33301 -64.501 -9.00293 -93.501 -23.0029s-52.5 -34.833 -70.5 -62.5s-27 -61.167 -27 -100.5c0 -45.333 11.5 -82.833 34.5 -112.5s56.833 -44.5 101.5 -44.5c43.333 0 73.833 14.833 91.5 44.5s27.167 64.5 28.5 104.5c33.333 0 56.5 -5.33301 69.5 -16
s19.5 -25 19.5 -43c0 -23.333 -8.83301 -45.166 -26.5 -65.499s-43 -36.666 -76 -48.999s-71.5 -18.5 -115.5 -18.5c-72 0 -130.667 16.5 -176 49.5s-68 84.5 -68 154.5c0 46.667 11.167 86.667 33.5 120s50.833 58.833 85.5 76.5s70.334 27.834 107.001 30.501v111h82v-156
z" />
    <glyph glyph-name="Agrave" unicode="&#xc0;" horiz-adv-x="611" 
d="M605 13c-15.333 -16.667 -37.001 -25 -65.001 -25c-18 0 -33 3.66699 -45 11s-19.667 18 -23 32l-51 180h-241l-40 -144c-4 -17.333 -6 -30.666 -6 -39.999c0 -12 2.66699 -21.333 8 -28c-19.333 -7.33301 -39.333 -11 -60 -11c-21.333 0 -37 3.5 -47 10.5
s-15 18.5 -15 34.5c0 16.667 4 37 12 61l202 599c30 11.333 61 17 93 17c34.667 0 55.334 -12.667 62.001 -38l187 -603c8 -24.667 17.667 -43.334 29 -56.001zM402.999 273l-105 368l-101 -368h206zM184.999 864.5c13.333 14.333 25.668 23.835 37.001 28.502l140 -124
c0.666992 -2.66699 -1.33301 -7.33398 -6 -14.001s-9 -11 -13 -13l-186 81c5.33301 13.333 14.666 27.166 27.999 41.499z" />
    <glyph glyph-name="Aacute" unicode="&#xc1;" horiz-adv-x="611" 
d="M605 13c-15.333 -16.667 -37.001 -25 -65.001 -25c-18 0 -33 3.66699 -45 11s-19.667 18 -23 32l-51 180h-241l-40 -144c-4 -17.333 -6 -30.666 -6 -39.999c0 -12 2.66699 -21.333 8 -28c-19.333 -7.33301 -39.333 -11 -60 -11c-21.333 0 -37 3.5 -47 10.5
s-15 18.5 -15 34.5c0 16.667 4 37 12 61l202 599c30 11.333 61 17 93 17c34.667 0 55.334 -12.667 62.001 -38l187 -603c8 -24.667 17.667 -43.334 29 -56.001zM402.999 273l-105 368l-101 -368h206zM272.999 742c-4 2 -8.16895 6.33398 -12.502 13.001
s-6.16602 11.334 -5.49902 14.001l140 124c11.333 -4.66699 23.833 -14.334 37.5 -29.001s22.834 -28.334 27.501 -41.001z" />
    <glyph glyph-name="Acircumflex" unicode="&#xc2;" horiz-adv-x="611" 
d="M605 13c-15.333 -16.667 -37.001 -25 -65.001 -25c-18 0 -33 3.66699 -45 11s-19.667 18 -23 32l-51 180h-241l-40 -144c-4 -17.333 -6 -30.666 -6 -39.999c0 -12 2.66699 -21.333 8 -28c-19.333 -7.33301 -39.333 -11 -60 -11c-21.333 0 -37 3.5 -47 10.5
s-15 18.5 -15 34.5c0 16.667 4 37 12 61l202 599c30 11.333 61 17 93 17c34.667 0 55.334 -12.667 62.001 -38l187 -603c8 -24.667 17.667 -43.334 29 -56.001zM402.999 273l-105 368l-101 -368h206zM468.999 761c-0.666992 -3.33301 -3.5 -8 -8.5 -14
s-9.5 -9.66699 -13.5 -11l-140 78l-141 -78c-4 1.33301 -8.5 5 -13.5 11s-7.83301 10.667 -8.5 14l132 124c5.33301 2.66699 16 4 32 4c14 0 23.667 -1.33301 29 -4z" />
    <glyph glyph-name="Atilde" unicode="&#xc3;" horiz-adv-x="611" 
d="M605 13c-15.333 -16.667 -37.001 -25 -65.001 -25c-18 0 -33 3.66699 -45 11s-19.667 18 -23 32l-51 180h-241l-40 -144c-4 -17.333 -6 -30.666 -6 -39.999c0 -12 2.66699 -21.333 8 -28c-19.333 -7.33301 -39.333 -11 -60 -11c-21.333 0 -37 3.5 -47 10.5
s-15 18.5 -15 34.5c0 16.667 4 37 12 61l202 599c30 11.333 61 17 93 17c34.667 0 55.334 -12.667 62.001 -38l187 -603c8 -24.667 17.667 -43.334 29 -56.001zM402.999 273l-105 368l-101 -368h206zM431.499 783c-15 -17.333 -34.167 -26.001 -57.5 -26.001
c-11.333 0 -22.333 1.83301 -33 5.5s-22.667 9.16699 -36 16.5c-13.333 6.66699 -24.833 11.834 -34.5 15.501s-19.5 5.5 -29.5 5.5c-28.667 0 -48.667 -13.333 -60 -40l-5 -1c-7.33301 0 -15 3.33301 -23 10c4 34 14.5 58.5 31.5 73.5s37.833 22.5 62.5 22.5
c11.333 0 22.333 -1.83301 33 -5.5s22.667 -9.16699 36 -16.5c2 -1.33301 7.66699 -4 17 -8s18.166 -7.16699 26.499 -9.5s16.166 -3.5 23.499 -3.5c14.667 0 25.334 3 32.001 9s13.667 15.667 21 29c6.66699 0 11.834 -0.5 15.501 -1.5s7.16699 -3.16699 10.5 -6.5
c-5.33301 -28.667 -15.5 -51.667 -30.5 -69z" />
    <glyph glyph-name="Adieresis" unicode="&#xc4;" horiz-adv-x="611" 
d="M605 13c-15.333 -16.667 -37.001 -25 -65.001 -25c-18 0 -33 3.66699 -45 11s-19.667 18 -23 32l-51 180h-241l-40 -144c-4 -17.333 -6 -30.666 -6 -39.999c0 -12 2.66699 -21.333 8 -28c-19.333 -7.33301 -39.333 -11 -60 -11c-21.333 0 -37 3.5 -47 10.5
s-15 18.5 -15 34.5c0 16.667 4 37 12 61l202 599c30 11.333 61 17 93 17c34.667 0 55.334 -12.667 62.001 -38l187 -603c8 -24.667 17.667 -43.334 29 -56.001zM402.999 273l-105 368l-101 -368h206zM166.999 775c-12 12 -18 26.667 -18 44c0 16.667 6 31 18 43
s26.333 18 43 18s31 -6 43 -18s18 -26.333 18 -43s-6 -31.167 -18 -43.5s-26.333 -18.5 -43 -18.5s-31 6 -43 18zM366.999 775c-12 12 -18 26.667 -18 44c0 16.667 6 31 18 43s26.667 18 44 18c16.667 0 31 -6 43 -18s18 -26.333 18 -43s-6 -31.167 -18 -43.5
s-26.333 -18.5 -43 -18.5c-17.333 0 -32 6 -44 18z" />
    <glyph glyph-name="Aring" unicode="&#xc5;" horiz-adv-x="611" 
d="M605 13c-15.333 -16.667 -37.001 -25 -65.001 -25c-18 0 -33 3.66699 -45 11s-19.667 18 -23 32l-51 180h-241l-40 -144c-4 -17.333 -6 -30.666 -6 -39.999c0 -12 2.66699 -21.333 8 -28c-19.333 -7.33301 -39.333 -11 -60 -11c-21.333 0 -37 3.5 -47 10.5
s-15 18.5 -15 34.5c0 16.667 4 37 12 61l202 599c30 11.333 61 17 93 17c34.667 0 55.334 -12.667 62.001 -38l187 -603c8 -24.667 17.667 -43.334 29 -56.001zM402.999 273l-105 368l-101 -368h206zM381.999 891c17.333 -15.333 26.001 -35.666 26.001 -60.999
c-0.666992 -26.667 -9.83398 -47.834 -27.501 -63.501s-41.167 -23.5 -70.5 -23.5c-28 0 -50.667 7.66699 -68 23s-26 35.333 -26 60c0 26.667 9 48 27 64s41.667 24 71 24c28 0 50.667 -7.66699 68 -23zM281.5 867c-7 -9.33301 -10.5 -22.333 -10.5 -39
s3.5 -29.667 10.5 -39s17.167 -14 30.5 -14s23.5 4.5 30.5 13.5s10.5 22.167 10.5 39.5s-3.5 30.5 -10.5 39.5s-17.167 13.5 -30.5 13.5s-23.5 -4.66699 -30.5 -14z" />
    <glyph glyph-name="AE" unicode="&#xc6;" horiz-adv-x="856" 
d="M803 77.5c4 -10.333 6.00391 -21.167 6.00391 -32.5c0 -12.667 -2.5 -23.334 -7.5 -32.001s-11.833 -13 -20.5 -13h-317c-18.667 0 -33.834 5.16699 -45.501 15.5s-17.5 24.5 -17.5 42.5v153h-191l-67 -144c-4 -8.66699 -6 -22 -6 -40c0 -12 2.66699 -21.333 8 -28
c-19.333 -7.33301 -39 -11 -59 -11c-20.667 0 -36.834 4.66699 -48.501 14s-17.5 22 -17.5 38c0 15.333 5 33.333 15 54l308 584c17.333 4.66699 41.666 8.66699 72.999 12s58 5 80 5h281c6 0 10.667 -2.83301 14 -8.5s5 -13.167 5 -22.5c0 -13.333 -3 -26.666 -9 -39.999
s-13.333 -22 -22 -26c-81.333 26 -166 40 -254 42v-247h227c2.66699 -8.66699 4 -18.667 4 -30c0 -12.667 -1.33301 -23 -4 -31h-227v-277c43.333 0.666992 91.166 5.5 143.499 14.5s96.5 18.833 132.5 29.5c6.66699 -4 12 -11.167 16 -21.5zM401.004 272.999l-1 278
c0 25.333 -1.33301 45.333 -4 60l-157 -338h162z" />
    <glyph glyph-name="Ccedilla" unicode="&#xc7;" horiz-adv-x="608" 
d="M533.5 52c-21.667 -20 -50.3379 -35.668 -86.0049 -47.001s-73.5 -17.333 -113.5 -18l-7 -40c32 0.666992 57.333 -5.66602 76 -18.999s28 -31.666 28 -54.999c0 -26.667 -10.333 -48.334 -31 -65.001s-48.667 -25 -84 -25c-43.333 0 -74.666 11 -93.999 33
c-1.33301 6 -0.5 13.333 2.5 22s6.16699 14 9.5 16c8.66699 -7.33301 16.834 -13.166 24.501 -17.499s19.167 -6.5 34.5 -6.5c14 0 25 3.83301 33 11.5s12 18.167 12 31.5s-4.33301 24.166 -13 32.499s-22 12.5 -40 12.5l-13 -1l14 73
c-74 9.33301 -131.333 44.833 -172 106.5s-61 145.5 -61 251.5c0 114.667 24.833 203.5 74.5 266.5s118.834 94.5 207.501 94.5c36 0 70.333 -4.66699 103 -14s59.167 -22.333 79.5 -39s30.5 -36 30.5 -58c0 -18 -8 -33.167 -24 -45.5s-37.667 -18.166 -65 -17.499
c-10.667 88 -51.667 132 -123 132c-107.333 0 -161 -106.333 -161 -319s52.667 -319 158 -319c36.667 0 67.334 12.5 92.001 37.5s41 61.833 49 110.5c3.33301 0.666992 9 1 17 1c20.667 0 38.334 -4.83301 53.001 -14.5s22 -23.834 22 -42.501c0 -26 -10.833 -49 -32.5 -69
z" />
    <glyph glyph-name="Egrave" unicode="&#xc8;" horiz-adv-x="546" 
d="M492.5 78c3.66699 -10 5.50098 -20.999 5.50098 -32.999c0 -12.667 -2.33301 -23.334 -7 -32.001s-11.334 -13 -20.001 -13h-318c-18.667 0 -33.834 5.16699 -45.501 15.5s-17.5 24.5 -17.5 42.5l-1 493c0 49.333 -5.33301 88 -16 116
c12.667 11.333 25.834 18.833 39.501 22.5s33.167 5.5 58.5 5.5h296c12 0 18 -10 18 -30c0 -13.333 -2.83301 -26.833 -8.5 -40.5s-12.834 -22.5 -21.501 -26.5c-84.667 26 -169.667 40 -255 42v-247h228c2.66699 -8 4 -17.667 4 -29c0 -8 -1.33301 -18.667 -4 -32h-227
v-277c43.333 0.666992 91.333 5.5 144 14.5s96.667 18.833 132 29.5c6.66699 -4 11.834 -11 15.501 -21zM154.001 864.501c13.333 14.333 25.668 23.835 37.001 28.502l140 -124c0.666992 -2.66699 -1.33301 -7.33398 -6 -14.001s-9 -11 -13 -13l-186 81
c5.33301 13.333 14.666 27.166 27.999 41.499z" />
    <glyph glyph-name="Eacute" unicode="&#xc9;" horiz-adv-x="546" 
d="M492.5 78c3.66699 -10 5.50098 -20.999 5.50098 -32.999c0 -12.667 -2.33301 -23.334 -7 -32.001s-11.334 -13 -20.001 -13h-318c-18.667 0 -33.834 5.16699 -45.501 15.5s-17.5 24.5 -17.5 42.5l-1 493c0 49.333 -5.33301 88 -16 116
c12.667 11.333 25.834 18.833 39.501 22.5s33.167 5.5 58.5 5.5h296c12 0 18 -10 18 -30c0 -13.333 -2.83301 -26.833 -8.5 -40.5s-12.834 -22.5 -21.501 -26.5c-84.667 26 -169.667 40 -255 42v-247h228c2.66699 -8 4 -17.667 4 -29c0 -8 -1.33301 -18.667 -4 -32h-227
v-277c43.333 0.666992 91.333 5.5 144 14.5s96.667 18.833 132 29.5c6.66699 -4 11.834 -11 15.501 -21zM243.001 742.001c-4 2 -8.16895 6.33398 -12.502 13.001s-6.16602 11.334 -5.49902 14.001l140 124c11.333 -4.66699 23.833 -14.334 37.5 -29.001
s22.834 -28.334 27.501 -41.001z" />
    <glyph glyph-name="Ecircumflex" unicode="&#xca;" horiz-adv-x="546" 
d="M492.5 78c3.66699 -10 5.50098 -20.999 5.50098 -32.999c0 -12.667 -2.33301 -23.334 -7 -32.001s-11.334 -13 -20.001 -13h-318c-18.667 0 -33.834 5.16699 -45.501 15.5s-17.5 24.5 -17.5 42.5l-1 493c0 49.333 -5.33301 88 -16 116
c12.667 11.333 25.834 18.833 39.501 22.5s33.167 5.5 58.5 5.5h296c12 0 18 -10 18 -30c0 -13.333 -2.83301 -26.833 -8.5 -40.5s-12.834 -22.5 -21.501 -26.5c-84.667 26 -169.667 40 -255 42v-247h228c2.66699 -8 4 -17.667 4 -29c0 -8 -1.33301 -18.667 -4 -32h-227
v-277c43.333 0.666992 91.333 5.5 144 14.5s96.667 18.833 132 29.5c6.66699 -4 11.834 -11 15.501 -21zM438.001 761.001c-0.666992 -3.33301 -3.5 -8 -8.5 -14s-9.5 -9.66699 -13.5 -11l-140 78l-141 -78c-4 1.33301 -8.5 5 -13.5 11s-7.83301 10.667 -8.5 14l132 124
c5.33301 2.66699 16 4 32 4c14 0 23.667 -1.33301 29 -4z" />
    <glyph glyph-name="Edieresis" unicode="&#xcb;" horiz-adv-x="546" 
d="M492.5 78c3.66699 -10 5.50098 -20.999 5.50098 -32.999c0 -12.667 -2.33301 -23.334 -7 -32.001s-11.334 -13 -20.001 -13h-318c-18.667 0 -33.834 5.16699 -45.501 15.5s-17.5 24.5 -17.5 42.5l-1 493c0 49.333 -5.33301 88 -16 116
c12.667 11.333 25.834 18.833 39.501 22.5s33.167 5.5 58.5 5.5h296c12 0 18 -10 18 -30c0 -13.333 -2.83301 -26.833 -8.5 -40.5s-12.834 -22.5 -21.501 -26.5c-84.667 26 -169.667 40 -255 42v-247h228c2.66699 -8 4 -17.667 4 -29c0 -8 -1.33301 -18.667 -4 -32h-227
v-277c43.333 0.666992 91.333 5.5 144 14.5s96.667 18.833 132 29.5c6.66699 -4 11.834 -11 15.501 -21zM137.001 775.001c-12 12 -18 26.667 -18 44c0 16.667 6 31 18 43s26.333 18 43 18s31 -6 43 -18s18 -26.333 18 -43s-6 -31.167 -18 -43.5s-26.333 -18.5 -43 -18.5
s-31 6 -43 18zM337.001 775.001c-12 12 -18 26.667 -18 44c0 16.667 6 31 18 43s26.667 18 44 18c16.667 0 31 -6 43 -18s18 -26.333 18 -43s-6 -31.167 -18 -43.5s-26.333 -18.5 -43 -18.5c-17.333 0 -32 6 -44 18z" />
    <glyph glyph-name="Igrave" unicode="&#xcc;" horiz-adv-x="290" 
d="M107.5 2.5c-11.667 10.333 -17.499 24.499 -17.499 42.499l-1 519c0 50.667 -5.33301 90.334 -16 119.001c6.66699 6 15.5 11.5 26.5 16.5s23.5 7.5 37.5 7.5c18.667 0 34 -5.16699 46 -15.5s18 -24.5 18 -42.5v-518c0 -52 5.33301 -91.667 16 -119
c-18.667 -16.667 -40 -25 -64 -25c-18.667 0 -33.834 5.16699 -45.501 15.5zM9.00098 864.499c13.333 14.333 25.668 23.835 37.001 28.502l140 -124c0.666992 -2.66699 -1.33301 -7.33398 -6 -14.001s-9 -11 -13 -13l-186 81c5.33301 13.333 14.666 27.166 27.999 41.499z
" />
    <glyph glyph-name="Iacute" unicode="&#xcd;" horiz-adv-x="290" 
d="M107.5 2.5c-11.667 10.333 -17.499 24.499 -17.499 42.499l-1 519c0 50.667 -5.33301 90.334 -16 119.001c6.66699 6 15.5 11.5 26.5 16.5s23.5 7.5 37.5 7.5c18.667 0 34 -5.16699 46 -15.5s18 -24.5 18 -42.5v-518c0 -52 5.33301 -91.667 16 -119
c-18.667 -16.667 -40 -25 -64 -25c-18.667 0 -33.834 5.16699 -45.501 15.5zM98.001 741.999c-4 2 -8.16895 6.33398 -12.502 13.001s-6.16602 11.334 -5.49902 14.001l140 124c11.333 -4.66699 23.833 -14.334 37.5 -29.001s22.834 -28.334 27.501 -41.001z" />
    <glyph glyph-name="Icircumflex" unicode="&#xce;" horiz-adv-x="290" 
d="M107.5 2.5c-11.667 10.333 -17.499 24.499 -17.499 42.499l-1 519c0 50.667 -5.33301 90.334 -16 119.001c6.66699 6 15.5 11.5 26.5 16.5s23.5 7.5 37.5 7.5c18.667 0 34 -5.16699 46 -15.5s18 -24.5 18 -42.5v-518c0 -52 5.33301 -91.667 16 -119
c-18.667 -16.667 -40 -25 -64 -25c-18.667 0 -33.834 5.16699 -45.501 15.5zM293.001 760.999c-0.666992 -3.33301 -3.5 -8 -8.5 -14s-9.5 -9.66699 -13.5 -11l-140 78l-141 -78c-4 1.33301 -8.5 5 -13.5 11s-7.83301 10.667 -8.5 14l132 124c5.33301 2.66699 16 4 32 4
c14 0 23.667 -1.33301 29 -4z" />
    <glyph glyph-name="Idieresis" unicode="&#xcf;" horiz-adv-x="290" 
d="M107.5 2.5c-11.667 10.333 -17.499 24.499 -17.499 42.499l-1 519c0 50.667 -5.33301 90.334 -16 119.001c6.66699 6 15.5 11.5 26.5 16.5s23.5 7.5 37.5 7.5c18.667 0 34 -5.16699 46 -15.5s18 -24.5 18 -42.5v-518c0 -52 5.33301 -91.667 16 -119
c-18.667 -16.667 -40 -25 -64 -25c-18.667 0 -33.834 5.16699 -45.501 15.5zM-7.99902 774.999c-12 12 -18 26.667 -18 44c0 16.667 6 31 18 43s26.333 18 43 18s31 -6 43 -18s18 -26.333 18 -43s-6 -31.167 -18 -43.5s-26.333 -18.5 -43 -18.5s-31 6 -43 18z
M192.001 774.999c-12 12 -18 26.667 -18 44c0 16.667 6 31 18 43s26.667 18 44 18c16.667 0 31 -6 43 -18s18 -26.333 18 -43s-6 -31.167 -18 -43.5s-26.333 -18.5 -43 -18.5c-17.333 0 -32 6 -44 18z" />
    <glyph glyph-name="Eth" unicode="&#xd0;" horiz-adv-x="648" 
d="M515.5 617.5c52.333 -59 78.5 -146.498 78.5 -262.498c0 -236.667 -99.667 -355 -299 -355h-145c-19.333 0 -34.833 5.16699 -46.5 15.5s-17.5 24.166 -17.5 41.499l-1 270h-62c-2.66699 7.33301 -4 15 -4 23s1.33301 15 4 21h62v193v35.5c0 19.667 -1 38.167 -3 55.5
s-5 31.666 -9 42.999c41.333 5.33301 113.333 8 216 8c98.667 0 174.167 -29.5 226.5 -88.5zM427.5 113.502c29.667 47 44.499 125.166 44.499 234.499c0 108.667 -15 188.334 -45 239.001s-76 76 -138 76h-93v-292h137c2.66699 -6 4 -13 4 -21s-1.33301 -15.667 -4 -23
h-137v-284h93c62.667 0 108.834 23.5 138.501 70.5z" />
    <glyph glyph-name="Ntilde" unicode="&#xd1;" horiz-adv-x="694" 
d="M73 2c11.333 30.667 17.0029 73.668 17.0029 129.001l-1 431c0 52.667 -2 96 -6 130c4 4 10.833 7.33301 20.5 10s19.5 4 29.5 4c15.333 0 25 -2 29 -6l119 -165l174.5 -245c40.333 -58 70.166 -106 89.499 -144l-27 468c-1.33301 24.667 2 45.167 10 61.5
s20.333 25.833 37 28.5c16.667 2 32.334 -1 47.001 -9c-3.33301 -13.333 -5.33301 -29.833 -6 -49.5s-1 -37.167 -1 -52.5v-465c0 -25.333 0.333008 -48.666 1 -69.999s2 -40 4 -56c-3.33301 -4 -9.83301 -7.33301 -19.5 -10s-19.5 -4 -29.5 -4
c-10.667 0 -19.334 1.66699 -26.001 5c-88 103.333 -164 201.666 -228 294.999s-115.333 174.666 -154 243.999l23 -480c1.33301 -18.667 -3.83398 -34.167 -15.501 -46.5s-25.167 -18.5 -40.5 -18.5c-16.667 0 -32.334 5 -47.001 15zM468.503 783.001
c-15 -17.333 -34.167 -26.001 -57.5 -26.001c-11.333 0 -22.333 1.83301 -33 5.5s-22.667 9.16699 -36 16.5c-13.333 6.66699 -24.833 11.834 -34.5 15.501s-19.5 5.5 -29.5 5.5c-28.667 0 -48.667 -13.333 -60 -40l-5 -1c-7.33301 0 -15 3.33301 -23 10
c4 34 14.5 58.5 31.5 73.5s37.833 22.5 62.5 22.5c11.333 0 22.333 -1.83301 33 -5.5s22.667 -9.16699 36 -16.5c2 -1.33301 7.66699 -4 17 -8s18.166 -7.16699 26.499 -9.5s16.166 -3.5 23.499 -3.5c14.667 0 25.334 3 32.001 9s13.667 15.667 21 29
c6.66699 0 11.834 -0.5 15.501 -1.5s7.16699 -3.16699 10.5 -6.5c-5.33301 -28.667 -15.5 -51.667 -30.5 -69z" />
    <glyph glyph-name="Ograve" unicode="&#xd2;" horiz-adv-x="659" 
d="M123 77.5c-46.667 60.333 -70 150.5 -70 270.5s23.333 210.167 70 270.5s115.334 90.5 206.001 90.5s159.5 -30.167 206.5 -90.5s70.5 -150.5 70.5 -270.5s-23.5 -210.167 -70.5 -270.5s-115.833 -90.5 -206.5 -90.5s-159.334 30.167 -206.001 90.5zM446 105.5
c25.333 51 38 131.833 38 242.5c0 110 -12.667 190.667 -38 242s-64.333 77 -117 77c-52 0 -90.667 -25.667 -116 -77s-38 -132 -38 -242s12.667 -190.667 38 -242s64 -77 116 -77c52.667 0 91.667 25.5 117 76.5zM204 864.5c13.333 14.333 25.668 23.835 37.001 28.502
l140 -124c0.666992 -2.66699 -1.33301 -7.33398 -6 -14.001s-9 -11 -13 -13l-186 81c5.33301 13.333 14.666 27.166 27.999 41.499z" />
    <glyph glyph-name="Oacute" unicode="&#xd3;" horiz-adv-x="659" 
d="M123 77.5c-46.667 60.333 -70 150.5 -70 270.5s23.333 210.167 70 270.5s115.334 90.5 206.001 90.5s159.5 -30.167 206.5 -90.5s70.5 -150.5 70.5 -270.5s-23.5 -210.167 -70.5 -270.5s-115.833 -90.5 -206.5 -90.5s-159.334 30.167 -206.001 90.5zM446 105.5
c25.333 51 38 131.833 38 242.5c0 110 -12.667 190.667 -38 242s-64.333 77 -117 77c-52 0 -90.667 -25.667 -116 -77s-38 -132 -38 -242s12.667 -190.667 38 -242s64 -77 116 -77c52.667 0 91.667 25.5 117 76.5zM293 742c-4 2 -8.16895 6.33398 -12.502 13.001
s-6.16602 11.334 -5.49902 14.001l140 124c11.333 -4.66699 23.833 -14.334 37.5 -29.001s22.834 -28.334 27.501 -41.001z" />
    <glyph glyph-name="Ocircumflex" unicode="&#xd4;" horiz-adv-x="659" 
d="M123 77.5c-46.667 60.333 -70 150.5 -70 270.5s23.333 210.167 70 270.5s115.334 90.5 206.001 90.5s159.5 -30.167 206.5 -90.5s70.5 -150.5 70.5 -270.5s-23.5 -210.167 -70.5 -270.5s-115.833 -90.5 -206.5 -90.5s-159.334 30.167 -206.001 90.5zM446 105.5
c25.333 51 38 131.833 38 242.5c0 110 -12.667 190.667 -38 242s-64.333 77 -117 77c-52 0 -90.667 -25.667 -116 -77s-38 -132 -38 -242s12.667 -190.667 38 -242s64 -77 116 -77c52.667 0 91.667 25.5 117 76.5zM488 761c-0.666992 -3.33301 -3.5 -8 -8.5 -14
s-9.5 -9.66699 -13.5 -11l-140 78l-141 -78c-4 1.33301 -8.5 5 -13.5 11s-7.83301 10.667 -8.5 14l132 124c5.33301 2.66699 16 4 32 4c14 0 23.667 -1.33301 29 -4z" />
    <glyph glyph-name="Otilde" unicode="&#xd5;" horiz-adv-x="659" 
d="M123 77.5c-46.667 60.333 -70 150.5 -70 270.5s23.333 210.167 70 270.5s115.334 90.5 206.001 90.5s159.5 -30.167 206.5 -90.5s70.5 -150.5 70.5 -270.5s-23.5 -210.167 -70.5 -270.5s-115.833 -90.5 -206.5 -90.5s-159.334 30.167 -206.001 90.5zM446 105.5
c25.333 51 38 131.833 38 242.5c0 110 -12.667 190.667 -38 242s-64.333 77 -117 77c-52 0 -90.667 -25.667 -116 -77s-38 -132 -38 -242s12.667 -190.667 38 -242s64 -77 116 -77c52.667 0 91.667 25.5 117 76.5zM451.5 783c-15 -17.333 -34.167 -26.001 -57.5 -26.001
c-11.333 0 -22.333 1.83301 -33 5.5s-22.667 9.16699 -36 16.5c-13.333 6.66699 -24.833 11.834 -34.5 15.501s-19.5 5.5 -29.5 5.5c-28.667 0 -48.667 -13.333 -60 -40l-5 -1c-7.33301 0 -15 3.33301 -23 10c4 34 14.5 58.5 31.5 73.5s37.833 22.5 62.5 22.5
c11.333 0 22.333 -1.83301 33 -5.5s22.667 -9.16699 36 -16.5c2 -1.33301 7.66699 -4 17 -8s18.166 -7.16699 26.499 -9.5s16.166 -3.5 23.499 -3.5c14.667 0 25.334 3 32.001 9s13.667 15.667 21 29c6.66699 0 11.834 -0.5 15.501 -1.5s7.16699 -3.16699 10.5 -6.5
c-5.33301 -28.667 -15.5 -51.667 -30.5 -69z" />
    <glyph glyph-name="Odieresis" unicode="&#xd6;" horiz-adv-x="659" 
d="M123 77.5c-46.667 60.333 -70 150.5 -70 270.5s23.333 210.167 70 270.5s115.334 90.5 206.001 90.5s159.5 -30.167 206.5 -90.5s70.5 -150.5 70.5 -270.5s-23.5 -210.167 -70.5 -270.5s-115.833 -90.5 -206.5 -90.5s-159.334 30.167 -206.001 90.5zM446 105.5
c25.333 51 38 131.833 38 242.5c0 110 -12.667 190.667 -38 242s-64.333 77 -117 77c-52 0 -90.667 -25.667 -116 -77s-38 -132 -38 -242s12.667 -190.667 38 -242s64 -77 116 -77c52.667 0 91.667 25.5 117 76.5zM187 775c-12 12 -18 26.667 -18 44c0 16.667 6 31 18 43
s26.333 18 43 18s31 -6 43 -18s18 -26.333 18 -43s-6 -31.167 -18 -43.5s-26.333 -18.5 -43 -18.5s-31 6 -43 18zM387 775c-12 12 -18 26.667 -18 44c0 16.667 6 31 18 43s26.667 18 44 18c16.667 0 31 -6 43 -18s18 -26.333 18 -43s-6 -31.167 -18 -43.5
s-26.333 -18.5 -43 -18.5c-17.333 0 -32 6 -44 18z" />
    <glyph glyph-name="multiply" unicode="&#xd7;" horiz-adv-x="499" 
d="M292 348l133 -133.001c-7.33301 -19.333 -21.333 -33.666 -42 -42.999l-134 133l-133 -133c-20 9.33301 -34 23.666 -42 42.999l133 133l-134 133c10 20 24.667 34.333 44 43l133 -133l133 133c20.667 -9.33301 34.667 -23.666 42 -42.999z" />
    <glyph glyph-name="Oslash" unicode="&#xd8;" horiz-adv-x="650" 
d="M606 348c0 -120 -23.501 -210.167 -70.501 -270.5s-115.833 -90.5 -206.5 -90.5c-71.333 0 -129.333 18.667 -174 56l-34 -57c-17.333 0 -29.666 7 -36.999 21l41 68c-48 60 -72 151 -72 273c0 120 23.333 210.167 70 270.5s115.334 90.5 206.001 90.5
c59.333 0 109.333 -13 150 -39l31 53c17.333 1.33301 29.666 -6 36.999 -22l-34 -57c62 -60 93 -158.667 93 -296zM187.999 183l251 421c-25.333 42 -62 63 -110 63c-52 0 -90.667 -25.667 -116 -77s-38 -132 -38 -242c0 -67.333 4.33301 -122.333 13 -165zM445.999 105.5
c25.333 51 37.999 131.833 37.999 242.5c0 88 -8 157 -24 207l-256 -429c12.667 -33.333 29.334 -57.833 50.001 -73.5s45.667 -23.5 75 -23.5c52.667 0 91.667 25.5 117 76.5z" />
    <glyph glyph-name="Ugrave" unicode="&#xd9;" horiz-adv-x="667" 
d="M588 306c0 -106 -21.332 -185.668 -63.999 -239.001s-106.334 -80 -191.001 -80c-82.667 0 -144.667 25.833 -186 77.5s-62 132.167 -62 241.5v258c0 50.667 -5.33301 90.334 -16 119.001c6.66699 6 15.5 11.5 26.5 16.5s23.5 7.5 37.5 7.5c18 0 33 -5.16699 45 -15.5
s18 -24.5 18 -42.5v-348c0 -95.333 11 -164.5 33 -207.5s56.667 -64.5 104 -64.5c97.333 0 146 90.667 146 272v263c0 48 -5.33301 87.667 -16 119c6 6 14.5 11.5 25.5 16.5s23.5 7.5 37.5 7.5c18 0 32.833 -5.16699 44.5 -15.5s17.5 -24.5 17.5 -42.5v-343z
M209.001 864.499c13.333 14.333 25.668 23.835 37.001 28.502l140 -124c0.666992 -2.66699 -1.33301 -7.33398 -6 -14.001s-9 -11 -13 -13l-186 81c5.33301 13.333 14.666 27.166 27.999 41.499z" />
    <glyph glyph-name="Uacute" unicode="&#xda;" horiz-adv-x="667" 
d="M588 306c0 -106 -21.332 -185.668 -63.999 -239.001s-106.334 -80 -191.001 -80c-82.667 0 -144.667 25.833 -186 77.5s-62 132.167 -62 241.5v258c0 50.667 -5.33301 90.334 -16 119.001c6.66699 6 15.5 11.5 26.5 16.5s23.5 7.5 37.5 7.5c18 0 33 -5.16699 45 -15.5
s18 -24.5 18 -42.5v-348c0 -95.333 11 -164.5 33 -207.5s56.667 -64.5 104 -64.5c97.333 0 146 90.667 146 272v263c0 48 -5.33301 87.667 -16 119c6 6 14.5 11.5 25.5 16.5s23.5 7.5 37.5 7.5c18 0 32.833 -5.16699 44.5 -15.5s17.5 -24.5 17.5 -42.5v-343z
M297.001 741.999c-4 2 -8.16895 6.33398 -12.502 13.001s-6.16602 11.334 -5.49902 14.001l140 124c11.333 -4.66699 23.833 -14.334 37.5 -29.001s22.834 -28.334 27.501 -41.001z" />
    <glyph glyph-name="Ucircumflex" unicode="&#xdb;" horiz-adv-x="667" 
d="M588 306c0 -106 -21.332 -185.668 -63.999 -239.001s-106.334 -80 -191.001 -80c-82.667 0 -144.667 25.833 -186 77.5s-62 132.167 -62 241.5v258c0 50.667 -5.33301 90.334 -16 119.001c6.66699 6 15.5 11.5 26.5 16.5s23.5 7.5 37.5 7.5c18 0 33 -5.16699 45 -15.5
s18 -24.5 18 -42.5v-348c0 -95.333 11 -164.5 33 -207.5s56.667 -64.5 104 -64.5c97.333 0 146 90.667 146 272v263c0 48 -5.33301 87.667 -16 119c6 6 14.5 11.5 25.5 16.5s23.5 7.5 37.5 7.5c18 0 32.833 -5.16699 44.5 -15.5s17.5 -24.5 17.5 -42.5v-343z
M493.001 760.999c-0.666992 -3.33301 -3.5 -8 -8.5 -14s-9.5 -9.66699 -13.5 -11l-140 78l-141 -78c-4 1.33301 -8.5 5 -13.5 11s-7.83301 10.667 -8.5 14l132 124c5.33301 2.66699 16 4 32 4c14 0 23.667 -1.33301 29 -4z" />
    <glyph glyph-name="Udieresis" unicode="&#xdc;" horiz-adv-x="667" 
d="M588 306c0 -106 -21.332 -185.668 -63.999 -239.001s-106.334 -80 -191.001 -80c-82.667 0 -144.667 25.833 -186 77.5s-62 132.167 -62 241.5v258c0 50.667 -5.33301 90.334 -16 119.001c6.66699 6 15.5 11.5 26.5 16.5s23.5 7.5 37.5 7.5c18 0 33 -5.16699 45 -15.5
s18 -24.5 18 -42.5v-348c0 -95.333 11 -164.5 33 -207.5s56.667 -64.5 104 -64.5c97.333 0 146 90.667 146 272v263c0 48 -5.33301 87.667 -16 119c6 6 14.5 11.5 25.5 16.5s23.5 7.5 37.5 7.5c18 0 32.833 -5.16699 44.5 -15.5s17.5 -24.5 17.5 -42.5v-343z
M191.001 774.999c-12 12 -18 26.667 -18 44c0 16.667 6 31 18 43s26.333 18 43 18s31 -6 43 -18s18 -26.333 18 -43s-6 -31.167 -18 -43.5s-26.333 -18.5 -43 -18.5s-31 6 -43 18zM391.001 774.999c-12 12 -18 26.667 -18 44c0 16.667 6 31 18 43s26.667 18 44 18
c16.667 0 31 -6 43 -18s18 -26.333 18 -43s-6 -31.167 -18 -43.5s-26.333 -18.5 -43 -18.5c-17.333 0 -32 6 -44 18z" />
    <glyph glyph-name="Yacute" unicode="&#xdd;" horiz-adv-x="577" 
d="M344 257l-0.00292969 -126c0 -50 5.33301 -89.667 16 -119c-6 -6 -14.5 -11.667 -25.5 -17s-23.5 -8 -37.5 -8c-18.667 0 -33.834 5.16699 -45.501 15.5s-17.5 24.5 -17.5 42.5l-1 212c-3.33301 4.66699 -6.66602 10 -9.99902 16s-5.66602 10.333 -6.99902 13l-165 326
c-11.333 23.333 -25.666 43 -42.999 59c7.33301 8 18.166 15.833 32.499 23.5s29.833 11.5 46.5 11.5c20 0 35.5 -5 46.5 -15s21.167 -25.333 30.5 -46l145 -313l135 292c7.33301 14.667 11 28 11 40c0 10.667 -3.66699 21 -11 31c19.333 7.33301 40 11 62 11
c16.667 0 29.334 -4.66699 38.001 -14s13.334 -21 14.001 -35c0 -17.333 -8.66699 -40.333 -26 -69zM270.997 742c-4 2 -8.16895 6.33398 -12.502 13.001s-6.16602 11.334 -5.49902 14.001l140 124c11.333 -4.66699 23.833 -14.334 37.5 -29.001
s22.834 -28.334 27.501 -41.001z" />
    <glyph glyph-name="Thorn" unicode="&#xde;" horiz-adv-x="572" 
d="M458.5 529.5c49 -33 73.499 -85.168 73.499 -156.501c0 -74.667 -26.167 -131.667 -78.5 -171s-128.166 -59 -227.499 -59h-25v-12c0 -52 5.33301 -91.667 16 -119c-18.667 -16.667 -40 -25 -64 -25c-18.667 0 -33.834 5.16699 -45.501 15.5s-17.5 24.5 -17.5 42.5
l-1 519c0 50.667 -5.33301 90.334 -16 119.001c6.66699 6 15.5 11.5 26.5 16.5s23.5 7.5 37.5 7.5c18.667 0 33.834 -5.16699 45.501 -15.5s17.5 -24.5 17.5 -42.5v-70h37c98.667 0 172.5 -16.5 221.5 -49.5zM366.499 230.999c29.667 31.333 44.499 76.334 44.499 135.001
c0 55.333 -13.667 97.666 -41 126.999s-71.666 44 -132.999 44h-37l1 -353h23c65.333 0 112.833 15.667 142.5 47z" />
    <glyph glyph-name="germandbls" unicode="&#xdf;" horiz-adv-x="610" 
d="M91.5 6.5c-11.667 11 -17.499 26.498 -17.499 46.498l-1 361c-0.666992 212 81 318 245 318c60 0 105.667 -13.167 137 -39.5s47 -61.833 47 -106.5c0 -30 -6 -54.667 -18 -74s-29.333 -40.333 -52 -63c-16 -16.667 -27.333 -29.667 -34 -39s-10 -20 -10 -32
c0 -15.333 6 -28.666 18 -39.999s26 -22 42 -32l32 -20c32 -20.667 56.833 -41.5 74.5 -62.5s26.5 -48.5 26.5 -82.5c0 -42.667 -15.333 -78.834 -46 -108.501s-77.334 -44.5 -140.001 -44.5c-50 0 -87.5 10 -112.5 30s-37.5 47 -37.5 81
c0 14.667 3.16699 27.834 9.5 39.501s18.166 17.834 35.499 18.501c2 0.666992 5 1 9 1c4.66699 0 8 -0.333008 10 -1c-2.66699 -14.667 -4 -26.667 -4 -36c0 -26 7.16699 -46.167 21.5 -60.5s33.833 -21.5 58.5 -21.5c25.333 0 45.333 7.16699 60 21.5s22 33.166 22 56.499
c0 24.667 -6.66699 44 -20 58s-33 28.333 -59 43c-25.333 14.667 -45.166 27.334 -59.499 38.001s-26 23.667 -35 39s-13.5 33.666 -13.5 54.999c0 28.667 6.83301 52.167 20.5 70.5s34.167 39.166 61.5 62.499c24 19.333 42 36.833 54 52.5s18 34.5 18 56.5
c0 28.667 -10 52.334 -30 71.001s-48.333 28 -85 28c-40 0 -70 -11.667 -90 -35s-33 -53 -39 -89s-9 -80.667 -9 -134v-89c0 -97.333 0.333008 -164.666 1 -201.999s2.16699 -63.833 4.5 -79.5s6.83301 -31.834 13.5 -48.501c-6 -5.33301 -15 -10.666 -27 -15.999
s-24.667 -8 -38 -8c-17.333 0 -31.833 5.5 -43.5 16.5z" />
    <glyph glyph-name="agrave" unicode="&#xe0;" horiz-adv-x="559" 
d="M551 52c0 -17.333 -7.66309 -32.002 -22.9961 -44.002s-35 -18 -59 -18c-32.667 0 -57.334 11.167 -74.001 33.5s-25.334 58.5 -26.001 108.5c-20 -43.333 -47.333 -78 -82 -104s-74.334 -39 -119.001 -39c-38.667 0 -69.834 10.5 -93.501 31.5s-35.5 49.5 -35.5 85.5
c0 42 16 76.667 48 104s73 48 123 62s101 20.333 153 19v25c0 58 -8 100.667 -24 128s-42.667 41 -80 41c-25.333 0 -45.833 -6 -61.5 -18s-23.5 -31.667 -23.5 -59c0 -15.333 3 -29.666 9 -42.999s16 -23.333 30 -30c-6.66699 -7.33301 -15.5 -12.833 -26.5 -16.5
s-22.5 -5.5 -34.5 -5.5c-26.667 0 -48.167 8.83301 -64.5 26.5s-24.5 39.167 -24.5 64.5c0 39.333 18 69.5 54 90.5s85.667 31.5 149 31.5c72 0 124.833 -17.167 158.5 -51.5s50.5 -89.166 50.5 -164.499v-184c0 -35.333 11.333 -53 34 -53c5.33301 0 10.833 1.33301 16.5 4
s10.167 6.66699 13.5 12c8 -10.667 12 -23 12 -37zM285.504 88.498c23 17.667 42.167 41.1689 57.5 70.502s23 60.666 23 93.999c-23.333 1.33301 -47 0.166016 -71 -3.50098s-44.667 -9.5 -62 -17.5c-23.333 -10 -41.5 -23.5 -54.5 -40.5s-19.5 -36.833 -19.5 -59.5
c0 -20 4.83301 -36.667 14.5 -50s24.5 -20 44.5 -20c22 0 44.5 8.83301 67.5 26.5zM161.004 723.5c23.333 5.66699 41.667 7.83301 55 6.5l91 -155c-4.66699 -3.33301 -18.667 -6 -42 -8l-149 140c6.66699 5.33301 21.667 10.833 45 16.5z" />
    <glyph glyph-name="aacute" unicode="&#xe1;" horiz-adv-x="559" 
d="M551 52c0 -17.333 -7.66309 -32.002 -22.9961 -44.002s-35 -18 -59 -18c-32.667 0 -57.334 11.167 -74.001 33.5s-25.334 58.5 -26.001 108.5c-20 -43.333 -47.333 -78 -82 -104s-74.334 -39 -119.001 -39c-38.667 0 -69.834 10.5 -93.501 31.5s-35.5 49.5 -35.5 85.5
c0 42 16 76.667 48 104s73 48 123 62s101 20.333 153 19v25c0 58 -8 100.667 -24 128s-42.667 41 -80 41c-25.333 0 -45.833 -6 -61.5 -18s-23.5 -31.667 -23.5 -59c0 -15.333 3 -29.666 9 -42.999s16 -23.333 30 -30c-6.66699 -7.33301 -15.5 -12.833 -26.5 -16.5
s-22.5 -5.5 -34.5 -5.5c-26.667 0 -48.167 8.83301 -64.5 26.5s-24.5 39.167 -24.5 64.5c0 39.333 18 69.5 54 90.5s85.667 31.5 149 31.5c72 0 124.833 -17.167 158.5 -51.5s50.5 -89.166 50.5 -164.499v-184c0 -35.333 11.333 -53 34 -53c5.33301 0 10.833 1.33301 16.5 4
s10.167 6.66699 13.5 12c8 -10.667 12 -23 12 -37zM285.504 88.498c23 17.667 42.167 41.1689 57.5 70.502s23 60.666 23 93.999c-23.333 1.33301 -47 0.166016 -71 -3.50098s-44.667 -9.5 -62 -17.5c-23.333 -10 -41.5 -23.5 -54.5 -40.5s-19.5 -36.833 -19.5 -59.5
c0 -20 4.83301 -36.667 14.5 -50s24.5 -20 44.5 -20c22 0 44.5 8.83301 67.5 26.5zM275.004 567c-23.333 2 -37.333 4.66797 -42 8.00098l90 155c14 1.33301 32.667 -0.833984 56 -6.50098s38 -11.167 44 -16.5z" />
    <glyph glyph-name="acircumflex" unicode="&#xe2;" horiz-adv-x="559" 
d="M551 52c0 -17.333 -7.66309 -32.002 -22.9961 -44.002s-35 -18 -59 -18c-32.667 0 -57.334 11.167 -74.001 33.5s-25.334 58.5 -26.001 108.5c-20 -43.333 -47.333 -78 -82 -104s-74.334 -39 -119.001 -39c-38.667 0 -69.834 10.5 -93.501 31.5s-35.5 49.5 -35.5 85.5
c0 42 16 76.667 48 104s73 48 123 62s101 20.333 153 19v25c0 58 -8 100.667 -24 128s-42.667 41 -80 41c-25.333 0 -45.833 -6 -61.5 -18s-23.5 -31.667 -23.5 -59c0 -15.333 3 -29.666 9 -42.999s16 -23.333 30 -30c-6.66699 -7.33301 -15.5 -12.833 -26.5 -16.5
s-22.5 -5.5 -34.5 -5.5c-26.667 0 -48.167 8.83301 -64.5 26.5s-24.5 39.167 -24.5 64.5c0 39.333 18 69.5 54 90.5s85.667 31.5 149 31.5c72 0 124.833 -17.167 158.5 -51.5s50.5 -89.166 50.5 -164.499v-184c0 -35.333 11.333 -53 34 -53c5.33301 0 10.833 1.33301 16.5 4
s10.167 6.66699 13.5 12c8 -10.667 12 -23 12 -37zM285.504 88.498c23 17.667 42.167 41.1689 57.5 70.502s23 60.666 23 93.999c-23.333 1.33301 -47 0.166016 -71 -3.50098s-44.667 -9.5 -62 -17.5c-23.333 -10 -41.5 -23.5 -54.5 -40.5s-19.5 -36.833 -19.5 -59.5
c0 -20 4.83301 -36.667 14.5 -50s24.5 -20 44.5 -20c22 0 44.5 8.83301 67.5 26.5zM124.504 569.5c-9 3 -13.833 5.83301 -14.5 8.5l125 149c6 2 17 3 33 3c12.667 0 22 -1 28 -3l125 -149c-0.666992 -2.66699 -5.66699 -5.5 -15 -8.5s-16.333 -4.5 -21 -4.5l-119 84
l-121 -84c-4.66699 0 -11.5 1.5 -20.5 4.5z" />
    <glyph glyph-name="atilde" unicode="&#xe3;" horiz-adv-x="559" 
d="M551 52c0 -17.333 -7.66309 -32.002 -22.9961 -44.002s-35 -18 -59 -18c-32.667 0 -57.334 11.167 -74.001 33.5s-25.334 58.5 -26.001 108.5c-20 -43.333 -47.333 -78 -82 -104s-74.334 -39 -119.001 -39c-38.667 0 -69.834 10.5 -93.501 31.5s-35.5 49.5 -35.5 85.5
c0 42 16 76.667 48 104s73 48 123 62s101 20.333 153 19v25c0 58 -8 100.667 -24 128s-42.667 41 -80 41c-25.333 0 -45.833 -6 -61.5 -18s-23.5 -31.667 -23.5 -59c0 -15.333 3 -29.666 9 -42.999s16 -23.333 30 -30c-6.66699 -7.33301 -15.5 -12.833 -26.5 -16.5
s-22.5 -5.5 -34.5 -5.5c-26.667 0 -48.167 8.83301 -64.5 26.5s-24.5 39.167 -24.5 64.5c0 39.333 18 69.5 54 90.5s85.667 31.5 149 31.5c72 0 124.833 -17.167 158.5 -51.5s50.5 -89.166 50.5 -164.499v-184c0 -35.333 11.333 -53 34 -53c5.33301 0 10.833 1.33301 16.5 4
s10.167 6.66699 13.5 12c8 -10.667 12 -23 12 -37zM285.504 88.498c23 17.667 42.167 41.1689 57.5 70.502s23 60.666 23 93.999c-23.333 1.33301 -47 0.166016 -71 -3.50098s-44.667 -9.5 -62 -17.5c-23.333 -10 -41.5 -23.5 -54.5 -40.5s-19.5 -36.833 -19.5 -59.5
c0 -20 4.83301 -36.667 14.5 -50s24.5 -20 44.5 -20c22 0 44.5 8.83301 67.5 26.5zM385.504 605.5c-14.333 -17.667 -32.832 -26.499 -55.499 -26.499c-11.333 0 -22 2.16699 -32 6.5s-21 10.166 -33 17.499c-12.667 7.33301 -23.334 12.833 -32.001 16.5
s-17.667 5.5 -27 5.5c-28 0 -48.333 -13.667 -61 -41h-2c-7.33301 0 -15 3.33301 -23 10c3.33301 32.667 13.5 56.667 30.5 72s36.833 23 59.5 23c11.333 0 21.833 -2 31.5 -6s21.167 -10 34.5 -18c12 -7.33301 22.667 -13 32 -17s19.333 -6 30 -6c14 0 24.667 3.5 32 10.5
s13.666 17.5 18.999 31.5c6 0 10.833 -0.5 14.5 -1.5s6.83398 -3.16699 9.50098 -6.5c-4 -29.333 -13.167 -52.833 -27.5 -70.5z" />
    <glyph glyph-name="adieresis" unicode="&#xe4;" horiz-adv-x="559" 
d="M551 52c0 -17.333 -7.66309 -32.002 -22.9961 -44.002s-35 -18 -59 -18c-32.667 0 -57.334 11.167 -74.001 33.5s-25.334 58.5 -26.001 108.5c-20 -43.333 -47.333 -78 -82 -104s-74.334 -39 -119.001 -39c-38.667 0 -69.834 10.5 -93.501 31.5s-35.5 49.5 -35.5 85.5
c0 42 16 76.667 48 104s73 48 123 62s101 20.333 153 19v25c0 58 -8 100.667 -24 128s-42.667 41 -80 41c-25.333 0 -45.833 -6 -61.5 -18s-23.5 -31.667 -23.5 -59c0 -15.333 3 -29.666 9 -42.999s16 -23.333 30 -30c-6.66699 -7.33301 -15.5 -12.833 -26.5 -16.5
s-22.5 -5.5 -34.5 -5.5c-26.667 0 -48.167 8.83301 -64.5 26.5s-24.5 39.167 -24.5 64.5c0 39.333 18 69.5 54 90.5s85.667 31.5 149 31.5c72 0 124.833 -17.167 158.5 -51.5s50.5 -89.166 50.5 -164.499v-184c0 -35.333 11.333 -53 34 -53c5.33301 0 10.833 1.33301 16.5 4
s10.167 6.66699 13.5 12c8 -10.667 12 -23 12 -37zM285.504 88.498c23 17.667 42.167 41.1689 57.5 70.502s23 60.666 23 93.999c-23.333 1.33301 -47 0.166016 -71 -3.50098s-44.667 -9.5 -62 -17.5c-23.333 -10 -41.5 -23.5 -54.5 -40.5s-19.5 -36.833 -19.5 -59.5
c0 -20 4.83301 -36.667 14.5 -50s24.5 -20 44.5 -20c22 0 44.5 8.83301 67.5 26.5zM139.504 602c-11 10.667 -16.5 23.334 -16.5 38.001c0 15.333 5.5 28.333 16.5 39s24.167 16 39.5 16c14.667 0 27.334 -5.33301 38.001 -16s16 -23.667 16 -39
c0 -14.667 -5.33301 -27.334 -16 -38.001s-23.334 -16 -38.001 -16c-15.333 0 -28.5 5.33301 -39.5 16zM322.004 602c-10.667 10.667 -16 23.334 -16 38.001c0 15.333 5.33301 28.333 16 39s23.667 16 39 16s28.333 -5.33301 39 -16s16 -23.667 16 -39
c0 -14.667 -5.33301 -27.334 -16 -38.001s-23.667 -16 -39 -16s-28.333 5.33301 -39 16z" />
    <glyph glyph-name="aring" unicode="&#xe5;" horiz-adv-x="559" 
d="M551 52c0 -17.333 -7.66309 -32.002 -22.9961 -44.002s-35 -18 -59 -18c-32.667 0 -57.334 11.167 -74.001 33.5s-25.334 58.5 -26.001 108.5c-20 -43.333 -47.333 -78 -82 -104s-74.334 -39 -119.001 -39c-38.667 0 -69.834 10.5 -93.501 31.5s-35.5 49.5 -35.5 85.5
c0 42 16 76.667 48 104s73 48 123 62s101 20.333 153 19v25c0 58 -8 100.667 -24 128s-42.667 41 -80 41c-25.333 0 -45.833 -6 -61.5 -18s-23.5 -31.667 -23.5 -59c0 -15.333 3 -29.666 9 -42.999s16 -23.333 30 -30c-6.66699 -7.33301 -15.5 -12.833 -26.5 -16.5
s-22.5 -5.5 -34.5 -5.5c-26.667 0 -48.167 8.83301 -64.5 26.5s-24.5 39.167 -24.5 64.5c0 39.333 18 69.5 54 90.5s85.667 31.5 149 31.5c72 0 124.833 -17.167 158.5 -51.5s50.5 -89.166 50.5 -164.499v-184c0 -35.333 11.333 -53 34 -53c5.33301 0 10.833 1.33301 16.5 4
s10.167 6.66699 13.5 12c8 -10.667 12 -23 12 -37zM285.504 88.498c23 17.667 42.167 41.1689 57.5 70.502s23 60.666 23 93.999c-23.333 1.33301 -47 0.166016 -71 -3.50098s-44.667 -9.5 -62 -17.5c-23.333 -10 -41.5 -23.5 -54.5 -40.5s-19.5 -36.833 -19.5 -59.5
c0 -20 4.83301 -36.667 14.5 -50s24.5 -20 44.5 -20c22 0 44.5 8.83301 67.5 26.5zM341.004 707c17.333 -15.333 26.001 -35.666 26.001 -60.999c-0.666992 -26.667 -9.83398 -47.834 -27.501 -63.501s-41.167 -23.5 -70.5 -23.5c-28 0 -50.667 7.66699 -68 23
s-26 35.333 -26 60c0 26.667 9 48 27 64s41.667 24 71 24c28 0 50.667 -7.66699 68 -23zM240.505 683c-7 -9.33301 -10.5 -22.333 -10.5 -39s3.5 -29.667 10.5 -39s17.167 -14 30.5 -14s23.5 4.5 30.5 13.5s10.5 22.167 10.5 39.5s-3.5 30.5 -10.5 39.5
s-17.167 13.5 -30.5 13.5s-23.5 -4.66699 -30.5 -14z" />
    <glyph glyph-name="ae" unicode="&#xe6;" horiz-adv-x="850" 
d="M805 113c0 -8 -2.33398 -17.6689 -7.00098 -29.002c-12.667 -31.333 -35.334 -55.333 -68.001 -72s-71.667 -25 -117 -25c-58.667 0 -108 14.333 -148 43s-67.667 70 -83 124c-19.333 -49.333 -47.666 -89.166 -84.999 -119.499s-80.333 -45.5 -129 -45.5
c-38.667 0 -69.834 10.5 -93.501 31.5s-35.5 49.5 -35.5 85.5c0 42 16 76.667 48 104s73 48 123 62s102 20.333 156 19v25c0 58 -8 100.667 -24 128s-42.667 41 -80 41c-26.667 0 -48 -6 -64 -18s-24 -31.667 -24 -59c0 -15.333 3 -29.666 9 -42.999s16 -23.333 30 -30
c-6.66699 -7.33301 -15.5 -12.833 -26.5 -16.5s-22.5 -5.5 -34.5 -5.5c-26.667 0 -48.167 8.83301 -64.5 26.5s-24.5 39.167 -24.5 64.5c0 39.333 18.167 69.5 54.5 90.5s86.833 31.5 151.5 31.5c74.667 0 128.334 -25 161.001 -75c44 50 106 75 186 75
c58 0 105 -12.833 141 -38.5s54 -62.167 54 -109.5c0 -49.333 -19.833 -87.166 -59.5 -113.499s-93.5 -39.5 -161.5 -39.5c-38.667 0 -73 1.66699 -103 5c4.66699 -62 20.334 -106.333 47.001 -133s63 -40 109 -40c36 0 66.667 7.16699 92 21.5s43.333 34.166 54 59.499
c10.667 -4.66699 16 -13 16 -25zM519.499 429.498c-22.333 -37 -33.502 -89.501 -33.502 -157.501c17.333 -2 35 -3 53 -3c45.333 0 82.333 9 111 27s43 51 43 99c0 32.667 -7.66699 55.834 -23 69.501s-34.666 20.5 -57.999 20.5c-39.333 0 -70.166 -18.5 -92.499 -55.5z
M285.497 88.4971c23.667 17.667 43.499 41.1689 59.499 70.502s24 60.666 24 93.999c-24.667 1.33301 -49.167 0.166016 -73.5 -3.50098s-45.166 -9.5 -62.499 -17.5c-23.333 -10 -41.5 -23.5 -54.5 -40.5s-19.5 -36.833 -19.5 -59.5c0 -20 4.83301 -36.667 14.5 -50
s24.5 -20 44.5 -20c21.333 0 43.833 8.83301 67.5 26.5z" />
    <glyph glyph-name="ccedilla" unicode="&#xe7;" horiz-adv-x="509" 
d="M470 125c0 -8.66699 -1.33398 -18.001 -4.00098 -28.001c-10 -33.333 -29.833 -59.5 -59.5 -78.5s-66.167 -29.5 -109.5 -31.5l-7 -40c32 0.666992 57.333 -5.66602 76 -18.999s28 -31.666 28 -54.999c0 -26.667 -10.333 -48.334 -31 -65.001s-48.667 -25 -84 -25
c-43.333 0 -74.666 11 -93.999 33c-1.33301 6 -0.5 13.333 2.5 22s6.16699 14 9.5 16c8.66699 -7.33301 16.834 -13.166 24.501 -17.499s19.167 -6.5 34.5 -6.5c14 0 25 3.83301 33 11.5s12 18.167 12 31.5s-4.33301 24.166 -13 32.499s-22 12.5 -40 12.5l-13 -1l14 72
c-67.333 6 -119.166 32 -155.499 78s-54.5 109 -54.5 189c0 84 21.667 150 65 198s104.333 72 183 72c56.667 0 100.5 -11.833 131.5 -35.5s46.5 -54.167 46.5 -91.5c0 -25.333 -7.5 -45.666 -22.5 -60.999s-34.5 -23 -58.5 -23c-11.333 0 -22.5 1.83301 -33.5 5.5
s-19.5 9.16699 -25.5 16.5c20 13.333 30 37 30 71c0 26.667 -7 46.167 -21 58.5s-32.667 18.5 -56 18.5c-37.333 0 -67 -18.5 -89 -55.5s-33 -89.167 -33 -156.5c0 -74.667 14 -129.334 42 -164.001s66.667 -52 116 -52c35.333 0 65.666 8.66699 90.999 26
s41.666 41 48.999 71c10.667 -4 16 -13.667 16 -29z" />
    <glyph glyph-name="egrave" unicode="&#xe8;" horiz-adv-x="519" 
d="M475 113c0 -8 -2.33496 -17.6699 -7.00195 -29.0029c-12.667 -31.333 -35.167 -55.333 -67.5 -72s-71.166 -25 -116.499 -25c-76 0 -135.833 23.333 -179.5 70s-65.5 113 -65.5 199c0 84.667 21.333 150.834 64 198.501s103.667 71.5 183 71.5
c58 0 105 -12.833 141 -38.5s54 -62.167 54 -109.5c0 -49.333 -19.833 -87.166 -59.5 -113.499s-93.5 -39.5 -161.5 -39.5c-38.667 0 -73 1.66699 -103 5c4.66699 -62 20.334 -106.333 47.001 -133s63 -40 109 -40c36 0 66.833 7.33301 92.5 22s43.5 34.334 53.5 59.001
c10.667 -4.66699 16 -13 16 -25zM189.498 429.497c-22.333 -37 -33.502 -89.501 -33.502 -157.501c17.333 -2 35 -3 53 -3c45.333 0 82.333 9 111 27s43 51 43 99c0 32.667 -7.66699 55.834 -23 69.501s-34.666 20.5 -57.999 20.5c-39.333 0 -70.166 -18.5 -92.499 -55.5z
M162.996 723.496c23.333 5.66699 41.667 7.83301 55 6.5l91 -155c-4.66699 -3.33301 -18.667 -6 -42 -8l-149 140c6.66699 5.33301 21.667 10.833 45 16.5z" />
    <glyph glyph-name="eacute" unicode="&#xe9;" horiz-adv-x="519" 
d="M475 113c0 -8 -2.33496 -17.6699 -7.00195 -29.0029c-12.667 -31.333 -35.167 -55.333 -67.5 -72s-71.166 -25 -116.499 -25c-76 0 -135.833 23.333 -179.5 70s-65.5 113 -65.5 199c0 84.667 21.333 150.834 64 198.501s103.667 71.5 183 71.5
c58 0 105 -12.833 141 -38.5s54 -62.167 54 -109.5c0 -49.333 -19.833 -87.166 -59.5 -113.499s-93.5 -39.5 -161.5 -39.5c-38.667 0 -73 1.66699 -103 5c4.66699 -62 20.334 -106.333 47.001 -133s63 -40 109 -40c36 0 66.833 7.33301 92.5 22s43.5 34.334 53.5 59.001
c10.667 -4.66699 16 -13 16 -25zM189.498 429.497c-22.333 -37 -33.502 -89.501 -33.502 -157.501c17.333 -2 35 -3 53 -3c45.333 0 82.333 9 111 27s43 51 43 99c0 32.667 -7.66699 55.834 -23 69.501s-34.666 20.5 -57.999 20.5c-39.333 0 -70.166 -18.5 -92.499 -55.5z
M277.996 566.996c-23.333 2 -37.333 4.66797 -42 8.00098l90 155c14 1.33301 32.667 -0.833984 56 -6.50098s38 -11.167 44 -16.5z" />
    <glyph glyph-name="ecircumflex" unicode="&#xea;" horiz-adv-x="519" 
d="M475 113c0 -8 -2.33496 -17.6699 -7.00195 -29.0029c-12.667 -31.333 -35.167 -55.333 -67.5 -72s-71.166 -25 -116.499 -25c-76 0 -135.833 23.333 -179.5 70s-65.5 113 -65.5 199c0 84.667 21.333 150.834 64 198.501s103.667 71.5 183 71.5
c58 0 105 -12.833 141 -38.5s54 -62.167 54 -109.5c0 -49.333 -19.833 -87.166 -59.5 -113.499s-93.5 -39.5 -161.5 -39.5c-38.667 0 -73 1.66699 -103 5c4.66699 -62 20.334 -106.333 47.001 -133s63 -40 109 -40c36 0 66.833 7.33301 92.5 22s43.5 34.334 53.5 59.001
c10.667 -4.66699 16 -13 16 -25zM189.498 429.497c-22.333 -37 -33.502 -89.501 -33.502 -157.501c17.333 -2 35 -3 53 -3c45.333 0 82.333 9 111 27s43 51 43 99c0 32.667 -7.66699 55.834 -23 69.501s-34.666 20.5 -57.999 20.5c-39.333 0 -70.166 -18.5 -92.499 -55.5z
M126.496 569.496c-9 3 -13.833 5.83301 -14.5 8.5l125 149c6 2 17 3 33 3c12.667 0 22 -1 28 -3l125 -149c-0.666992 -2.66699 -5.66699 -5.5 -15 -8.5s-16.333 -4.5 -21 -4.5l-119 84l-121 -84c-4.66699 0 -11.5 1.5 -20.5 4.5z" />
    <glyph glyph-name="edieresis" unicode="&#xeb;" horiz-adv-x="519" 
d="M475 113c0 -8 -2.33496 -17.6699 -7.00195 -29.0029c-12.667 -31.333 -35.167 -55.333 -67.5 -72s-71.166 -25 -116.499 -25c-76 0 -135.833 23.333 -179.5 70s-65.5 113 -65.5 199c0 84.667 21.333 150.834 64 198.501s103.667 71.5 183 71.5
c58 0 105 -12.833 141 -38.5s54 -62.167 54 -109.5c0 -49.333 -19.833 -87.166 -59.5 -113.499s-93.5 -39.5 -161.5 -39.5c-38.667 0 -73 1.66699 -103 5c4.66699 -62 20.334 -106.333 47.001 -133s63 -40 109 -40c36 0 66.833 7.33301 92.5 22s43.5 34.334 53.5 59.001
c10.667 -4.66699 16 -13 16 -25zM189.498 429.497c-22.333 -37 -33.502 -89.501 -33.502 -157.501c17.333 -2 35 -3 53 -3c45.333 0 82.333 9 111 27s43 51 43 99c0 32.667 -7.66699 55.834 -23 69.501s-34.666 20.5 -57.999 20.5c-39.333 0 -70.166 -18.5 -92.499 -55.5z
M142.496 601.996c-11 10.667 -16.5 23.334 -16.5 38.001c0 15.333 5.5 28.333 16.5 39s24.167 16 39.5 16c14.667 0 27.334 -5.33301 38.001 -16s16 -23.667 16 -39c0 -14.667 -5.33301 -27.334 -16 -38.001s-23.334 -16 -38.001 -16c-15.333 0 -28.5 5.33301 -39.5 16z
M324.996 601.996c-10.667 10.667 -16 23.334 -16 38.001c0 15.333 5.33301 28.333 16 39s23.667 16 39 16s28.333 -5.33301 39 -16s16 -23.667 16 -39c0 -14.667 -5.33301 -27.334 -16 -38.001s-23.667 -16 -39 -16s-28.333 5.33301 -39 16z" />
    <glyph glyph-name="igrave" unicode="&#xec;" horiz-adv-x="258" 
d="M201 12c-18.667 -16.667 -39.667 -25 -63 -25c-17.333 0 -31.833 5.33301 -43.5 16s-17.5 24.667 -17.5 42l-1 338c0 51.333 -5.33301 91.333 -16 120c20 16 40.667 24 62 24c18 0 32.833 -5.16699 44.5 -15.5s17.5 -24.5 17.5 -42.5l1 -338
c0 -52 5.33301 -91.667 16 -119zM14 723.5c23.333 5.66699 41.667 7.83301 55 6.5l91 -155c-4.66699 -3.33301 -18.667 -6 -42 -8l-149 140c6.66699 5.33301 21.667 10.833 45 16.5z" />
    <glyph glyph-name="iacute" unicode="&#xed;" horiz-adv-x="258" 
d="M201 12c-18.667 -16.667 -39.667 -25 -63 -25c-17.333 0 -31.833 5.33301 -43.5 16s-17.5 24.667 -17.5 42l-1 338c0 51.333 -5.33301 91.333 -16 120c20 16 40.667 24 62 24c18 0 32.833 -5.16699 44.5 -15.5s17.5 -24.5 17.5 -42.5l1 -338
c0 -52 5.33301 -91.667 16 -119zM128 567c-23.333 2 -37.333 4.66797 -42 8.00098l90 155c14 1.33301 32.667 -0.833984 56 -6.50098s38 -11.167 44 -16.5z" />
    <glyph glyph-name="icircumflex" unicode="&#xee;" horiz-adv-x="258" 
d="M201 12c-18.667 -16.667 -39.667 -25 -63 -25c-17.333 0 -31.833 5.33301 -43.5 16s-17.5 24.667 -17.5 42l-1 338c0 51.333 -5.33301 91.333 -16 120c20 16 40.667 24 62 24c18 0 32.833 -5.16699 44.5 -15.5s17.5 -24.5 17.5 -42.5l1 -338
c0 -52 5.33301 -91.667 16 -119zM-23.5 569.5c-9 3 -13.833 5.83301 -14.5 8.5l125 149c6 2 17 3 33 3c12.667 0 22 -1 28 -3l125 -149c-0.666992 -2.66699 -5.66699 -5.5 -15 -8.5s-16.333 -4.5 -21 -4.5l-119 84l-121 -84c-4.66699 0 -11.5 1.5 -20.5 4.5z" />
    <glyph glyph-name="idieresis" unicode="&#xef;" horiz-adv-x="258" 
d="M201 12c-18.667 -16.667 -39.667 -25 -63 -25c-17.333 0 -31.833 5.33301 -43.5 16s-17.5 24.667 -17.5 42l-1 338c0 51.333 -5.33301 91.333 -16 120c20 16 40.667 24 62 24c18 0 32.833 -5.16699 44.5 -15.5s17.5 -24.5 17.5 -42.5l1 -338
c0 -52 5.33301 -91.667 16 -119zM-7.5 602c-11 10.667 -16.5 23.334 -16.5 38.001c0 15.333 5.5 28.333 16.5 39s24.167 16 39.5 16c14.667 0 27.334 -5.33301 38.001 -16s16 -23.667 16 -39c0 -14.667 -5.33301 -27.334 -16 -38.001s-23.334 -16 -38.001 -16
c-15.333 0 -28.5 5.33301 -39.5 16zM175 602c-10.667 10.667 -16 23.334 -16 38.001c0 15.333 5.33301 28.333 16 39s23.667 16 39 16s28.333 -5.33301 39 -16s16 -23.667 16 -39c0 -14.667 -5.33301 -27.334 -16 -38.001s-23.667 -16 -39 -16s-28.333 5.33301 -39 16z" />
    <glyph glyph-name="eth" unicode="&#xf0;" horiz-adv-x="535" 
d="M470 489.5c17.333 -61 25.998 -127.166 25.998 -198.499c0 -91.333 -19.833 -164.833 -59.5 -220.5s-99.167 -83.5 -178.5 -83.5c-81.333 0 -138.166 23.167 -170.499 69.5s-48.5 107.5 -48.5 183.5c0 79.333 18.5 143 55.5 191s88.833 72 155.5 72
c28.667 0 53.834 -4.5 75.501 -13.5s38.834 -21.167 51.501 -36.5c-8.66699 50 -32 95.333 -70 136l-72 -42c-13.333 8 -21 20.667 -23 38l60 35c-17.333 13.333 -35.333 23.5 -54 30.5s-36.334 10.5 -53.001 10.5l-23 -1c1.33301 20 7.33301 37 18 51s28.667 21 54 21
c56.667 0 107 -19.333 151 -58l73 43c14 -6.66699 21.667 -19.334 23 -38.001l-65 -38c32 -40 56.667 -90.5 74 -151.5zM350.498 104.001c18.333 37.333 27.501 94 27.501 170c0 52.667 -7.5 94.334 -22.5 125.001s-41.5 46 -79.5 46
c-40.667 0 -70.834 -17.833 -90.501 -53.5s-29.5 -83.834 -29.5 -144.501c0 -65.333 7.66699 -114.833 23 -148.5s43 -50.5 83 -50.5c40.667 0 70.167 18.667 88.5 56z" />
    <glyph glyph-name="ntilde" unicode="&#xf1;" horiz-adv-x="581" 
d="M530 12c-18 -16.667 -39.002 -24.998 -63.002 -24.998c-18.667 0 -34 5.16699 -46 15.5s-18 24.5 -18 42.5v261c-0.666992 55.333 -7.16699 96.166 -19.5 122.499s-34.833 39.5 -67.5 39.5c-22 0 -42.167 -8.33301 -60.5 -25s-33.166 -42.167 -44.499 -76.5
s-17 -77.166 -17 -128.499c0 -78.667 1 -130.667 3 -156s7.33301 -49 16 -71c-6.66699 -6 -15.5 -11.5 -26.5 -16.5s-22.833 -7.5 -35.5 -7.5c-19.333 0 -35 5.66699 -47 17s-18 26.666 -18 45.999v341c-0.666992 18.667 -3 32 -7 40s-10.667 12 -20 12
c-12.667 0 -21.334 -4.66699 -26.001 -14c-8.66699 12.667 -13 25.334 -13 38.001c0 17.333 6.33301 31.5 19 42.5s30.334 16.5 53.001 16.5c28.667 0 50.834 -9.83301 66.501 -29.5s23.5 -48.834 23.5 -87.501v-5c13.333 39.333 34.5 69.5 63.5 90.5
s64.167 31.5 105.5 31.5c54.667 0 95.167 -17 121.5 -51s39.5 -85 39.5 -153v-191c1.33301 -54.667 7.33301 -94.334 18 -119.001zM421.498 605.502c-14.333 -17.667 -32.832 -26.499 -55.499 -26.499c-11.333 0 -22 2.16699 -32 6.5s-21 10.166 -33 17.499
c-12.667 7.33301 -23.334 12.833 -32.001 16.5s-17.667 5.5 -27 5.5c-28 0 -48.333 -13.667 -61 -41h-2c-7.33301 0 -15 3.33301 -23 10c3.33301 32.667 13.5 56.667 30.5 72s36.833 23 59.5 23c11.333 0 21.833 -2 31.5 -6s21.167 -10 34.5 -18
c12 -7.33301 22.667 -13 32 -17s19.333 -6 30 -6c14 0 24.667 3.5 32 10.5s13.666 17.5 18.999 31.5c6 0 10.833 -0.5 14.5 -1.5s6.83398 -3.16699 9.50098 -6.5c-4 -29.333 -13.167 -52.833 -27.5 -70.5z" />
    <glyph glyph-name="ograve" unicode="&#xf2;" horiz-adv-x="555" 
d="M101.5 58c-41.667 47.333 -62.5 113.333 -62.5 198c0 85.333 21 151.666 63 198.999s100.333 71 175 71c75.333 0 134 -23.667 176 -71s63 -113.666 63 -198.999c0 -84.667 -21 -150.667 -63 -198s-100.667 -71 -176 -71s-133.833 23.667 -175.5 71zM367.5 86
c20.333 38.667 30.5 95.334 30.5 170.001c0 75.333 -10.167 132.333 -30.5 171s-50.5 58 -90.5 58s-70.167 -19.333 -90.5 -58s-30.5 -95.667 -30.5 -171c0 -74.667 10.167 -131.334 30.5 -170.001s50.5 -58 90.5 -58s70.167 19.333 90.5 58zM170 723.5
c23.333 5.66699 41.667 7.83301 55 6.5l91 -155c-4.66699 -3.33301 -18.667 -6 -42 -8l-149 140c6.66699 5.33301 21.667 10.833 45 16.5z" />
    <glyph glyph-name="oacute" unicode="&#xf3;" horiz-adv-x="555" 
d="M101.5 58c-41.667 47.333 -62.5 113.333 -62.5 198c0 85.333 21 151.666 63 198.999s100.333 71 175 71c75.333 0 134 -23.667 176 -71s63 -113.666 63 -198.999c0 -84.667 -21 -150.667 -63 -198s-100.667 -71 -176 -71s-133.833 23.667 -175.5 71zM367.5 86
c20.333 38.667 30.5 95.334 30.5 170.001c0 75.333 -10.167 132.333 -30.5 171s-50.5 58 -90.5 58s-70.167 -19.333 -90.5 -58s-30.5 -95.667 -30.5 -171c0 -74.667 10.167 -131.334 30.5 -170.001s50.5 -58 90.5 -58s70.167 19.333 90.5 58zM284 567
c-23.333 2 -37.333 4.66797 -42 8.00098l90 155c14 1.33301 32.667 -0.833984 56 -6.50098s38 -11.167 44 -16.5z" />
    <glyph glyph-name="ocircumflex" unicode="&#xf4;" horiz-adv-x="555" 
d="M101.5 58c-41.667 47.333 -62.5 113.333 -62.5 198c0 85.333 21 151.666 63 198.999s100.333 71 175 71c75.333 0 134 -23.667 176 -71s63 -113.666 63 -198.999c0 -84.667 -21 -150.667 -63 -198s-100.667 -71 -176 -71s-133.833 23.667 -175.5 71zM367.5 86
c20.333 38.667 30.5 95.334 30.5 170.001c0 75.333 -10.167 132.333 -30.5 171s-50.5 58 -90.5 58s-70.167 -19.333 -90.5 -58s-30.5 -95.667 -30.5 -171c0 -74.667 10.167 -131.334 30.5 -170.001s50.5 -58 90.5 -58s70.167 19.333 90.5 58zM132.5 569.5
c-9 3 -13.833 5.83301 -14.5 8.5l125 149c6 2 17 3 33 3c12.667 0 22 -1 28 -3l125 -149c-0.666992 -2.66699 -5.66699 -5.5 -15 -8.5s-16.333 -4.5 -21 -4.5l-119 84l-121 -84c-4.66699 0 -11.5 1.5 -20.5 4.5z" />
    <glyph glyph-name="otilde" unicode="&#xf5;" horiz-adv-x="555" 
d="M101.5 58c-41.667 47.333 -62.5 113.333 -62.5 198c0 85.333 21 151.666 63 198.999s100.333 71 175 71c75.333 0 134 -23.667 176 -71s63 -113.666 63 -198.999c0 -84.667 -21 -150.667 -63 -198s-100.667 -71 -176 -71s-133.833 23.667 -175.5 71zM367.5 86
c20.333 38.667 30.5 95.334 30.5 170.001c0 75.333 -10.167 132.333 -30.5 171s-50.5 58 -90.5 58s-70.167 -19.333 -90.5 -58s-30.5 -95.667 -30.5 -171c0 -74.667 10.167 -131.334 30.5 -170.001s50.5 -58 90.5 -58s70.167 19.333 90.5 58zM394.5 605.5
c-14.333 -17.667 -32.832 -26.499 -55.499 -26.499c-11.333 0 -22 2.16699 -32 6.5s-21 10.166 -33 17.499c-12.667 7.33301 -23.334 12.833 -32.001 16.5s-17.667 5.5 -27 5.5c-28 0 -48.333 -13.667 -61 -41h-2c-7.33301 0 -15 3.33301 -23 10
c3.33301 32.667 13.5 56.667 30.5 72s36.833 23 59.5 23c11.333 0 21.833 -2 31.5 -6s21.167 -10 34.5 -18c12 -7.33301 22.667 -13 32 -17s19.333 -6 30 -6c14 0 24.667 3.5 32 10.5s13.666 17.5 18.999 31.5c6 0 10.833 -0.5 14.5 -1.5s6.83398 -3.16699 9.50098 -6.5
c-4 -29.333 -13.167 -52.833 -27.5 -70.5z" />
    <glyph glyph-name="odieresis" unicode="&#xf6;" horiz-adv-x="555" 
d="M101.5 58c-41.667 47.333 -62.5 113.333 -62.5 198c0 85.333 21 151.666 63 198.999s100.333 71 175 71c75.333 0 134 -23.667 176 -71s63 -113.666 63 -198.999c0 -84.667 -21 -150.667 -63 -198s-100.667 -71 -176 -71s-133.833 23.667 -175.5 71zM367.5 86
c20.333 38.667 30.5 95.334 30.5 170.001c0 75.333 -10.167 132.333 -30.5 171s-50.5 58 -90.5 58s-70.167 -19.333 -90.5 -58s-30.5 -95.667 -30.5 -171c0 -74.667 10.167 -131.334 30.5 -170.001s50.5 -58 90.5 -58s70.167 19.333 90.5 58zM148.5 602
c-11 10.667 -16.5 23.334 -16.5 38.001c0 15.333 5.5 28.333 16.5 39s24.167 16 39.5 16c14.667 0 27.334 -5.33301 38.001 -16s16 -23.667 16 -39c0 -14.667 -5.33301 -27.334 -16 -38.001s-23.334 -16 -38.001 -16c-15.333 0 -28.5 5.33301 -39.5 16zM331 602
c-10.667 10.667 -16 23.334 -16 38.001c0 15.333 5.33301 28.333 16 39s23.667 16 39 16s28.333 -5.33301 39 -16s16 -23.667 16 -39c0 -14.667 -5.33301 -27.334 -16 -38.001s-23.667 -16 -39 -16s-28.333 5.33301 -39 16z" />
    <glyph glyph-name="divide" unicode="&#xf7;" horiz-adv-x="545" 
d="M240 481c-9.33301 9.33301 -14 20.333 -14 33c0 13.333 4.5 24.666 13.5 33.999s20.167 14 33.5 14s24.5 -4.66699 33.5 -14s13.5 -20.666 13.5 -33.999s-4.5 -24.5 -13.5 -33.5s-20.167 -13.5 -33.5 -13.5c-12.667 0 -23.667 4.66699 -33 14zM471 378c4 -10 6 -20 6 -30
c0 -9.33301 -2 -19.666 -6 -30.999h-397c-4 11.333 -6 21.666 -6 30.999c0 10 2 20 6 30h397zM240 148c-9.33301 9.33301 -14 20.333 -14 33c0 13.333 4.5 24.666 13.5 33.999s20.167 14 33.5 14s24.5 -4.66699 33.5 -14s13.5 -20.666 13.5 -33.999s-4.5 -24.5 -13.5 -33.5
s-20.167 -13.5 -33.5 -13.5c-12.667 0 -23.667 4.66699 -33 14z" />
    <glyph glyph-name="oslash" unicode="&#xf8;" horiz-adv-x="555" 
d="M516 256c0 -84.667 -21 -150.665 -63 -197.998s-100.667 -71 -176 -71c-45.333 0 -85.666 9.33301 -120.999 28l-23 -36c-18.667 1.33301 -31.334 9 -38.001 23l24 38c-26 23.333 -45.833 53.166 -59.5 89.499s-20.5 78.5 -20.5 126.5c0 85.333 21 151.666 63 198.999
s100.333 71 175 71c48.667 0 91 -10.333 127 -31l18 29c16.667 0 29.667 -7.33301 39 -22l-21 -34c50.667 -47.333 76 -118 76 -212zM171 124.002l193 308c-20 35.333 -49 53 -87 53c-40 0 -70.167 -19.333 -90.5 -58s-30.5 -95.667 -30.5 -171c0 -52.667 5 -96.667 15 -132
zM367.5 86.002c20.333 38.667 30.5 95.332 30.5 169.999c0 50.667 -4.33301 92.334 -13 125.001l-192 -306c20 -31.333 48 -47 84 -47c40 0 70.167 19.333 90.5 58z" />
    <glyph glyph-name="ugrave" unicode="&#xf9;" horiz-adv-x="575" 
d="M556 47c0 -18 -6.16602 -32.334 -18.499 -43.001s-29.833 -16 -52.5 -16c-29.333 0 -51.833 9.66699 -67.5 29s-23.5 48.333 -23.5 87v2c-14 -38.667 -34.833 -68.334 -62.5 -89.001s-61.834 -31 -102.501 -31c-54.667 0 -94.5 15.667 -119.5 47s-37.5 84 -37.5 158
l-1 191c0 51.333 -5.33301 91.333 -16 120c18.667 16 39.667 24 63 24c18.667 0 33.834 -5.16699 45.501 -15.5s17.5 -24.5 17.5 -42.5v-261c0 -60 6 -102.833 18 -128.5s33.667 -38.5 65 -38.5c21.333 0 41 8.5 59 25.5s32.5 43.167 43.5 78.5s16.5 79 16.5 131
c0 78.667 -1 130.834 -3 156.501s-7.33301 49.5 -16 71.5c19.333 15.333 40.333 23 63 23c18 0 33 -5.66699 45 -17s18 -26.666 18 -45.999l1 -341c0 -18.667 2.16699 -31.834 6.5 -39.501s11.166 -11.5 20.499 -11.5c12 0 20.667 4.33301 26 13
c8 -11.333 12 -23.666 12 -36.999zM163.001 723.499c23.333 5.66699 41.667 7.83301 55 6.5l91 -155c-4.66699 -3.33301 -18.667 -6 -42 -8l-149 140c6.66699 5.33301 21.667 10.833 45 16.5z" />
    <glyph glyph-name="uacute" unicode="&#xfa;" horiz-adv-x="575" 
d="M556 47c0 -18 -6.16602 -32.334 -18.499 -43.001s-29.833 -16 -52.5 -16c-29.333 0 -51.833 9.66699 -67.5 29s-23.5 48.333 -23.5 87v2c-14 -38.667 -34.833 -68.334 -62.5 -89.001s-61.834 -31 -102.501 -31c-54.667 0 -94.5 15.667 -119.5 47s-37.5 84 -37.5 158
l-1 191c0 51.333 -5.33301 91.333 -16 120c18.667 16 39.667 24 63 24c18.667 0 33.834 -5.16699 45.501 -15.5s17.5 -24.5 17.5 -42.5v-261c0 -60 6 -102.833 18 -128.5s33.667 -38.5 65 -38.5c21.333 0 41 8.5 59 25.5s32.5 43.167 43.5 78.5s16.5 79 16.5 131
c0 78.667 -1 130.834 -3 156.501s-7.33301 49.5 -16 71.5c19.333 15.333 40.333 23 63 23c18 0 33 -5.66699 45 -17s18 -26.666 18 -45.999l1 -341c0 -18.667 2.16699 -31.834 6.5 -39.501s11.166 -11.5 20.499 -11.5c12 0 20.667 4.33301 26 13
c8 -11.333 12 -23.666 12 -36.999zM278.001 566.999c-23.333 2 -37.333 4.66797 -42 8.00098l90 155c14 1.33301 32.667 -0.833984 56 -6.50098s38 -11.167 44 -16.5z" />
    <glyph glyph-name="ucircumflex" unicode="&#xfb;" horiz-adv-x="575" 
d="M556 47c0 -18 -6.16602 -32.334 -18.499 -43.001s-29.833 -16 -52.5 -16c-29.333 0 -51.833 9.66699 -67.5 29s-23.5 48.333 -23.5 87v2c-14 -38.667 -34.833 -68.334 -62.5 -89.001s-61.834 -31 -102.501 -31c-54.667 0 -94.5 15.667 -119.5 47s-37.5 84 -37.5 158
l-1 191c0 51.333 -5.33301 91.333 -16 120c18.667 16 39.667 24 63 24c18.667 0 33.834 -5.16699 45.501 -15.5s17.5 -24.5 17.5 -42.5v-261c0 -60 6 -102.833 18 -128.5s33.667 -38.5 65 -38.5c21.333 0 41 8.5 59 25.5s32.5 43.167 43.5 78.5s16.5 79 16.5 131
c0 78.667 -1 130.834 -3 156.501s-7.33301 49.5 -16 71.5c19.333 15.333 40.333 23 63 23c18 0 33 -5.66699 45 -17s18 -26.666 18 -45.999l1 -341c0 -18.667 2.16699 -31.834 6.5 -39.501s11.166 -11.5 20.499 -11.5c12 0 20.667 4.33301 26 13
c8 -11.333 12 -23.666 12 -36.999zM126.501 569.499c-9 3 -13.833 5.83301 -14.5 8.5l125 149c6 2 17 3 33 3c12.667 0 22 -1 28 -3l125 -149c-0.666992 -2.66699 -5.66699 -5.5 -15 -8.5s-16.333 -4.5 -21 -4.5l-119 84l-121 -84c-4.66699 0 -11.5 1.5 -20.5 4.5z" />
    <glyph glyph-name="udieresis" unicode="&#xfc;" horiz-adv-x="575" 
d="M556 47c0 -18 -6.16602 -32.334 -18.499 -43.001s-29.833 -16 -52.5 -16c-29.333 0 -51.833 9.66699 -67.5 29s-23.5 48.333 -23.5 87v2c-14 -38.667 -34.833 -68.334 -62.5 -89.001s-61.834 -31 -102.501 -31c-54.667 0 -94.5 15.667 -119.5 47s-37.5 84 -37.5 158
l-1 191c0 51.333 -5.33301 91.333 -16 120c18.667 16 39.667 24 63 24c18.667 0 33.834 -5.16699 45.501 -15.5s17.5 -24.5 17.5 -42.5v-261c0 -60 6 -102.833 18 -128.5s33.667 -38.5 65 -38.5c21.333 0 41 8.5 59 25.5s32.5 43.167 43.5 78.5s16.5 79 16.5 131
c0 78.667 -1 130.834 -3 156.501s-7.33301 49.5 -16 71.5c19.333 15.333 40.333 23 63 23c18 0 33 -5.66699 45 -17s18 -26.666 18 -45.999l1 -341c0 -18.667 2.16699 -31.834 6.5 -39.501s11.166 -11.5 20.499 -11.5c12 0 20.667 4.33301 26 13
c8 -11.333 12 -23.666 12 -36.999zM142.501 601.999c-11 10.667 -16.5 23.334 -16.5 38.001c0 15.333 5.5 28.333 16.5 39s24.167 16 39.5 16c14.667 0 27.334 -5.33301 38.001 -16s16 -23.667 16 -39c0 -14.667 -5.33301 -27.334 -16 -38.001s-23.334 -16 -38.001 -16
c-15.333 0 -28.5 5.33301 -39.5 16zM325.001 601.999c-10.667 10.667 -16 23.334 -16 38.001c0 15.333 5.33301 28.333 16 39s23.667 16 39 16s28.333 -5.33301 39 -16s16 -23.667 16 -39c0 -14.667 -5.33301 -27.334 -16 -38.001s-23.667 -16 -39 -16
s-28.333 5.33301 -39 16z" />
    <glyph glyph-name="yacute" unicode="&#xfd;" horiz-adv-x="553" 
d="M491 51c0 -186 -83.002 -279.002 -249.002 -279.002c-52.667 0 -96 8.16699 -130 24.5s-51 43.5 -51 81.5c0 20.667 7.16699 37.5 21.5 50.5s32.833 19.5 55.5 19.5c24 0 41 -6.33301 51 -19c-9.33301 -6 -16.166 -13.5 -20.499 -22.5s-6.5 -17.833 -6.5 -26.5
c0 -22 7.66699 -39.333 23 -52s35 -19 59 -19c48 0 84 20 108 60s36 97 36 171c0 12.667 2 38.334 6 77.001c-13.333 -40.667 -34 -71.667 -62 -93s-63.333 -32 -106 -32c-52.667 0 -91.5 15.833 -116.5 47.5s-37.5 84.167 -37.5 157.5l-1 185
c0 51.333 -5.33301 91.333 -16 120c18.667 16 39.667 24 63 24c18.667 0 33.834 -5.16699 45.501 -15.5s17.5 -24.5 17.5 -42.5v-255c0 -58 5.83301 -100.167 17.5 -126.5s32.167 -39.5 61.5 -39.5c36 0 65.5 19.5 88.5 58.5s34.5 96.833 34.5 173.5s-1 127.667 -3 153
s-7.33301 49 -16 71c19.333 15.333 40.333 23 63 23c18 0 33 -5.66699 45 -17s18 -26.666 18 -45.999zM285.998 566.998c-23.333 2 -37.333 4.66797 -42 8.00098l90 155c14 1.33301 32.667 -0.833984 56 -6.50098s38 -11.167 44 -16.5z" />
    <glyph glyph-name="thorn" unicode="&#xfe;" horiz-adv-x="562" 
d="M482.5 455c27 -47.333 40.502 -106.666 40.502 -177.999c0 -92.667 -18.833 -164.167 -56.5 -214.5s-89.834 -75.5 -156.501 -75.5c-31.333 0 -58 5.83301 -80 17.5s-38 28.5 -48 50.5v-80c0 -70.667 6 -127.334 18 -170.001c-18 -16 -39 -24 -63 -24
c-18.667 0 -34 5.16699 -46 15.5s-18 24.166 -18 41.499v836c0 18.667 5.16699 32.834 15.5 42.501s24.5 14.5 42.5 14.5c13.333 0 26 -2.66699 38 -8s21.667 -10.666 29 -15.999c-7.33301 -24 -12.333 -51.333 -15 -82s-4.33398 -70.334 -5.00098 -119.001v-107
c16 41.333 38 72.833 66 94.5s62.333 32.5 103 32.5c63.333 0 108.5 -23.667 135.5 -71zM406.002 277c0 59.333 -6.33398 105.5 -19.001 138.5s-36.667 49.5 -72 49.5c-28 0 -52 -12 -72 -36s-35 -55.667 -45 -95s-15 -81 -15 -125c0 -53.333 7.33301 -93.833 22 -121.5
s40.334 -41.5 77.001 -41.5c82.667 0 124 77 124 231z" />
    <glyph glyph-name="ydieresis" unicode="&#xff;" horiz-adv-x="553" 
d="M491 51c0 -186 -83.002 -279.002 -249.002 -279.002c-52.667 0 -96 8.16699 -130 24.5s-51 43.5 -51 81.5c0 20.667 7.16699 37.5 21.5 50.5s32.833 19.5 55.5 19.5c24 0 41 -6.33301 51 -19c-9.33301 -6 -16.166 -13.5 -20.499 -22.5s-6.5 -17.833 -6.5 -26.5
c0 -22 7.66699 -39.333 23 -52s35 -19 59 -19c48 0 84 20 108 60s36 97 36 171c0 12.667 2 38.334 6 77.001c-13.333 -40.667 -34 -71.667 -62 -93s-63.333 -32 -106 -32c-52.667 0 -91.5 15.833 -116.5 47.5s-37.5 84.167 -37.5 157.5l-1 185
c0 51.333 -5.33301 91.333 -16 120c18.667 16 39.667 24 63 24c18.667 0 33.834 -5.16699 45.501 -15.5s17.5 -24.5 17.5 -42.5v-255c0 -58 5.83301 -100.167 17.5 -126.5s32.167 -39.5 61.5 -39.5c36 0 65.5 19.5 88.5 58.5s34.5 96.833 34.5 173.5s-1 127.667 -3 153
s-7.33301 49 -16 71c19.333 15.333 40.333 23 63 23c18 0 33 -5.66699 45 -17s18 -26.666 18 -45.999zM151.498 601.998c-11 10.667 -16.5 23.334 -16.5 38.001c0 15.333 5.5 28.333 16.5 39s24.167 16 39.5 16c14.667 0 27.334 -5.33301 38.001 -16s16 -23.667 16 -39
c0 -14.667 -5.33301 -27.334 -16 -38.001s-23.334 -16 -38.001 -16c-15.333 0 -28.5 5.33301 -39.5 16zM333.998 601.998c-10.667 10.667 -16 23.334 -16 38.001c0 15.333 5.33301 28.333 16 39s23.667 16 39 16s28.333 -5.33301 39 -16s16 -23.667 16 -39
c0 -14.667 -5.33301 -27.334 -16 -38.001s-23.667 -16 -39 -16s-28.333 5.33301 -39 16z" />
    <glyph glyph-name="Amacron" unicode="&#x100;" horiz-adv-x="611" 
d="M605 13c-15.333 -16.667 -37.001 -25 -65.001 -25c-18 0 -33 3.66699 -45 11s-19.667 18 -23 32l-51 180h-241l-40 -144c-4 -17.333 -6 -30.666 -6 -39.999c0 -12 2.66699 -21.333 8 -28c-19.333 -7.33301 -39.333 -11 -60 -11c-21.333 0 -37 3.5 -47 10.5
s-15 18.5 -15 34.5c0 16.667 4 37 12 61l202 599c30 11.333 61 17 93 17c34.667 0 55.334 -12.667 62.001 -38l187 -603c8 -24.667 17.667 -43.334 29 -56.001zM402.999 273l-105 368l-101 -368h206zM445.999 829c2.66699 -10.667 4 -19.333 4 -26c0 -6 -1.33301 -15 -4 -27
h-272c-2.66699 8 -4 17 -4 27s1.33301 18.667 4 26h272z" />
    <glyph glyph-name="amacron" unicode="&#x101;" horiz-adv-x="559" 
d="M551 52c0 -17.333 -7.66309 -32.002 -22.9961 -44.002s-35 -18 -59 -18c-32.667 0 -57.334 11.167 -74.001 33.5s-25.334 58.5 -26.001 108.5c-20 -43.333 -47.333 -78 -82 -104s-74.334 -39 -119.001 -39c-38.667 0 -69.834 10.5 -93.501 31.5s-35.5 49.5 -35.5 85.5
c0 42 16 76.667 48 104s73 48 123 62s101 20.333 153 19v25c0 58 -8 100.667 -24 128s-42.667 41 -80 41c-25.333 0 -45.833 -6 -61.5 -18s-23.5 -31.667 -23.5 -59c0 -15.333 3 -29.666 9 -42.999s16 -23.333 30 -30c-6.66699 -7.33301 -15.5 -12.833 -26.5 -16.5
s-22.5 -5.5 -34.5 -5.5c-26.667 0 -48.167 8.83301 -64.5 26.5s-24.5 39.167 -24.5 64.5c0 39.333 18 69.5 54 90.5s85.667 31.5 149 31.5c72 0 124.833 -17.167 158.5 -51.5s50.5 -89.166 50.5 -164.499v-184c0 -35.333 11.333 -53 34 -53c5.33301 0 10.833 1.33301 16.5 4
s10.167 6.66699 13.5 12c8 -10.667 12 -23 12 -37zM285.504 88.498c23 17.667 42.167 41.1689 57.5 70.502s23 60.666 23 93.999c-23.333 1.33301 -47 0.166016 -71 -3.50098s-44.667 -9.5 -62 -17.5c-23.333 -10 -41.5 -23.5 -54.5 -40.5s-19.5 -36.833 -19.5 -59.5
c0 -20 4.83301 -36.667 14.5 -50s24.5 -20 44.5 -20c22 0 44.5 8.83301 67.5 26.5zM405.004 653c2.66699 -12 4 -20.667 4 -26c0 -6 -1.33301 -15 -4 -27h-272c-2.66699 8 -4 17 -4 27c0 9.33301 1.33301 18 4 26h272z" />
    <glyph glyph-name="Abreve" unicode="&#x102;" horiz-adv-x="611" 
d="M605 13c-15.333 -16.667 -37.001 -25 -65.001 -25c-18 0 -33 3.66699 -45 11s-19.667 18 -23 32l-51 180h-241l-40 -144c-4 -17.333 -6 -30.666 -6 -39.999c0 -12 2.66699 -21.333 8 -28c-19.333 -7.33301 -39.333 -11 -60 -11c-21.333 0 -37 3.5 -47 10.5
s-15 18.5 -15 34.5c0 16.667 4 37 12 61l202 599c30 11.333 61 17 93 17c34.667 0 55.334 -12.667 62.001 -38l187 -603c8 -24.667 17.667 -43.334 29 -56.001zM402.999 273l-105 368l-101 -368h206zM398.999 776.5c-22.667 -22.333 -52.665 -33.501 -89.998 -33.501
c-38.667 0 -69.334 11.5 -92.001 34.5s-37.334 51.5 -44.001 85.5l37 11c7.33301 -24 20 -41.5 38 -52.5s39.667 -16.5 65 -16.5c24 0 44.667 5.83301 62 17.5s30.333 28.834 39 51.501l33 -9c-9.33301 -36.667 -25.333 -66.167 -48 -88.5z" />
    <glyph glyph-name="abreve" unicode="&#x103;" horiz-adv-x="559" 
d="M551 52c0 -17.333 -7.66309 -32.002 -22.9961 -44.002s-35 -18 -59 -18c-32.667 0 -57.334 11.167 -74.001 33.5s-25.334 58.5 -26.001 108.5c-20 -43.333 -47.333 -78 -82 -104s-74.334 -39 -119.001 -39c-38.667 0 -69.834 10.5 -93.501 31.5s-35.5 49.5 -35.5 85.5
c0 42 16 76.667 48 104s73 48 123 62s101 20.333 153 19v25c0 58 -8 100.667 -24 128s-42.667 41 -80 41c-25.333 0 -45.833 -6 -61.5 -18s-23.5 -31.667 -23.5 -59c0 -15.333 3 -29.666 9 -42.999s16 -23.333 30 -30c-6.66699 -7.33301 -15.5 -12.833 -26.5 -16.5
s-22.5 -5.5 -34.5 -5.5c-26.667 0 -48.167 8.83301 -64.5 26.5s-24.5 39.167 -24.5 64.5c0 39.333 18 69.5 54 90.5s85.667 31.5 149 31.5c72 0 124.833 -17.167 158.5 -51.5s50.5 -89.166 50.5 -164.499v-184c0 -35.333 11.333 -53 34 -53c5.33301 0 10.833 1.33301 16.5 4
s10.167 6.66699 13.5 12c8 -10.667 12 -23 12 -37zM285.504 88.498c23 17.667 42.167 41.1689 57.5 70.502s23 60.666 23 93.999c-23.333 1.33301 -47 0.166016 -71 -3.50098s-44.667 -9.5 -62 -17.5c-23.333 -10 -41.5 -23.5 -54.5 -40.5s-19.5 -36.833 -19.5 -59.5
c0 -20 4.83301 -36.667 14.5 -50s24.5 -20 44.5 -20c22 0 44.5 8.83301 67.5 26.5zM383.004 722c16 -4.66699 27.332 -8.66699 33.999 -12c-24 -92 -73.667 -138 -149 -138c-43.333 0 -77.166 13 -101.499 39s-40.5 58.667 -48.5 98c9.33301 6 21.666 10.333 36.999 13
c9.33301 -24 24 -42.833 44 -56.5s43.667 -20.5 71 -20.5c50.667 0 88.334 25.667 113.001 77z" />
    <glyph glyph-name="Aogonek" unicode="&#x104;" horiz-adv-x="611" 
d="M656 -101l-1.99902 -9.00098c-8.66699 -20.667 -23.667 -37.834 -45 -51.501s-47 -20.5 -77 -20.5c-24.667 0 -46.834 6.33301 -66.501 19s-29.5 32.334 -29.5 59.001c0 40.667 23.667 73 71 97c-18.667 7.33301 -30.334 20 -35.001 38l-51 180h-241l-40 -144
c-4 -17.333 -6 -30.666 -6 -39.999c0 -12 2.66699 -21.333 8 -28c-19.333 -7.33301 -39.333 -11 -60 -11c-21.333 0 -37 3.5 -47 10.5s-15 18.5 -15 34.5c0 16.667 4 37 12 61l202 599c30 11.333 61 17 93 17c34.667 0 55.334 -12.667 62.001 -38l187 -603
c8 -24.667 17.667 -43.334 29 -56.001c-5.33301 -5.33301 -11.666 -10.333 -18.999 -15c-25.333 -12.667 -44.333 -26 -57 -40s-19 -30.333 -19 -49c0 -13.333 3.66699 -24.333 11 -33s19.666 -13 36.999 -13c19.333 0 36 5.33301 50 16s25.333 24.334 34 41.001
c9.33301 -6 14 -13 14 -21zM403.001 272.999l-105 368l-101 -368h206z" />
    <glyph glyph-name="aogonek" unicode="&#x105;" horiz-adv-x="559" 
d="M586 -98l-1.99609 -9.00293c-8.66699 -20.667 -23.667 -37.834 -45 -51.501s-47 -20.5 -77 -20.5c-24.667 0 -46.834 6.33301 -66.501 19s-29.5 32.334 -29.5 59.001c0 40 23 72 69 96c-21.333 6.66699 -37.5 21 -48.5 43s-16.833 53.333 -17.5 94
c-20 -43.333 -47.333 -78 -82 -104s-74.334 -39 -119.001 -39c-38.667 0 -69.834 10.5 -93.501 31.5s-35.5 49.5 -35.5 85.5c0 42 16 76.667 48 104s73 48 123 62s101 20.333 153 19v25c0 58 -8 100.667 -24 128s-42.667 41 -80 41c-25.333 0 -45.833 -6 -61.5 -18
s-23.5 -31.667 -23.5 -59c0 -15.333 3 -29.666 9 -42.999s16 -23.333 30 -30c-6.66699 -7.33301 -15.5 -12.833 -26.5 -16.5s-22.5 -5.5 -34.5 -5.5c-26.667 0 -48.167 8.83301 -64.5 26.5s-24.5 39.167 -24.5 64.5c0 39.333 18 69.5 54 90.5s85.667 31.5 149 31.5
c72 0 124.833 -17.167 158.5 -51.5s50.5 -89.166 50.5 -164.499v-184c0 -35.333 11.333 -53 34 -53c5.33301 0 10.833 1.33301 16.5 4s10.167 6.66699 13.5 12c8 -10.667 12 -23 12 -37c0 -12 -3.83301 -23 -11.5 -33s-18.167 -17.333 -31.5 -22
c-22.667 -12 -39.667 -24.667 -51 -38s-17 -29 -17 -47c0 -13.333 3.66699 -24.333 11 -33s19.666 -13 36.999 -13c19.333 0 36 5.33301 50 16s25.333 24.334 34 41.001c9.33301 -6 14 -13 14 -21zM285.504 88.4971c23 17.667 42.167 41.1689 57.5 70.502
s23 60.666 23 93.999c-23.333 1.33301 -47 0.166016 -71 -3.50098s-44.667 -9.5 -62 -17.5c-23.333 -10 -41.5 -23.5 -54.5 -40.5s-19.5 -36.833 -19.5 -59.5c0 -20 4.83301 -36.667 14.5 -50s24.5 -20 44.5 -20c22 0 44.5 8.83301 67.5 26.5z" />
    <glyph glyph-name="Cacute" unicode="&#x106;" horiz-adv-x="608" 
d="M125 81c-48 62.667 -72.001 151.667 -72.001 267c0 114.667 24.833 203.5 74.5 266.5s118.834 94.5 207.501 94.5c36 0 70.333 -4.66699 103 -14s59.167 -22.333 79.5 -39s30.5 -36 30.5 -58c0 -18 -8 -33.167 -24 -45.5s-37.667 -18.166 -65 -17.499
c-10.667 88 -51.667 132 -123 132c-107.333 0 -161 -106.333 -161 -319s52.667 -319 158 -319c36.667 0 67.334 12.5 92.001 37.5s41 61.833 49 110.5c3.33301 0.666992 9 1 17 1c20.667 0 38.334 -4.83301 53.001 -14.5s22 -23.834 22 -42.501
c0 -26 -11.333 -49.333 -34 -70s-52.334 -36.5 -89.001 -47.5s-75.334 -16.5 -116.001 -16.5c-86.667 0 -154 31.333 -202 94zM295.999 742c-4 2 -8.16895 6.33398 -12.502 13.001s-6.16602 11.334 -5.49902 14.001l140 124c11.333 -4.66699 23.833 -14.334 37.5 -29.001
s22.834 -28.334 27.501 -41.001z" />
    <glyph glyph-name="cacute" unicode="&#x107;" horiz-adv-x="509" 
d="M102.5 56.5c-42.333 46.333 -63.5 112.833 -63.5 199.5c0 84 21.667 150 65 198s104.333 72 183 72c56.667 0 100.5 -11.833 131.5 -35.5s46.5 -54.167 46.5 -91.5c0 -25.333 -7.5 -45.666 -22.5 -60.999s-34.5 -23 -58.5 -23c-11.333 0 -22.5 1.83301 -33.5 5.5
s-19.5 9.16699 -25.5 16.5c20 13.333 30 37 30 71c0 26.667 -7 46.167 -21 58.5s-32.667 18.5 -56 18.5c-37.333 0 -67 -18.5 -89 -55.5s-33 -89.167 -33 -156.5c0 -74.667 14 -129.334 42 -164.001s66.667 -52 116 -52c35.333 0 65.666 8.66699 90.999 26
s41.666 41 48.999 71c10.667 -4 16 -13.667 16 -29c0 -8.66699 -1.33301 -18 -4 -28c-10.667 -35.333 -32.167 -62.5 -64.5 -81.5s-72.166 -28.5 -119.499 -28.5c-77.333 0 -137.166 23.167 -179.499 69.5zM283 567c-23.333 2 -37.333 4.66797 -42 8.00098l90 155
c14 1.33301 32.667 -0.833984 56 -6.50098s38 -11.167 44 -16.5z" />
    <glyph glyph-name="Ccircumflex" unicode="&#x108;" horiz-adv-x="608" 
d="M125 81c-48 62.667 -72.001 151.667 -72.001 267c0 114.667 24.833 203.5 74.5 266.5s118.834 94.5 207.501 94.5c36 0 70.333 -4.66699 103 -14s59.167 -22.333 79.5 -39s30.5 -36 30.5 -58c0 -18 -8 -33.167 -24 -45.5s-37.667 -18.166 -65 -17.499
c-10.667 88 -51.667 132 -123 132c-107.333 0 -161 -106.333 -161 -319s52.667 -319 158 -319c36.667 0 67.334 12.5 92.001 37.5s41 61.833 49 110.5c3.33301 0.666992 9 1 17 1c20.667 0 38.334 -4.83301 53.001 -14.5s22 -23.834 22 -42.501
c0 -26 -11.333 -49.333 -34 -70s-52.334 -36.5 -89.001 -47.5s-75.334 -16.5 -116.001 -16.5c-86.667 0 -154 31.333 -202 94zM490.999 761c-0.666992 -3.33301 -3.5 -8 -8.5 -14s-9.5 -9.66699 -13.5 -11l-140 78l-141 -78c-4 1.33301 -8.5 5 -13.5 11
s-7.83301 10.667 -8.5 14l132 124c5.33301 2.66699 16 4 32 4c14 0 23.667 -1.33301 29 -4z" />
    <glyph glyph-name="ccircumflex" unicode="&#x109;" horiz-adv-x="509" 
d="M102.5 56.5c-42.333 46.333 -63.5 112.833 -63.5 199.5c0 84 21.667 150 65 198s104.333 72 183 72c56.667 0 100.5 -11.833 131.5 -35.5s46.5 -54.167 46.5 -91.5c0 -25.333 -7.5 -45.666 -22.5 -60.999s-34.5 -23 -58.5 -23c-11.333 0 -22.5 1.83301 -33.5 5.5
s-19.5 9.16699 -25.5 16.5c20 13.333 30 37 30 71c0 26.667 -7 46.167 -21 58.5s-32.667 18.5 -56 18.5c-37.333 0 -67 -18.5 -89 -55.5s-33 -89.167 -33 -156.5c0 -74.667 14 -129.334 42 -164.001s66.667 -52 116 -52c35.333 0 65.666 8.66699 90.999 26
s41.666 41 48.999 71c10.667 -4 16 -13.667 16 -29c0 -8.66699 -1.33301 -18 -4 -28c-10.667 -35.333 -32.167 -62.5 -64.5 -81.5s-72.166 -28.5 -119.499 -28.5c-77.333 0 -137.166 23.167 -179.499 69.5zM131.5 569.5c-9 3 -13.833 5.83301 -14.5 8.5l125 149
c6 2 17 3 33 3c12.667 0 22 -1 28 -3l125 -149c-0.666992 -2.66699 -5.66699 -5.5 -15 -8.5s-16.333 -4.5 -21 -4.5l-119 84l-121 -84c-4.66699 0 -11.5 1.5 -20.5 4.5z" />
    <glyph glyph-name="Cdotaccent" unicode="&#x10a;" horiz-adv-x="608" 
d="M125 81c-48 62.667 -72.001 151.667 -72.001 267c0 114.667 24.833 203.5 74.5 266.5s118.834 94.5 207.501 94.5c36 0 70.333 -4.66699 103 -14s59.167 -22.333 79.5 -39s30.5 -36 30.5 -58c0 -18 -8 -33.167 -24 -45.5s-37.667 -18.166 -65 -17.499
c-10.667 88 -51.667 132 -123 132c-107.333 0 -161 -106.333 -161 -319s52.667 -319 158 -319c36.667 0 67.334 12.5 92.001 37.5s41 61.833 49 110.5c3.33301 0.666992 9 1 17 1c20.667 0 38.334 -4.83301 53.001 -14.5s22 -23.834 22 -42.501
c0 -26 -11.333 -49.333 -34 -70s-52.334 -36.5 -89.001 -47.5s-75.334 -16.5 -116.001 -16.5c-86.667 0 -154 31.333 -202 94zM289.499 772c-12.333 12 -18.5 26.333 -18.5 43c0 17.333 6 32 18 44s26.667 18 44 18c16.667 0 31 -6.16699 43 -18.5s18 -26.833 18 -43.5
s-6 -31 -18 -43s-26.333 -18 -43 -18s-31.167 6 -43.5 18z" />
    <glyph glyph-name="cdotaccent" unicode="&#x10b;" horiz-adv-x="509" 
d="M102.5 56.5c-42.333 46.333 -63.5 112.833 -63.5 199.5c0 84 21.667 150 65 198s104.333 72 183 72c56.667 0 100.5 -11.833 131.5 -35.5s46.5 -54.167 46.5 -91.5c0 -25.333 -7.5 -45.666 -22.5 -60.999s-34.5 -23 -58.5 -23c-11.333 0 -22.5 1.83301 -33.5 5.5
s-19.5 9.16699 -25.5 16.5c20 13.333 30 37 30 71c0 26.667 -7 46.167 -21 58.5s-32.667 18.5 -56 18.5c-37.333 0 -67 -18.5 -89 -55.5s-33 -89.167 -33 -156.5c0 -74.667 14 -129.334 42 -164.001s66.667 -52 116 -52c35.333 0 65.666 8.66699 90.999 26
s41.666 41 48.999 71c10.667 -4 16 -13.667 16 -29c0 -8.66699 -1.33301 -18 -4 -28c-10.667 -35.333 -32.167 -62.5 -64.5 -81.5s-72.166 -28.5 -119.499 -28.5c-77.333 0 -137.166 23.167 -179.499 69.5zM231 592c-12 12 -18 26.333 -18 43s6 31 18 43s26.333 18 43 18
c17.333 0 32 -6 44 -18s18 -26.333 18 -43s-6 -31 -18 -43s-26.667 -18 -44 -18c-16.667 0 -31 6 -43 18z" />
    <glyph glyph-name="Ccaron" unicode="&#x10c;" horiz-adv-x="608" 
d="M125 81c-48 62.667 -72.001 151.667 -72.001 267c0 114.667 24.833 203.5 74.5 266.5s118.834 94.5 207.501 94.5c36 0 70.333 -4.66699 103 -14s59.167 -22.333 79.5 -39s30.5 -36 30.5 -58c0 -18 -8 -33.167 -24 -45.5s-37.667 -18.166 -65 -17.499
c-10.667 88 -51.667 132 -123 132c-107.333 0 -161 -106.333 -161 -319s52.667 -319 158 -319c36.667 0 67.334 12.5 92.001 37.5s41 61.833 49 110.5c3.33301 0.666992 9 1 17 1c20.667 0 38.334 -4.83301 53.001 -14.5s22 -23.834 22 -42.501
c0 -26 -11.333 -49.333 -34 -70s-52.334 -36.5 -89.001 -47.5s-75.334 -16.5 -116.001 -16.5c-86.667 0 -154 31.333 -202 94zM333.999 744c-16 0 -26.667 1.33301 -32 4l-132 124c0.666992 3.33301 3.5 8 8.5 14s9.5 10 13.5 12l141 -79l140 79c4 -2 8.5 -6 13.5 -12
s7.83301 -10.667 8.5 -14l-132 -124c-5.33301 -2.66699 -15 -4 -29 -4z" />
    <glyph glyph-name="ccaron" unicode="&#x10d;" horiz-adv-x="509" 
d="M102.5 56.5c-42.333 46.333 -63.5 112.833 -63.5 199.5c0 84 21.667 150 65 198s104.333 72 183 72c56.667 0 100.5 -11.833 131.5 -35.5s46.5 -54.167 46.5 -91.5c0 -25.333 -7.5 -45.666 -22.5 -60.999s-34.5 -23 -58.5 -23c-11.333 0 -22.5 1.83301 -33.5 5.5
s-19.5 9.16699 -25.5 16.5c20 13.333 30 37 30 71c0 26.667 -7 46.167 -21 58.5s-32.667 18.5 -56 18.5c-37.333 0 -67 -18.5 -89 -55.5s-33 -89.167 -33 -156.5c0 -74.667 14 -129.334 42 -164.001s66.667 -52 116 -52c35.333 0 65.666 8.66699 90.999 26
s41.666 41 48.999 71c10.667 -4 16 -13.667 16 -29c0 -8.66699 -1.33301 -18 -4 -28c-10.667 -35.333 -32.167 -62.5 -64.5 -81.5s-72.166 -28.5 -119.499 -28.5c-77.333 0 -137.166 23.167 -179.499 69.5zM276 650l119 85c4.66699 0 11.667 -1.5 21 -4.5
s14.333 -5.83301 15 -8.5l-125 -149c-6 -2 -15.333 -3 -28 -3c-16 0 -27 1 -33 3l-125 149c0.666992 2.66699 5.5 5.5 14.5 8.5s15.833 4.5 20.5 4.5z" />
    <glyph glyph-name="Dcaron" unicode="&#x10e;" horiz-adv-x="647" 
d="M103.5 15.5c-11.667 10.333 -17.5 24.168 -17.5 41.501l-1 507v35.5c0 19.667 -1 38.167 -3 55.5s-5 31.666 -9 42.999c41.333 5.33301 113.333 8 216 8c98.667 0 174.167 -29.5 226.5 -88.5s78.5 -146.5 78.5 -262.5c0 -236.667 -99.667 -355 -299 -355h-145
c-19.333 0 -34.833 5.16699 -46.5 15.5zM289 43.002c62.667 0 108.833 23.499 138.5 70.499s44.5 125.167 44.5 234.5c0 108.667 -15 188.334 -45 239.001s-76 76 -138 76h-93v-620h93zM313.999 744.001c-16 0 -26.667 1.33301 -32 4l-132 124
c0.666992 3.33301 3.5 8 8.5 14s9.5 10 13.5 12l141 -79l140 79c4 -2 8.5 -6 13.5 -12s7.83301 -10.667 8.5 -14l-132 -124c-5.33301 -2.66699 -15 -4 -29 -4z" />
    <glyph glyph-name="dcaron" unicode="&#x10f;" horiz-adv-x="649" 
d="M591 756c19.333 0 35.667 -2.33301 49 -7c0 -28 -3.5 -57 -10.5 -87s-15.833 -57.667 -26.5 -83h-48c1.33301 18.667 2 34.667 2 48c0 48 -5.66699 88.667 -17 122c14.667 4.66699 31.667 7 51 7zM546.001 87c8 -12 11.999 -24.667 11.999 -38
c0 -16.667 -7.16699 -30.334 -21.5 -41.001s-32.5 -16 -54.5 -16c-58.667 0 -90.667 43 -96 129c-32 -89.333 -89.333 -134 -172 -134c-62 0 -106.667 23.167 -134 69.5s-41 105.833 -41 178.5c0 92.667 18.333 164.334 55 215.001s89 76 157 76c32 0 59 -6 81 -18
s38 -29 48 -51v86c0 67.333 -6.33301 122 -19 164c18.667 16.667 39.667 25 63 25c18.667 0 34 -5.33301 46 -16s18 -24.667 18 -42l-1 -548c0 -34.667 11 -52 33 -52c12.667 0 21.334 4.33301 26.001 13zM343 126c23.333 52 35 114.667 35 188
c0 46 -7.33301 83.167 -22 111.5s-41.667 42.5 -81 42.5c-79.333 0 -119 -76.667 -119 -230c0 -61.333 6.33301 -108.333 19 -141s36 -49 70 -49c42 0 74.667 26 98 78z" />
    <glyph glyph-name="Dcroat" unicode="&#x110;" horiz-adv-x="648" 
d="M515.5 617.5c52.333 -59 78.5 -146.498 78.5 -262.498c0 -236.667 -99.667 -355 -299 -355h-145c-19.333 0 -34.833 5.16699 -46.5 15.5s-17.5 24.166 -17.5 41.499l-1 270h-62c-2.66699 7.33301 -4 15 -4 23s1.33301 15 4 21h62v193v35.5c0 19.667 -1 38.167 -3 55.5
s-5 31.666 -9 42.999c41.333 5.33301 113.333 8 216 8c98.667 0 174.167 -29.5 226.5 -88.5zM427.5 113.502c29.667 47 44.499 125.166 44.499 234.499c0 108.667 -15 188.334 -45 239.001s-76 76 -138 76h-93v-292h137c2.66699 -6 4 -13 4 -21s-1.33301 -15.667 -4 -23
h-137v-284h93c62.667 0 108.834 23.5 138.501 70.5z" />
    <glyph glyph-name="dcroat" unicode="&#x111;" horiz-adv-x="580" 
d="M546 87c8 -12 11.998 -24.668 11.998 -38.001c0 -16.667 -7.16699 -30.334 -21.5 -41.001s-32.5 -16 -54.5 -16c-58.667 0 -90.667 43 -96 129c-32 -89.333 -89.333 -134 -172 -134c-62 0 -106.667 23.167 -134 69.5s-41 105.833 -41 178.5
c0 92.667 18.333 164.334 55 215.001s89 76 157 76c32 0 59 -6 81 -18s38 -29 48 -51v86c0 15.333 -0.333008 27.333 -1 36h-105c-2.66699 10.667 -4 18.334 -4 23.001s1.33301 11.667 4 21h103c-3.33301 31.333 -8.66602 59.333 -15.999 84c18.667 16.667 39.667 25 63 25
c18.667 0 34 -5.33301 46 -16s18 -24.667 18 -42v-51h68c2.66699 -6 4 -13 4 -21s-1.33301 -15.667 -4 -23h-68l-1 -453c0 -34.667 11 -52 33 -52c12.667 0 21.334 4.33301 26.001 13zM342.998 125.999c23.333 52 35 114.667 35 188c0 46 -7.33301 83.167 -22 111.5
s-41.667 42.5 -81 42.5c-79.333 0 -119 -76.667 -119 -230c0 -61.333 6.33301 -108.333 19 -141s36 -49 70 -49c42 0 74.667 26 98 78z" />
    <glyph glyph-name="Emacron" unicode="&#x112;" horiz-adv-x="546" 
d="M492.5 78c3.66699 -10 5.50098 -20.999 5.50098 -32.999c0 -12.667 -2.33301 -23.334 -7 -32.001s-11.334 -13 -20.001 -13h-318c-18.667 0 -33.834 5.16699 -45.501 15.5s-17.5 24.5 -17.5 42.5l-1 493c0 49.333 -5.33301 88 -16 116
c12.667 11.333 25.834 18.833 39.501 22.5s33.167 5.5 58.5 5.5h296c12 0 18 -10 18 -30c0 -13.333 -2.83301 -26.833 -8.5 -40.5s-12.834 -22.5 -21.501 -26.5c-84.667 26 -169.667 40 -255 42v-247h228c2.66699 -8 4 -17.667 4 -29c0 -8 -1.33301 -18.667 -4 -32h-227
v-277c43.333 0.666992 91.333 5.5 144 14.5s96.667 18.833 132 29.5c6.66699 -4 11.834 -11 15.501 -21zM416.001 829.001c2.66699 -10.667 4 -19.333 4 -26c0 -6 -1.33301 -15 -4 -27h-272c-2.66699 8 -4 17 -4 27s1.33301 18.667 4 26h272z" />
    <glyph glyph-name="emacron" unicode="&#x113;" horiz-adv-x="519" 
d="M475 113c0 -8 -2.33496 -17.6699 -7.00195 -29.0029c-12.667 -31.333 -35.167 -55.333 -67.5 -72s-71.166 -25 -116.499 -25c-76 0 -135.833 23.333 -179.5 70s-65.5 113 -65.5 199c0 84.667 21.333 150.834 64 198.501s103.667 71.5 183 71.5
c58 0 105 -12.833 141 -38.5s54 -62.167 54 -109.5c0 -49.333 -19.833 -87.166 -59.5 -113.499s-93.5 -39.5 -161.5 -39.5c-38.667 0 -73 1.66699 -103 5c4.66699 -62 20.334 -106.333 47.001 -133s63 -40 109 -40c36 0 66.833 7.33301 92.5 22s43.5 34.334 53.5 59.001
c10.667 -4.66699 16 -13 16 -25zM189.498 429.497c-22.333 -37 -33.502 -89.501 -33.502 -157.501c17.333 -2 35 -3 53 -3c45.333 0 82.333 9 111 27s43 51 43 99c0 32.667 -7.66699 55.834 -23 69.501s-34.666 20.5 -57.999 20.5c-39.333 0 -70.166 -18.5 -92.499 -55.5z
M407.996 652.996c2.66699 -12 4 -20.667 4 -26c0 -6 -1.33301 -15 -4 -27h-272c-2.66699 8 -4 17 -4 27c0 9.33301 1.33301 18 4 26h272z" />
    <glyph glyph-name="Ebreve" unicode="&#x114;" horiz-adv-x="546" 
d="M492.5 78c3.66699 -10 5.50098 -20.999 5.50098 -32.999c0 -12.667 -2.33301 -23.334 -7 -32.001s-11.334 -13 -20.001 -13h-318c-18.667 0 -33.834 5.16699 -45.501 15.5s-17.5 24.5 -17.5 42.5l-1 493c0 49.333 -5.33301 88 -16 116
c12.667 11.333 25.834 18.833 39.501 22.5s33.167 5.5 58.5 5.5h296c12 0 18 -10 18 -30c0 -13.333 -2.83301 -26.833 -8.5 -40.5s-12.834 -22.5 -21.501 -26.5c-84.667 26 -169.667 40 -255 42v-247h228c2.66699 -8 4 -17.667 4 -29c0 -8 -1.33301 -18.667 -4 -32h-227
v-277c43.333 0.666992 91.333 5.5 144 14.5s96.667 18.833 132 29.5c6.66699 -4 11.834 -11 15.501 -21zM368.001 776.501c-22.667 -22.333 -52.665 -33.501 -89.998 -33.501c-38.667 0 -69.334 11.5 -92.001 34.5s-37.334 51.5 -44.001 85.5l37 11
c7.33301 -24 20 -41.5 38 -52.5s39.667 -16.5 65 -16.5c24 0 44.667 5.83301 62 17.5s30.333 28.834 39 51.501l33 -9c-9.33301 -36.667 -25.333 -66.167 -48 -88.5z" />
    <glyph glyph-name="ebreve" unicode="&#x115;" horiz-adv-x="519" 
d="M475 113c0 -8 -2.33496 -17.6699 -7.00195 -29.0029c-12.667 -31.333 -35.167 -55.333 -67.5 -72s-71.166 -25 -116.499 -25c-76 0 -135.833 23.333 -179.5 70s-65.5 113 -65.5 199c0 84.667 21.333 150.834 64 198.501s103.667 71.5 183 71.5
c58 0 105 -12.833 141 -38.5s54 -62.167 54 -109.5c0 -49.333 -19.833 -87.166 -59.5 -113.499s-93.5 -39.5 -161.5 -39.5c-38.667 0 -73 1.66699 -103 5c4.66699 -62 20.334 -106.333 47.001 -133s63 -40 109 -40c36 0 66.833 7.33301 92.5 22s43.5 34.334 53.5 59.001
c10.667 -4.66699 16 -13 16 -25zM189.498 429.497c-22.333 -37 -33.502 -89.501 -33.502 -157.501c17.333 -2 35 -3 53 -3c45.333 0 82.333 9 111 27s43 51 43 99c0 32.667 -7.66699 55.834 -23 69.501s-34.666 20.5 -57.999 20.5c-39.333 0 -70.166 -18.5 -92.499 -55.5z
M384.996 721.996c16 -4.66699 27.332 -8.66699 33.999 -12c-24 -92 -73.667 -138 -149 -138c-43.333 0 -77.166 13 -101.499 39s-40.5 58.667 -48.5 98c9.33301 6 21.666 10.333 36.999 13c9.33301 -24 24 -42.833 44 -56.5s43.667 -20.5 71 -20.5
c50.667 0 88.334 25.667 113.001 77z" />
    <glyph glyph-name="Edotaccent" unicode="&#x116;" horiz-adv-x="546" 
d="M492.5 78c3.66699 -10 5.50098 -20.999 5.50098 -32.999c0 -12.667 -2.33301 -23.334 -7 -32.001s-11.334 -13 -20.001 -13h-318c-18.667 0 -33.834 5.16699 -45.501 15.5s-17.5 24.5 -17.5 42.5l-1 493c0 49.333 -5.33301 88 -16 116
c12.667 11.333 25.834 18.833 39.501 22.5s33.167 5.5 58.5 5.5h296c12 0 18 -10 18 -30c0 -13.333 -2.83301 -26.833 -8.5 -40.5s-12.834 -22.5 -21.501 -26.5c-84.667 26 -169.667 40 -255 42v-247h228c2.66699 -8 4 -17.667 4 -29c0 -8 -1.33301 -18.667 -4 -32h-227
v-277c43.333 0.666992 91.333 5.5 144 14.5s96.667 18.833 132 29.5c6.66699 -4 11.834 -11 15.501 -21zM235.501 772.001c-12.333 12 -18.5 26.333 -18.5 43c0 17.333 6 32 18 44s26.667 18 44 18c16.667 0 31 -6.16699 43 -18.5s18 -26.833 18 -43.5s-6 -31 -18 -43
s-26.333 -18 -43 -18s-31.167 6 -43.5 18z" />
    <glyph glyph-name="edotaccent" unicode="&#x117;" horiz-adv-x="519" 
d="M475 113c0 -8 -2.33496 -17.6699 -7.00195 -29.0029c-12.667 -31.333 -35.167 -55.333 -67.5 -72s-71.166 -25 -116.499 -25c-76 0 -135.833 23.333 -179.5 70s-65.5 113 -65.5 199c0 84.667 21.333 150.834 64 198.501s103.667 71.5 183 71.5
c58 0 105 -12.833 141 -38.5s54 -62.167 54 -109.5c0 -49.333 -19.833 -87.166 -59.5 -113.499s-93.5 -39.5 -161.5 -39.5c-38.667 0 -73 1.66699 -103 5c4.66699 -62 20.334 -106.333 47.001 -133s63 -40 109 -40c36 0 66.833 7.33301 92.5 22s43.5 34.334 53.5 59.001
c10.667 -4.66699 16 -13 16 -25zM189.498 429.497c-22.333 -37 -33.502 -89.501 -33.502 -157.501c17.333 -2 35 -3 53 -3c45.333 0 82.333 9 111 27s43 51 43 99c0 32.667 -7.66699 55.834 -23 69.501s-34.666 20.5 -57.999 20.5c-39.333 0 -70.166 -18.5 -92.499 -55.5z
M225.996 591.996c-12 12 -18 26.333 -18 43s6 31 18 43s26.333 18 43 18c17.333 0 32 -6 44 -18s18 -26.333 18 -43s-6 -31 -18 -43s-26.667 -18 -44 -18c-16.667 0 -31 6 -43 18z" />
    <glyph glyph-name="Eogonek" unicode="&#x118;" horiz-adv-x="546" 
d="M524 -97l-1.99707 -8.99902c-8.66699 -20.667 -23.667 -37.834 -45 -51.501s-47 -20.5 -77 -20.5c-24.667 0 -46.834 6.33301 -66.501 19s-29.5 32.334 -29.5 59.001c0 42 25.667 75.333 77 100h-228c-18.667 0 -33.834 5.16699 -45.501 15.5s-17.5 24.5 -17.5 42.5
l-1 493c0 49.333 -5.33301 88 -16 116c12.667 11.333 25.834 18.833 39.501 22.5s33.167 5.5 58.5 5.5h296c12 0 18 -10 18 -30c0 -13.333 -2.83301 -26.833 -8.5 -40.5s-12.834 -22.5 -21.501 -26.5c-84.667 26 -169.667 40 -255 42v-247h228c2.66699 -8 4 -17.667 4 -29
c0 -8 -1.33301 -18.667 -4 -32h-227v-277c43.333 0.666992 91.333 5.5 144 14.5s96.667 18.833 132 29.5c6.66699 -4 11.834 -11 15.501 -21s5.5 -21 5.5 -33c0 -12.667 -2.33301 -23.334 -7 -32.001s-11.334 -13 -20.001 -13h-21c-24 -12 -42 -24.833 -54 -38.5
s-18 -29.834 -18 -48.501c0 -13.333 3.66699 -24.333 11 -33s19.666 -13 36.999 -13c19.333 0 36 5.33301 50 16s25.333 24.334 34 41.001c9.33301 -6 14 -13 14 -21z" />
    <glyph glyph-name="eogonek" unicode="&#x119;" horiz-adv-x="519" 
d="M478 -83l-1.99902 -9.00195c-8.66699 -20.667 -23.667 -37.834 -45 -51.501s-47 -20.5 -77 -20.5c-24.667 0 -46.834 6.33301 -66.501 19s-29.5 32.334 -29.5 59.001c0 27.333 11.667 51.666 35 72.999h-9c-76 0 -135.833 23.333 -179.5 70s-65.5 113 -65.5 199
c0 84.667 21.333 150.834 64 198.501s103.667 71.5 183 71.5c58 0 105 -12.833 141 -38.5s54 -62.167 54 -109.5c0 -49.333 -19.833 -87.166 -59.5 -113.499s-93.5 -39.5 -161.5 -39.5c-38.667 0 -73 1.66699 -103 5c4.66699 -62 20.334 -106.333 47.001 -133
s63 -40 109 -40c36 0 66.833 7.33301 92.5 22s43.5 34.334 53.5 59.001c10.667 -4.66699 16 -13 16 -25c0 -8 -2.33301 -17.667 -7 -29c-12 -28.667 -32 -51.334 -60 -68.001l-6 -3l-2 -1c-22.667 -12 -39.667 -24.667 -51 -38s-17 -29 -17 -47
c0 -13.333 3.66699 -24.333 11 -33s19.666 -13 36.999 -13c19.333 0 36 5.33301 50 16s25.333 24.334 34 41.001c9.33301 -6 14 -13 14 -21zM189.501 429.498c-22.333 -37 -33.502 -89.501 -33.502 -157.501c17.333 -2 35 -3 53 -3c45.333 0 82.333 9 111 27s43 51 43 99
c0 32.667 -7.66699 55.834 -23 69.501s-34.666 20.5 -57.999 20.5c-39.333 0 -70.166 -18.5 -92.499 -55.5z" />
    <glyph glyph-name="Ecaron" unicode="&#x11a;" horiz-adv-x="546" 
d="M492.5 78c3.66699 -10 5.50098 -20.999 5.50098 -32.999c0 -12.667 -2.33301 -23.334 -7 -32.001s-11.334 -13 -20.001 -13h-318c-18.667 0 -33.834 5.16699 -45.501 15.5s-17.5 24.5 -17.5 42.5l-1 493c0 49.333 -5.33301 88 -16 116
c12.667 11.333 25.834 18.833 39.501 22.5s33.167 5.5 58.5 5.5h296c12 0 18 -10 18 -30c0 -13.333 -2.83301 -26.833 -8.5 -40.5s-12.834 -22.5 -21.501 -26.5c-84.667 26 -169.667 40 -255 42v-247h228c2.66699 -8 4 -17.667 4 -29c0 -8 -1.33301 -18.667 -4 -32h-227
v-277c43.333 0.666992 91.333 5.5 144 14.5s96.667 18.833 132 29.5c6.66699 -4 11.834 -11 15.501 -21zM280.001 744.001c-16 0 -26.667 1.33301 -32 4l-132 124c0.666992 3.33301 3.5 8 8.5 14s9.5 10 13.5 12l141 -79l140 79c4 -2 8.5 -6 13.5 -12
s7.83301 -10.667 8.5 -14l-132 -124c-5.33301 -2.66699 -15 -4 -29 -4z" />
    <glyph glyph-name="ecaron" unicode="&#x11b;" horiz-adv-x="519" 
d="M475 113c0 -8 -2.33496 -17.6699 -7.00195 -29.0029c-12.667 -31.333 -35.167 -55.333 -67.5 -72s-71.166 -25 -116.499 -25c-76 0 -135.833 23.333 -179.5 70s-65.5 113 -65.5 199c0 84.667 21.333 150.834 64 198.501s103.667 71.5 183 71.5
c58 0 105 -12.833 141 -38.5s54 -62.167 54 -109.5c0 -49.333 -19.833 -87.166 -59.5 -113.499s-93.5 -39.5 -161.5 -39.5c-38.667 0 -73 1.66699 -103 5c4.66699 -62 20.334 -106.333 47.001 -133s63 -40 109 -40c36 0 66.833 7.33301 92.5 22s43.5 34.334 53.5 59.001
c10.667 -4.66699 16 -13 16 -25zM189.498 429.497c-22.333 -37 -33.502 -89.501 -33.502 -157.501c17.333 -2 35 -3 53 -3c45.333 0 82.333 9 111 27s43 51 43 99c0 32.667 -7.66699 55.834 -23 69.501s-34.666 20.5 -57.999 20.5c-39.333 0 -70.166 -18.5 -92.499 -55.5z
M269.996 649.996l119 85c4.66699 0 11.667 -1.5 21 -4.5s14.333 -5.83301 15 -8.5l-125 -149c-6 -2 -15.333 -3 -28 -3c-16 0 -27 1 -33 3l-125 149c0.666992 2.66699 5.5 5.5 14.5 8.5s15.833 4.5 20.5 4.5z" />
    <glyph glyph-name="Gcircumflex" unicode="&#x11c;" horiz-adv-x="641" 
d="M128 80.5c-50 62.333 -74.999 151.164 -74.999 266.497s25.667 204.5 77 267.5s123.666 94.5 216.999 94.5c34.667 0 68.167 -4.66699 100.5 -14s58.5 -22.333 78.5 -39s30 -35.667 30 -57c0 -18 -8 -33.333 -24 -46s-38 -18.667 -66 -18
c-4.66699 44 -17.167 77 -37.5 99s-46.833 33 -79.5 33c-59.333 0 -103.166 -26.5 -131.499 -79.5s-42.5 -132.833 -42.5 -239.5c0 -107.333 14 -187.333 42 -240s71.333 -79 130 -79c49.333 0 83.333 19.333 102 58s28 83.334 28 134.001c0 35.333 -5 64.833 -15 88.5
s-27 39.834 -51 48.501c4 11.333 12.333 20 25 26s27 9 43 9c33.333 0 60.166 -12 80.499 -36s30.5 -60.667 30.5 -110c0 -52 -10.167 -97.667 -30.5 -137s-49.333 -69.666 -87 -90.999s-81.5 -32 -131.5 -32c-92 0 -163 31.167 -213 93.5zM497.001 760.998
c-0.666992 -3.33301 -3.5 -8 -8.5 -14s-9.5 -9.66699 -13.5 -11l-140 78l-141 -78c-4 1.33301 -8.5 5 -13.5 11s-7.83301 10.667 -8.5 14l132 124c5.33301 2.66699 16 4 32 4c14 0 23.667 -1.33301 29 -4z" />
    <glyph glyph-name="gcircumflex" unicode="&#x11d;" horiz-adv-x="542" 
d="M94 -199c-34 19.333 -51 48.666 -51 87.999c0 24 7.33301 43.167 22 57.5s33.667 21.5 57 21.5c24 0 41 -6.33301 51 -19c-19.333 -15.333 -29 -37 -29 -65c0 -23.333 7.33301 -41.666 22 -54.999s35 -20 61 -20c48.667 0 85.167 19.667 109.5 59s36.5 95 36.5 167v72
c-11.333 -34.667 -30.5 -61.334 -57.5 -80.001s-60.167 -28 -99.5 -28c-56 0 -99.5 20 -130.5 60s-46.5 103 -46.5 189c0 82 18.333 148.833 55 200.5s97.334 77.5 182.001 77.5c40.667 0 79.167 -5.66699 115.5 -17s66.166 -27.666 89.499 -48.999v-415
c0 -182 -85.667 -273 -257 -273c-52.667 0 -96 9.66699 -130 29zM340.5 107.5c20.333 36.333 30.8359 83.167 31.5029 140.5l1 208c-10 9.33301 -23.333 16.5 -40 21.5s-34.334 7.5 -53.001 7.5c-48 0 -80.833 -21.5 -98.5 -64.5s-26.5 -103.833 -26.5 -182.5
c0 -67.333 7.16699 -115 21.5 -143s38.166 -42 71.499 -42c41.333 0 72.166 18.167 92.499 54.5zM136.503 573.501c-9 3 -13.833 5.83301 -14.5 8.5l125 149c6 2 17 3 33 3c12.667 0 22 -1 28 -3l125 -149c-0.666992 -2.66699 -5.66699 -5.5 -15 -8.5s-16.333 -4.5 -21 -4.5
l-119 84l-121 -84c-4.66699 0 -11.5 1.5 -20.5 4.5z" />
    <glyph glyph-name="Gbreve" unicode="&#x11e;" horiz-adv-x="641" 
d="M128 80.5c-50 62.333 -74.999 151.164 -74.999 266.497s25.667 204.5 77 267.5s123.666 94.5 216.999 94.5c34.667 0 68.167 -4.66699 100.5 -14s58.5 -22.333 78.5 -39s30 -35.667 30 -57c0 -18 -8 -33.333 -24 -46s-38 -18.667 -66 -18
c-4.66699 44 -17.167 77 -37.5 99s-46.833 33 -79.5 33c-59.333 0 -103.166 -26.5 -131.499 -79.5s-42.5 -132.833 -42.5 -239.5c0 -107.333 14 -187.333 42 -240s71.333 -79 130 -79c49.333 0 83.333 19.333 102 58s28 83.334 28 134.001c0 35.333 -5 64.833 -15 88.5
s-27 39.834 -51 48.501c4 11.333 12.333 20 25 26s27 9 43 9c33.333 0 60.166 -12 80.499 -36s30.5 -60.667 30.5 -110c0 -52 -10.167 -97.667 -30.5 -137s-49.333 -69.666 -87 -90.999s-81.5 -32 -131.5 -32c-92 0 -163 31.167 -213 93.5zM427.001 776.498
c-22.667 -22.333 -52.665 -33.501 -89.998 -33.501c-38.667 0 -69.334 11.5 -92.001 34.5s-37.334 51.5 -44.001 85.5l37 11c7.33301 -24 20 -41.5 38 -52.5s39.667 -16.5 65 -16.5c24 0 44.667 5.83301 62 17.5s30.333 28.834 39 51.501l33 -9
c-9.33301 -36.667 -25.333 -66.167 -48 -88.5z" />
    <glyph glyph-name="gbreve" unicode="&#x11f;" horiz-adv-x="542" 
d="M94 -199c-34 19.333 -51 48.666 -51 87.999c0 24 7.33301 43.167 22 57.5s33.667 21.5 57 21.5c24 0 41 -6.33301 51 -19c-19.333 -15.333 -29 -37 -29 -65c0 -23.333 7.33301 -41.666 22 -54.999s35 -20 61 -20c48.667 0 85.167 19.667 109.5 59s36.5 95 36.5 167v72
c-11.333 -34.667 -30.5 -61.334 -57.5 -80.001s-60.167 -28 -99.5 -28c-56 0 -99.5 20 -130.5 60s-46.5 103 -46.5 189c0 82 18.333 148.833 55 200.5s97.334 77.5 182.001 77.5c40.667 0 79.167 -5.66699 115.5 -17s66.166 -27.666 89.499 -48.999v-415
c0 -182 -85.667 -273 -257 -273c-52.667 0 -96 9.66699 -130 29zM340.5 107.5c20.333 36.333 30.8359 83.167 31.5029 140.5l1 208c-10 9.33301 -23.333 16.5 -40 21.5s-34.334 7.5 -53.001 7.5c-48 0 -80.833 -21.5 -98.5 -64.5s-26.5 -103.833 -26.5 -182.5
c0 -67.333 7.16699 -115 21.5 -143s38.166 -42 71.499 -42c41.333 0 72.166 18.167 92.499 54.5zM395.003 726.001c16 -4.66699 27.332 -8.66699 33.999 -12c-24 -92 -73.667 -138 -149 -138c-43.333 0 -77.166 13 -101.499 39s-40.5 58.667 -48.5 98
c9.33301 6 21.666 10.333 36.999 13c9.33301 -24 24 -42.833 44 -56.5s43.667 -20.5 71 -20.5c50.667 0 88.334 25.667 113.001 77z" />
    <glyph glyph-name="Gdotaccent" unicode="&#x120;" horiz-adv-x="641" 
d="M128 80.5c-50 62.333 -74.999 151.164 -74.999 266.497s25.667 204.5 77 267.5s123.666 94.5 216.999 94.5c34.667 0 68.167 -4.66699 100.5 -14s58.5 -22.333 78.5 -39s30 -35.667 30 -57c0 -18 -8 -33.333 -24 -46s-38 -18.667 -66 -18
c-4.66699 44 -17.167 77 -37.5 99s-46.833 33 -79.5 33c-59.333 0 -103.166 -26.5 -131.499 -79.5s-42.5 -132.833 -42.5 -239.5c0 -107.333 14 -187.333 42 -240s71.333 -79 130 -79c49.333 0 83.333 19.333 102 58s28 83.334 28 134.001c0 35.333 -5 64.833 -15 88.5
s-27 39.834 -51 48.501c4 11.333 12.333 20 25 26s27 9 43 9c33.333 0 60.166 -12 80.499 -36s30.5 -60.667 30.5 -110c0 -52 -10.167 -97.667 -30.5 -137s-49.333 -69.666 -87 -90.999s-81.5 -32 -131.5 -32c-92 0 -163 31.167 -213 93.5zM295.501 771.998
c-12.333 12 -18.5 26.333 -18.5 43c0 17.333 6 32 18 44s26.667 18 44 18c16.667 0 31 -6.16699 43 -18.5s18 -26.833 18 -43.5s-6 -31 -18 -43s-26.333 -18 -43 -18s-31.167 6 -43.5 18z" />
    <glyph glyph-name="gdotaccent" unicode="&#x121;" horiz-adv-x="542" 
d="M94 -199c-34 19.333 -51 48.666 -51 87.999c0 24 7.33301 43.167 22 57.5s33.667 21.5 57 21.5c24 0 41 -6.33301 51 -19c-19.333 -15.333 -29 -37 -29 -65c0 -23.333 7.33301 -41.666 22 -54.999s35 -20 61 -20c48.667 0 85.167 19.667 109.5 59s36.5 95 36.5 167v72
c-11.333 -34.667 -30.5 -61.334 -57.5 -80.001s-60.167 -28 -99.5 -28c-56 0 -99.5 20 -130.5 60s-46.5 103 -46.5 189c0 82 18.333 148.833 55 200.5s97.334 77.5 182.001 77.5c40.667 0 79.167 -5.66699 115.5 -17s66.166 -27.666 89.499 -48.999v-415
c0 -182 -85.667 -273 -257 -273c-52.667 0 -96 9.66699 -130 29zM340.5 107.5c20.333 36.333 30.8359 83.167 31.5029 140.5l1 208c-10 9.33301 -23.333 16.5 -40 21.5s-34.334 7.5 -53.001 7.5c-48 0 -80.833 -21.5 -98.5 -64.5s-26.5 -103.833 -26.5 -182.5
c0 -67.333 7.16699 -115 21.5 -143s38.166 -42 71.499 -42c41.333 0 72.166 18.167 92.499 54.5zM236.003 596.001c-12 12 -18 26.333 -18 43s6 31 18 43s26.333 18 43 18c17.333 0 32 -6 44 -18s18 -26.333 18 -43s-6 -31 -18 -43s-26.667 -18 -44 -18
c-16.667 0 -31 6 -43 18z" />
    <glyph glyph-name="Gcommaaccent" unicode="&#x122;" horiz-adv-x="641" 
d="M128 80.5c-50 62.333 -74.999 151.164 -74.999 266.497s25.667 204.5 77 267.5s123.666 94.5 216.999 94.5c34.667 0 68.167 -4.66699 100.5 -14s58.5 -22.333 78.5 -39s30 -35.667 30 -57c0 -18 -8 -33.333 -24 -46s-38 -18.667 -66 -18
c-4.66699 44 -17.167 77 -37.5 99s-46.833 33 -79.5 33c-59.333 0 -103.166 -26.5 -131.499 -79.5s-42.5 -132.833 -42.5 -239.5c0 -107.333 14 -187.333 42 -240s71.333 -79 130 -79c49.333 0 83.333 19.333 102 58s28 83.334 28 134.001c0 35.333 -5 64.833 -15 88.5
s-27 39.834 -51 48.501c4 11.333 12.333 20 25 26s27 9 43 9c33.333 0 60.166 -12 80.499 -36s30.5 -60.667 30.5 -110c0 -52 -10.167 -97.667 -30.5 -137s-49.333 -69.666 -87 -90.999s-81.5 -32 -131.5 -32c-92 0 -163 31.167 -213 93.5zM300.001 -236.002
c22.667 26.667 34.001 51.001 34.001 73.001c0 20.667 -5.33301 35.167 -16 43.5s-24.334 14.833 -41.001 19.5c0 17.333 6.33301 32.666 19 45.999s29 20 49 20c18.667 0 34.5 -6.66699 47.5 -20s19.5 -34 19.5 -62c0 -50 -25 -97.333 -75 -142
c-14 2.66699 -26.333 10 -37 22z" />
    <glyph glyph-name="gcommaaccent" unicode="&#x123;" horiz-adv-x="542" 
d="M321 766c-18 -26.667 -27 -50.334 -27 -71.001c0 -15.333 4.5 -27.5 13.5 -36.5s20.167 -15.167 33.5 -18.5c0 -17.333 -6.16699 -32.166 -18.5 -44.499s-27.5 -18.5 -45.5 -18.5c-17.333 0 -32.5 5.83301 -45.5 17.5s-19.5 30.167 -19.5 55.5c0 19.333 5 39.333 15 60
s27.667 46 53 76c16 -2 29.667 -8.66699 41 -20zM94 -199c-34 19.333 -51 48.666 -51 87.999c0 24 7.33301 43.167 22 57.5s33.667 21.5 57 21.5c24 0 41 -6.33301 51 -19c-19.333 -15.333 -29 -37 -29 -65c0 -23.333 7.33301 -41.666 22 -54.999s35 -20 61 -20
c48.667 0 85.167 19.667 109.5 59s36.5 95 36.5 167v72c-11.333 -34.667 -30.5 -61.334 -57.5 -80.001s-60.167 -28 -99.5 -28c-56 0 -99.5 20 -130.5 60s-46.5 103 -46.5 189c0 82 18.333 148.833 55 200.5s97.334 77.5 182.001 77.5c40.667 0 79.167 -5.66699 115.5 -17
s66.166 -27.666 89.499 -48.999v-415c0 -182 -85.667 -273 -257 -273c-52.667 0 -96 9.66699 -130 29zM340.5 107.5c20.333 36.333 30.8359 83.167 31.5029 140.5l1 208c-10 9.33301 -23.333 16.5 -40 21.5s-34.334 7.5 -53.001 7.5c-48 0 -80.833 -21.5 -98.5 -64.5
s-26.5 -103.833 -26.5 -182.5c0 -67.333 7.16699 -115 21.5 -143s38.166 -42 71.499 -42c41.333 0 72.166 18.167 92.499 54.5z" />
    <glyph glyph-name="Hcircumflex" unicode="&#x124;" horiz-adv-x="691" 
d="M618 12c-18.667 -16.667 -39.998 -25.001 -63.998 -25.001c-18.667 0 -33.834 5.16699 -45.501 15.5s-17.5 24.5 -17.5 42.5l-1 289h-289v-203c0 -52 5.33301 -91.667 16 -119c-18.667 -16.667 -40 -25 -64 -25c-18.667 0 -33.834 5.16699 -45.501 15.5
s-17.5 24.5 -17.5 42.5l-1 519c0 50.667 -5.33301 90.334 -16 119.001c6.66699 6 15.5 11.5 26.5 16.5s23.5 7.5 37.5 7.5c18.667 0 34 -5.16699 46 -15.5s18 -24.5 18 -42.5v-253h289v168c0 48 -5.33301 87.667 -16 119c18 16 39 24 63 24c19.333 0 35 -5.16699 47 -15.5
s18 -24.5 18 -42.5v-518c0 -52 5.33301 -91.667 16 -119zM505.002 760.999c-0.666992 -3.33301 -3.5 -8 -8.5 -14s-9.5 -9.66699 -13.5 -11l-140 78l-141 -78c-4 1.33301 -8.5 5 -13.5 11s-7.83301 10.667 -8.5 14l132 124c5.33301 2.66699 16 4 32 4
c14 0 23.667 -1.33301 29 -4z" />
    <glyph glyph-name="hcircumflex" unicode="&#x125;" horiz-adv-x="567" 
d="M515 12c-18 -16.667 -38.667 -25 -62 -25c-18.667 0 -33.834 5.33301 -45.501 16s-17.5 24.667 -17.5 42v261c0 56.667 -6.5 98.5 -19.5 125.5s-35.833 40.5 -68.5 40.5c-21.333 0 -41.166 -8.5 -59.499 -25.5s-33.166 -43 -44.499 -78s-17 -78.5 -17 -130.5
c0 -78.667 0.833008 -130.667 2.5 -156s6.83398 -49 15.501 -71c-6 -6 -14.333 -11.5 -25 -16.5s-23 -7.5 -37 -7.5c-18.667 0 -33.834 5.66699 -45.501 17s-17.5 26.666 -17.5 45.999l-1 624c0 18.667 5.5 32.834 16.5 42.501s25.833 14.5 44.5 14.5
c13.333 0 25.833 -2.5 37.5 -7.5s21.167 -10.5 28.5 -16.5c-7.33301 -24 -12.333 -51.333 -15 -82s-4.33398 -70.334 -5.00098 -119.001v-88c14 34.667 34.5 61.334 61.5 80.001s59.167 28 96.5 28c54.667 0 95 -17 121 -51s39 -85 39 -153l1 -191
c0 -52 5.33301 -91.667 16 -119zM-2.5 744.5c-9 3 -13.833 5.83301 -14.5 8.5l125 149c6 2 17 3 33 3c12.667 0 22 -1 28 -3l125 -149c-0.666992 -2.66699 -5.66699 -5.5 -15 -8.5s-16.333 -4.5 -21 -4.5l-119 84l-121 -84c-4.66699 0 -11.5 1.5 -20.5 4.5z" />
    <glyph glyph-name="Hbar" unicode="&#x126;" horiz-adv-x="691" 
d="M602 525l0.00195312 -393.999c0 -52 5.33301 -91.667 16 -119c-18.667 -16.667 -40 -25 -64 -25c-18.667 0 -33.834 5.16699 -45.501 15.5s-17.5 24.5 -17.5 42.5l-1 289h-289v-203c0 -52 5.33301 -91.667 16 -119c-18.667 -16.667 -40 -25 -64 -25
c-18.667 0 -33.834 5.16699 -45.501 15.5s-17.5 24.5 -17.5 42.5l-1 480h-51c-2.66699 10.667 -4 18 -4 22c0 5.33301 1.33301 12.666 4 21.999h51c0 46.667 -5.33301 84.667 -16 114c6.66699 6 15.5 11.5 26.5 16.5s23.5 7.5 37.5 7.5c18.667 0 34 -5.16699 46 -15.5
s18 -24.5 18 -42.5v-80h289c0 44 -5.33301 82 -16 114c18 16 39 24 63 24c19.333 0 35 -5.16699 47 -15.5s18 -24.5 18 -42.5v-80h44c3.33301 -8 5 -15.333 5 -22c0 -6 -1.66699 -13.333 -5 -22h-44zM490.002 525.001h-289v-129h289v129z" />
    <glyph glyph-name="hbar" unicode="&#x127;" horiz-adv-x="571" 
d="M515 12c-18 -16.667 -38.6689 -25 -62.002 -25c-18.667 0 -33.834 5.33301 -45.501 16s-17.5 24.667 -17.5 42v261c0 56.667 -6.5 98.5 -19.5 125.5s-35.833 40.5 -68.5 40.5c-21.333 0 -41.166 -8.5 -59.499 -25.5s-33.166 -43 -44.499 -78s-17 -78.5 -17 -130.5
c0 -78.667 0.833008 -130.667 2.5 -156s6.83398 -49 15.501 -71c-6 -6 -14.333 -11.5 -25 -16.5s-23 -7.5 -37 -7.5c-18.667 0 -33.834 5.66699 -45.501 17s-17.5 26.666 -17.5 45.999l-1 522h-67c-2 7.33301 -3 14.666 -3 21.999s1 14.333 3 21h67v59
c0 18.667 5.5 32.834 16.5 42.501s25.833 14.5 44.5 14.5c13.333 0 25.833 -2.5 37.5 -7.5s21.167 -10.5 28.5 -16.5c-7.33301 -26 -12.666 -56.667 -15.999 -92h112c2.66699 -6 4 -13 4 -21c0 -8.66699 -1.33301 -16 -4 -22h-115l-1 -66v-88
c14 34.667 34.5 61.334 61.5 80.001s59.167 28 96.5 28c54.667 0 95 -17 121 -51s39 -85 39 -153l1 -191c0 -52 5.33301 -91.667 16 -119z" />
    <glyph glyph-name="Itilde" unicode="&#x128;" horiz-adv-x="290" 
d="M107.5 2.5c-11.667 10.333 -17.499 24.499 -17.499 42.499l-1 519c0 50.667 -5.33301 90.334 -16 119.001c6.66699 6 15.5 11.5 26.5 16.5s23.5 7.5 37.5 7.5c18.667 0 34 -5.16699 46 -15.5s18 -24.5 18 -42.5v-518c0 -52 5.33301 -91.667 16 -119
c-18.667 -16.667 -40 -25 -64 -25c-18.667 0 -33.834 5.16699 -45.501 15.5zM255.501 782.999c-15 -17.333 -34.167 -26.001 -57.5 -26.001c-11.333 0 -22.333 1.83301 -33 5.5s-22.667 9.16699 -36 16.5c-13.333 6.66699 -24.833 11.834 -34.5 15.501s-19.5 5.5 -29.5 5.5
c-28.667 0 -48.667 -13.333 -60 -40l-5 -1c-7.33301 0 -15 3.33301 -23 10c4 34 14.5 58.5 31.5 73.5s37.833 22.5 62.5 22.5c11.333 0 22.333 -1.83301 33 -5.5s22.667 -9.16699 36 -16.5c2 -1.33301 7.66699 -4 17 -8s18.166 -7.16699 26.499 -9.5
s16.166 -3.5 23.499 -3.5c14.667 0 25.334 3 32.001 9s13.667 15.667 21 29c6.66699 0 11.834 -0.5 15.501 -1.5s7.16699 -3.16699 10.5 -6.5c-5.33301 -28.667 -15.5 -51.667 -30.5 -69z" />
    <glyph glyph-name="itilde" unicode="&#x129;" horiz-adv-x="258" 
d="M201 12c-18.667 -16.667 -39.667 -25 -63 -25c-17.333 0 -31.833 5.33301 -43.5 16s-17.5 24.667 -17.5 42l-1 338c0 51.333 -5.33301 91.333 -16 120c20 16 40.667 24 62 24c18 0 32.833 -5.16699 44.5 -15.5s17.5 -24.5 17.5 -42.5l1 -338
c0 -52 5.33301 -91.667 16 -119zM238.5 605.5c-14.333 -17.667 -32.832 -26.499 -55.499 -26.499c-11.333 0 -22 2.16699 -32 6.5s-21 10.166 -33 17.499c-12.667 7.33301 -23.334 12.833 -32.001 16.5s-17.667 5.5 -27 5.5c-28 0 -48.333 -13.667 -61 -41h-2
c-7.33301 0 -15 3.33301 -23 10c3.33301 32.667 13.5 56.667 30.5 72s36.833 23 59.5 23c11.333 0 21.833 -2 31.5 -6s21.167 -10 34.5 -18c12 -7.33301 22.667 -13 32 -17s19.333 -6 30 -6c14 0 24.667 3.5 32 10.5s13.666 17.5 18.999 31.5c6 0 10.833 -0.5 14.5 -1.5
s6.83398 -3.16699 9.50098 -6.5c-4 -29.333 -13.167 -52.833 -27.5 -70.5z" />
    <glyph glyph-name="Imacron" unicode="&#x12a;" horiz-adv-x="290" 
d="M107.5 2.5c-11.667 10.333 -17.499 24.499 -17.499 42.499l-1 519c0 50.667 -5.33301 90.334 -16 119.001c6.66699 6 15.5 11.5 26.5 16.5s23.5 7.5 37.5 7.5c18.667 0 34 -5.16699 46 -15.5s18 -24.5 18 -42.5v-518c0 -52 5.33301 -91.667 16 -119
c-18.667 -16.667 -40 -25 -64 -25c-18.667 0 -33.834 5.16699 -45.501 15.5zM270.001 828.999c2.66699 -10.667 4 -19.333 4 -26c0 -6 -1.33301 -15 -4 -27h-272c-2.66699 8 -4 17 -4 27s1.33301 18.667 4 26h272z" />
    <glyph glyph-name="imacron" unicode="&#x12b;" horiz-adv-x="258" 
d="M201 12c-18.667 -16.667 -39.667 -25 -63 -25c-17.333 0 -31.833 5.33301 -43.5 16s-17.5 24.667 -17.5 42l-1 338c0 51.333 -5.33301 91.333 -16 120c20 16 40.667 24 62 24c18 0 32.833 -5.16699 44.5 -15.5s17.5 -24.5 17.5 -42.5l1 -338
c0 -52 5.33301 -91.667 16 -119zM258 653c2.66699 -12 4 -20.667 4 -26c0 -6 -1.33301 -15 -4 -27h-272c-2.66699 8 -4 17 -4 27c0 9.33301 1.33301 18 4 26h272z" />
    <glyph glyph-name="Iogonek" unicode="&#x12e;" horiz-adv-x="290" 
d="M273 -96l-1.99902 -9.00195c-8.66699 -20.667 -23.667 -37.834 -45 -51.501s-47 -20.5 -77 -20.5c-24.667 0 -46.834 6.33301 -66.501 19s-29.5 32.334 -29.5 59.001c0 38.667 21.667 70 65 94c-8.66699 4.66699 -15.5 11.334 -20.5 20.001s-7.5 18.667 -7.5 30l-1 519
c0 50.667 -5.33301 90.334 -16 119.001c6.66699 6 15.5 11.5 26.5 16.5s23.5 7.5 37.5 7.5c18.667 0 34 -5.16699 46 -15.5s18 -24.5 18 -42.5v-518c0 -52 5.33301 -91.667 16 -119c-9.33301 -9.33301 -20.666 -16 -33.999 -20c-18.667 -10.667 -32.667 -22.334 -42 -35.001
s-14 -27 -14 -43c0 -13.333 3.66699 -24.333 11 -33s19.666 -13 36.999 -13c19.333 0 36 5.33301 50 16s25.333 24.334 34 41.001c9.33301 -6 14 -13 14 -21z" />
    <glyph glyph-name="iogonek" unicode="&#x12f;" horiz-adv-x="267" 
d="M84.5 607c-13 12.667 -19.5 28 -19.5 46c0 18.667 6.5 34.5 19.5 47.5s28.833 19.5 47.5 19.5c18 0 33.5 -6.5 46.5 -19.5s19.5 -28.833 19.5 -47.5c0 -18 -6.5 -33.333 -19.5 -46s-28.5 -19 -46.5 -19c-18.667 0 -34.5 6.33301 -47.5 19zM260 -93
c0 -1.33301 -0.665039 -4.66699 -1.99805 -10c-8.66699 -20.667 -23.667 -37.667 -45 -51s-47 -20 -77 -20c-24.667 0 -46.834 6.16699 -66.501 18.5s-29.5 32.166 -29.5 59.499c0 38.667 22 70 66 94c-15.333 10.667 -23 26.334 -23 47.001l-1 338
c0 48.667 -5.33301 88.667 -16 120c20 16 40.333 24 61 24c18 0 32.833 -5.16699 44.5 -15.5s17.5 -24.5 17.5 -42.5l2 -338c0 -52 5.33301 -91.667 16 -119c-14.667 -13.333 -30.667 -21.333 -48 -24c-30 -19.333 -45 -43 -45 -71c0 -13.333 3.66699 -24.333 11 -33
s19.666 -13 36.999 -13c18.667 0 35.167 5.33301 49.5 16s25.833 24 34.5 40c9.33301 -6 14 -12.667 14 -20z" />
    <glyph glyph-name="Idotaccent" unicode="&#x130;" horiz-adv-x="290" 
d="M107.5 2.5c-11.667 10.333 -17.499 24.499 -17.499 42.499l-1 519c0 50.667 -5.33301 90.334 -16 119.001c6.66699 6 15.5 11.5 26.5 16.5s23.5 7.5 37.5 7.5c18.667 0 34 -5.16699 46 -15.5s18 -24.5 18 -42.5v-518c0 -52 5.33301 -91.667 16 -119
c-18.667 -16.667 -40 -25 -64 -25c-18.667 0 -33.834 5.16699 -45.501 15.5zM90.501 771.999c-12.333 12 -18.5 26.333 -18.5 43c0 17.333 6 32 18 44s26.667 18 44 18c16.667 0 31 -6.16699 43 -18.5s18 -26.833 18 -43.5s-6 -31 -18 -43s-26.333 -18 -43 -18
s-31.167 6 -43.5 18z" />
    <glyph glyph-name="dotlessi" unicode="&#x131;" horiz-adv-x="258" 
d="M201 12c-18.667 -16.667 -39.667 -25 -63 -25c-17.333 0 -31.833 5.33301 -43.5 16s-17.5 24.667 -17.5 42l-1 338c0 51.333 -5.33301 91.333 -16 120c20 16 40.667 24 62 24c18 0 32.833 -5.16699 44.5 -15.5s17.5 -24.5 17.5 -42.5l1 -338
c0 -52 5.33301 -91.667 16 -119z" />
    <glyph glyph-name="Jcircumflex" unicode="&#x134;" horiz-adv-x="478" 
d="M81 19.5c-26.667 21.667 -40.002 48.498 -40.002 80.498c0 20 5.5 37.333 16.5 52s27.167 22 48.5 22s36.333 -7.33301 45 -22c-8.66699 -17.333 -13 -35 -13 -53c0 -20.667 6.5 -37.5 19.5 -50.5s28.167 -19.5 45.5 -19.5c30.667 0 51.5 12.833 62.5 38.5
s16.5 62.167 16.5 109.5v425c0 11.333 0.333008 22.333 1 33s2.33398 19 5.00098 25c-51.333 2 -81.333 3.33301 -90 4c-34 0 -51 -13.333 -51 -40c0 -25.333 10.333 -43.666 31 -54.999c-10.667 -8.66699 -26 -13 -46 -13c-18.667 0 -35 6.66699 -49 20s-21 31.333 -21 54
c0 24 8.83301 43.167 26.5 57.5s43.167 21.5 76.5 21.5c8.66699 0 28.334 -0.666992 59.001 -2c16.667 -1.33301 43.667 -2.66602 81 -3.99902c22 0 53 1.66699 93 5c-3.33301 -18 -5 -43.333 -5 -76v-443c0 -134.667 -63 -202 -189 -202
c-55.333 0 -96.333 10.833 -123 32.5zM400.998 760.998c-0.666992 -3.33301 -3.5 -8 -8.5 -14s-9.5 -9.66699 -13.5 -11l-140 78l-141 -78c-4 1.33301 -8.5 5 -13.5 11s-7.83301 10.667 -8.5 14l132 124c5.33301 2.66699 16 4 32 4c14 0 23.667 -1.33301 29 -4z" />
    <glyph glyph-name="jcircumflex" unicode="&#x135;" horiz-adv-x="258" 
d="M-65.5 -206c-20.333 15.333 -30.5029 35.332 -30.5029 59.999c0 16 5.16699 29.833 15.5 41.5s24.833 17.5 43.5 17.5c9.33301 0 16.833 -1.83301 22.5 -5.5s10.834 -9.5 15.501 -17.5c-8.66699 -14 -13 -27.333 -13 -40c0 -14.667 3.83301 -25.167 11.5 -31.5
s17.167 -9.5 28.5 -9.5c23.333 0 38.5 14.833 45.5 44.5s10.5 73.5 10.5 131.5l1 397c0 49.333 -5.66699 89.333 -17 120c20 16 40.667 24 62 24c18 0 32.833 -5.16699 44.5 -15.5s17.5 -24.5 17.5 -42.5v-502c0 -57.333 -13.167 -104.166 -39.5 -140.499
s-69.166 -54.5 -128.499 -54.5c-39.333 0 -69.166 7.66699 -89.499 23zM-12.5029 569.499c-9 3 -13.833 5.83301 -14.5 8.5l125 149c6 2 17 3 33 3c12.667 0 22 -1 28 -3l125 -149c-0.666992 -2.66699 -5.66699 -5.5 -15 -8.5s-16.333 -4.5 -21 -4.5l-119 84l-121 -84
c-4.66699 0 -11.5 1.5 -20.5 4.5z" />
    <glyph glyph-name="Kcommaaccent" unicode="&#x136;" horiz-adv-x="603" 
d="M587 47c0 -18 -7.33203 -33.168 -21.999 -45.501s-33 -18.5 -55 -18.5c-30.667 0 -55 11.5 -73 34.5s-33.667 53.5 -47 91.5l-34 107c-11.333 32 -26.333 57.167 -45 75.5s-49 27.5 -91 27.5h-19v-188c0 -52 5.33301 -91.667 16 -119c-18.667 -16.667 -40 -25 -64 -25
c-18.667 0 -33.834 5.16699 -45.501 15.5s-17.5 24.5 -17.5 42.5l-1 519c0 50.667 -5.33301 90.334 -16 119.001c6.66699 6 15.5 11.5 26.5 16.5s23.5 7.5 37.5 7.5c18.667 0 33.834 -5.16699 45.501 -15.5s17.5 -24.5 17.5 -42.5l1 -286
c6.66699 0.666992 15 2.33398 25 5.00098c38.667 8 72.167 25.5 100.5 52.5s49.666 58 63.999 93s21.5 68.5 21.5 100.5c0 33.333 -6 59.333 -18 78c16 8 31.667 12 47 12c22 0 40.667 -7 56 -21s23 -38.667 23 -74c0 -50.667 -17 -99.667 -51 -147s-85 -84 -153 -110
c38 -4.66699 67.5 -15.5 88.5 -32.5s37.833 -40.5 50.5 -70.5l46 -118c10 -23.333 18.5 -39.333 25.5 -48s15.833 -13.334 26.5 -14.001c10.667 0 19.667 3.33301 27 10c4.66699 -14 7 -24.667 7 -32zM282.001 -236.001c22.667 26.667 34.001 51.001 34.001 73.001
c0 20.667 -5.33301 35.167 -16 43.5s-24.334 14.833 -41.001 19.5c0 17.333 6.33301 32.666 19 45.999s29 20 49 20c18.667 0 34.5 -6.66699 47.5 -20s19.5 -34 19.5 -62c0 -50 -25 -97.333 -75 -142c-14 2.66699 -26.333 10 -37 22z" />
    <glyph glyph-name="kcommaaccent" unicode="&#x137;" horiz-adv-x="549" 
d="M528 53c0 -18.667 -8.16895 -34.335 -24.502 -47.002s-36.166 -19 -59.499 -19c-20 0 -38.167 6 -54.5 18s-29.166 29.333 -38.499 52l-74 160c-36.667 -12.667 -68.334 -21.334 -95.001 -26.001c0 -59.333 1 -99 3 -119s7 -40.333 15 -61
c-8.66699 -7.33301 -18 -13.166 -28 -17.499s-22.667 -6.5 -38 -6.5c-22.667 0 -38.334 5.5 -47.001 16.5s-13 26.5 -13 46.5l-1 624c0 18 5.83301 32.167 17.5 42.5s26.834 15.5 45.501 15.5c24.667 0 45.334 -8.33301 62.001 -25c-6 -31.333 -10 -57.833 -12 -79.5
s-3.33301 -47.5 -4 -77.5c0 -19.333 -0.333008 -34.666 -1 -45.999l-1 -113c15.333 42 39 75 71 99s70.667 36 116 36c42 0 73.5 -10.333 94.5 -31s31.5 -48 31.5 -82c0 -38 -13.333 -71.333 -40 -100s-60.667 -52.667 -102 -72
c16.667 -5.33301 33.334 -21.666 50.001 -48.999l42 -74c9.33301 -16 16.5 -26.5 21.5 -31.5s11.833 -7.5 20.5 -7.5c11.333 0 20.666 3.66699 27.999 11c10 -10 15 -22.333 15 -37zM324.498 300.999c38.333 28.667 57.5 63.999 57.5 105.999c0 40.667 -18.667 61 -56 61
c-27.333 0 -52 -10.333 -74 -31s-39.167 -49 -51.5 -85s-18.5 -75.667 -18.5 -119c56.667 16.667 104.167 39.334 142.5 68.001zM235.998 -236.002c22.667 26.667 34.001 51.001 34.001 73.001c0 20.667 -5.33301 35.167 -16 43.5s-24.334 14.833 -41.001 19.5
c0 17.333 6.33301 32.666 19 45.999s29 20 49 20c18.667 0 34.5 -6.66699 47.5 -20s19.5 -34 19.5 -62c0 -50 -25 -97.333 -75 -142c-14 2.66699 -26.333 10 -37 22z" />
    <glyph glyph-name="kgreenlandic" unicode="&#x138;" horiz-adv-x="587" 
d="M552 47c0 -17.333 -5.99805 -31.5029 -17.998 -42.5029s-29 -16.5 -51 -16.5c-26 0 -48.333 7.83301 -67 23.5s-31.334 35.834 -38.001 60.501l-22 74c-8 28 -20.667 50.667 -38 68s-44.333 26 -81 26h-43v-109c0 -52 5.33301 -91.667 16 -119
c-18.667 -16.667 -40 -25 -64 -25c-18.667 0 -34 5.16699 -46 15.5s-18 24.5 -18 42.5v337c0 48.667 -5.33301 88.667 -16 120c20 16 41.333 24 64 24c18.667 0 34 -5.16699 46 -15.5s18 -24.5 18 -42.5v-185l44 5c50 8 88.667 26.833 116 56.5s41 62.167 41 97.5
c0 14 -1.83301 27.833 -5.5 41.5s-7.5 23.5 -11.5 29.5c15.333 8.66699 30.666 13 45.999 13c18.667 0 36.5 -7 53.5 -21s25.5 -35 25.5 -63c0 -36.667 -13.5 -70.167 -40.5 -100.5s-62.5 -52.166 -106.5 -65.499c22 -5.33301 41.667 -17.166 59 -35.499
s30.333 -40.166 39 -65.499l15 -49c7.33301 -22 15 -36.833 23 -44.5s16.667 -11.834 26 -12.501c10 0 19 3.33301 27 10c4.66699 -11.333 7 -22 7 -32z" />
    <glyph glyph-name="Lacute" unicode="&#x139;" horiz-adv-x="494" 
d="M201 61c42.667 0.666992 87.167 5.33105 133.5 13.998s85.833 18.667 118.5 30c6.66699 -4 11.834 -11.5 15.501 -22.5s5.5 -22.5 5.5 -34.5c0 -13.333 -2.33301 -24.666 -7 -33.999s-11.334 -14 -20.001 -14h-294c-18.667 0 -33.834 5.16699 -45.501 15.5
s-17.5 24.5 -17.5 42.5l-1 506c0 50.667 -5.33301 90.334 -16 119.001c6.66699 6 15.5 11.5 26.5 16.5s23.5 7.5 37.5 7.5c18.667 0 33.834 -5.16699 45.501 -15.5s17.5 -24.5 17.5 -42.5zM121 740.997c-4 2 -8.16895 6.33398 -12.502 13.001
s-6.16602 11.334 -5.49902 14.001l140 124c11.333 -4.66699 23.833 -14.334 37.5 -29.001s22.834 -28.334 27.501 -41.001z" />
    </font>
</defs>
</svg>
